{"glyphs":{"0":{"ha":1019,"x_min":31,"x_max":988,"o":"m 517 -147 q 253 -66 363 -147 q 87 157 144 14 q 31 486 31 299 q 85 817 31 674 q 247 1039 139 960 q 509 1119 355 1119 q 772 1039 664 1119 q 934 817 880 960 q 988 486 988 674 q 934 157 988 299 q 774 -66 880 14 q 517 -147 668 -147 m 517 147 q 649 235 603 147 q 694 486 694 323 q 646 737 694 648 q 509 826 597 826 q 373 737 423 826 q 324 486 324 648 q 374 235 324 324 q 517 147 424 147 z "},"1":{"ha":1019,"x_min":170,"x_max":756,"o":"m 201 818 l 170 1103 l 664 1103 q 756 1011 756 1103 l 756 -131 l 417 -131 l 417 818 l 201 818 z "},"2":{"ha":1019,"x_min":31,"x_max":995,"o":"m 532 548 q 596 626 576 591 q 617 694 617 660 q 576 793 617 753 q 471 833 534 833 q 359 794 409 833 q 255 671 309 755 l 31 880 q 502 1119 179 1119 q 830 1013 711 1119 q 949 718 949 907 q 904 525 949 616 q 764 340 858 434 l 571 154 l 965 154 l 995 -131 l 131 -131 q 39 -39 39 -131 l 39 54 l 532 548 z "},"3":{"ha":1019,"x_min":31,"x_max":972,"o":"m 463 -147 q 217 -106 329 -147 q 31 15 105 -65 l 247 231 q 332 164 276 190 q 455 139 387 139 q 587 178 534 139 q 640 285 640 218 q 586 394 640 355 q 440 432 532 432 q 360 427 401 432 q 301 417 319 423 l 301 602 l 494 818 l 131 818 l 100 1103 l 849 1103 q 941 1011 941 1103 l 941 918 l 687 633 q 833 579 767 625 q 935 454 898 532 q 972 278 972 377 q 909 56 972 151 q 731 -93 846 -40 q 463 -147 616 -147 z "},"4":{"ha":1019,"x_min":0,"x_max":1019,"o":"m 370 1103 l 741 1103 l 401 386 l 579 386 l 579 586 l 918 586 l 918 386 l 1019 386 l 1019 100 l 918 100 l 918 -131 l 579 -131 l 579 100 l 93 100 q 0 193 0 100 l 0 285 l 370 1103 z "},"5":{"ha":1019,"x_min":23,"x_max":972,"o":"m 463 -147 q 214 -105 332 -147 q 23 15 96 -63 l 231 231 q 326 164 267 190 q 448 139 384 139 q 581 181 529 139 q 633 293 633 224 q 580 410 633 366 q 432 455 528 455 q 324 437 378 455 q 239 394 270 418 l 116 509 l 177 1103 l 903 1103 l 895 818 l 448 818 l 440 687 q 525 694 463 694 q 764 637 662 694 q 919 483 866 579 q 972 278 972 387 q 909 56 972 151 q 731 -93 846 -40 q 463 -147 616 -147 z "},"6":{"ha":1019,"x_min":39,"x_max":988,"o":"m 509 -147 q 266 -90 373 -147 q 99 65 159 -34 q 39 285 39 164 q 63 427 39 360 q 139 571 86 495 l 494 1103 l 880 1103 l 586 694 q 789 632 698 687 q 934 486 881 577 q 988 285 988 395 q 924 65 988 164 q 752 -90 861 -34 q 509 -147 642 -147 m 509 139 q 618 184 573 139 q 664 293 664 230 q 618 402 664 356 q 509 448 573 448 q 402 404 441 448 q 363 293 363 360 q 402 183 363 227 q 509 139 441 139 z "},"7":{"ha":1019,"x_min":62,"x_max":949,"o":"m 93 818 l 62 1103 l 856 1103 q 949 1011 949 1103 l 949 918 l 586 -131 l 231 -131 l 579 818 l 93 818 z "},"8":{"ha":1019,"x_min":54,"x_max":972,"o":"m 517 -147 q 272 -100 377 -147 q 110 30 167 -52 q 54 216 54 113 q 100 405 54 326 q 231 525 145 485 q 129 629 165 559 q 93 779 93 699 q 146 953 93 875 q 296 1075 199 1031 q 517 1119 392 1119 q 731 1075 637 1119 q 875 953 824 1031 q 926 779 926 875 q 891 630 926 701 q 795 525 856 559 q 925 404 878 483 q 972 216 972 324 q 916 30 972 113 q 756 -100 860 -52 q 517 -147 653 -147 m 517 640 q 587 671 557 640 q 617 741 617 701 q 588 813 617 785 q 517 841 559 841 q 439 814 469 841 q 409 741 409 787 q 440 670 409 699 q 517 640 471 640 m 517 131 q 612 168 576 131 q 648 262 648 205 q 610 359 648 316 q 517 401 573 401 q 417 360 455 401 q 378 262 378 318 q 416 167 378 204 q 517 131 454 131 z "},"9":{"ha":1019,"x_min":39,"x_max":988,"o":"m 440 270 q 234 335 326 278 q 90 484 142 392 q 39 687 39 576 q 99 907 39 809 q 266 1063 159 1006 q 509 1119 373 1119 q 752 1063 642 1119 q 924 907 861 1006 q 988 687 988 809 q 963 549 988 616 q 887 401 938 483 l 525 -131 l 147 -131 l 440 270 m 509 525 q 618 570 573 525 q 664 679 664 616 q 618 788 664 742 q 509 833 573 833 q 402 789 441 833 q 363 679 363 745 q 402 569 363 613 q 509 525 441 525 z "}," ":{"ha":463,"x_min":0,"x_max":0,"o":""}," ":{"ha":463,"x_min":0,"x_max":0,"o":""},"A":{"ha":1258,"x_min":-15,"x_max":1273,"o":"m 810 1103 l 1273 -131 l 910 -131 l 841 77 l 409 77 l 340 -131 l -15 -131 l 455 1103 l 810 1103 m 633 733 l 502 347 l 756 347 l 633 733 z "},"B":{"ha":1096,"x_min":77,"x_max":1073,"o":"m 664 1103 q 860 1061 773 1103 q 994 943 946 1019 q 1042 772 1042 867 q 1004 629 1042 691 q 895 525 966 566 q 1027 404 981 478 q 1073 231 1073 330 q 1019 42 1073 125 q 870 -86 966 -40 q 648 -131 775 -131 l 170 -131 q 77 -39 77 -131 l 77 1103 l 664 1103 m 417 625 l 571 625 q 660 655 625 625 q 694 741 694 685 q 571 849 694 849 l 417 849 l 417 625 m 417 116 l 586 116 q 692 154 651 116 q 733 255 733 191 q 692 351 733 316 q 586 386 651 386 l 417 386 l 417 116 z "},"C":{"ha":1157,"x_min":15,"x_max":1157,"o":"m 687 -147 q 346 -64 500 -147 q 104 163 193 19 q 15 486 15 307 q 104 809 15 665 q 346 1036 193 954 q 687 1119 500 1119 q 946 1073 826 1119 q 1157 949 1066 1028 l 926 718 q 687 818 838 818 q 522 777 594 818 q 410 660 451 736 q 370 486 370 585 q 410 309 370 384 q 522 194 451 235 q 687 154 594 154 q 926 247 833 154 l 1157 15 q 951 -107 1063 -68 q 687 -147 840 -147 z "},"D":{"ha":1281,"x_min":77,"x_max":1265,"o":"m 594 1103 q 938 1026 785 1103 q 1178 809 1091 949 q 1265 486 1265 668 q 1181 164 1265 304 q 944 -54 1096 23 q 602 -131 793 -131 l 170 -131 q 77 -39 77 -131 l 77 1103 l 594 1103 m 424 162 l 594 162 q 826 245 742 162 q 910 486 910 327 q 826 728 910 645 q 594 810 742 810 l 424 810 l 424 162 z "},"E":{"ha":1057,"x_min":77,"x_max":1034,"o":"m 1011 1103 l 1011 818 l 424 818 l 424 640 l 957 640 l 957 355 l 424 355 l 424 154 l 1003 154 l 1034 -131 l 170 -131 q 77 -39 77 -131 l 77 1103 l 1011 1103 z "},"F":{"ha":1019,"x_min":77,"x_max":988,"o":"m 988 1103 l 988 818 l 424 818 l 424 594 l 965 594 l 965 309 l 424 309 l 424 -131 l 77 -131 l 77 1103 l 988 1103 z "},"G":{"ha":1335,"x_min":15,"x_max":1327,"o":"m 687 -147 q 343 -64 497 -147 q 103 163 190 19 q 15 486 15 307 q 108 809 15 664 q 358 1036 201 954 q 702 1119 515 1119 q 1008 1061 872 1119 q 1227 903 1144 1003 l 995 671 q 861 783 931 748 q 694 818 792 818 q 529 776 602 818 q 413 660 455 735 q 370 486 370 585 q 411 312 370 387 q 525 195 452 236 q 694 154 599 154 q 860 194 793 154 q 957 309 927 233 l 640 316 l 640 594 l 1327 594 l 1327 548 q 1248 171 1327 327 q 1025 -66 1170 15 q 687 -147 880 -147 z "},"H":{"ha":1250,"x_min":77,"x_max":1165,"o":"m 424 1103 l 424 640 l 826 640 l 826 1103 l 1165 1103 l 1165 -131 l 826 -131 l 826 355 l 424 355 l 424 -131 l 77 -131 l 77 1103 l 424 1103 z "},"I":{"ha":502,"x_min":77,"x_max":424,"o":"m 424 1103 l 424 -131 l 77 -131 l 77 1103 l 424 1103 z "},"J":{"ha":934,"x_min":-15,"x_max":880,"o":"m 363 -147 q 147 -106 238 -147 q -15 15 56 -66 l 208 239 q 378 154 281 154 q 489 198 446 154 q 532 324 532 241 l 532 1103 l 880 1103 l 880 340 q 818 80 880 190 q 640 -88 756 -29 q 363 -147 523 -147 z "},"K":{"ha":1227,"x_min":77,"x_max":1242,"o":"m 424 1103 l 424 556 l 802 1103 l 1219 1103 l 787 517 l 1242 -131 l 826 -131 l 424 471 l 424 -131 l 77 -131 l 77 1103 l 424 1103 z "},"L":{"ha":941,"x_min":77,"x_max":949,"o":"m 424 1103 l 424 162 l 918 162 l 949 -131 l 170 -131 q 77 -39 77 -131 l 77 1103 l 424 1103 z "},"M":{"ha":1466,"x_min":77,"x_max":1389,"o":"m 332 1103 l 733 509 l 1134 1103 l 1296 1103 q 1389 1011 1389 1103 l 1389 -131 l 1042 -131 l 1042 448 l 841 162 l 625 162 l 424 448 l 424 -131 l 77 -131 l 77 1103 l 332 1103 z "},"N":{"ha":1265,"x_min":77,"x_max":1188,"o":"m 324 1103 l 841 448 l 841 1103 l 1188 1103 l 1188 -131 l 926 -131 l 424 502 l 424 -131 l 77 -131 l 77 1103 l 324 1103 z "},"O":{"ha":1366,"x_min":15,"x_max":1350,"o":"m 687 -154 q 343 -70 497 -154 q 103 160 190 14 q 15 486 15 307 q 103 812 15 665 q 343 1042 190 958 q 687 1127 497 1127 q 1028 1044 877 1127 q 1265 816 1179 961 q 1350 486 1350 670 q 1265 160 1350 307 q 1028 -70 1179 14 q 687 -154 877 -154 m 687 147 q 913 238 830 147 q 995 486 995 329 q 913 728 995 637 q 687 818 830 818 q 456 728 542 818 q 370 486 370 637 q 456 238 370 330 q 687 147 542 147 z "},"P":{"ha":1080,"x_min":77,"x_max":1073,"o":"m 648 1103 q 865 1054 769 1103 q 1017 914 961 1005 q 1073 702 1073 823 q 1017 491 1073 582 q 865 350 961 400 q 648 301 769 301 l 424 301 l 424 -131 l 77 -131 l 77 1103 l 648 1103 m 424 548 l 579 548 q 687 590 640 548 q 733 702 733 631 q 688 811 733 773 q 579 849 642 849 l 424 849 l 424 548 z "},"Q":{"ha":1366,"x_min":15,"x_max":1404,"o":"m 687 -154 q 343 -70 497 -154 q 103 160 190 14 q 15 486 15 307 q 103 812 15 665 q 343 1042 190 958 q 687 1127 497 1127 q 1028 1044 877 1127 q 1265 816 1179 961 q 1350 486 1350 670 q 1319 289 1350 384 q 1235 116 1289 193 l 1404 -54 l 1219 -239 l 1042 -62 q 687 -154 892 -154 m 687 147 q 810 170 753 147 l 625 355 l 810 540 l 980 370 q 995 486 995 432 q 913 728 995 637 q 687 818 830 818 q 456 728 542 818 q 370 486 370 637 q 456 238 370 330 q 687 147 542 147 z "},"R":{"ha":1119,"x_min":77,"x_max":1134,"o":"m 625 1103 q 850 1057 752 1103 q 1002 927 948 1011 q 1057 733 1057 843 q 979 515 1057 608 q 772 386 901 421 l 1134 -131 l 741 -131 l 432 363 l 424 363 l 424 -131 l 77 -131 l 77 1103 l 625 1103 m 424 602 l 571 602 q 674 634 639 602 q 710 725 710 667 q 674 816 710 784 q 571 849 639 849 l 424 849 l 424 602 z "},"S":{"ha":1003,"x_min":-15,"x_max":988,"o":"m 478 -147 q 201 -103 319 -147 q -15 39 82 -59 l 201 255 q 502 123 332 123 q 609 148 569 123 q 648 208 648 173 q 601 283 648 255 q 455 347 554 312 q 263 429 340 389 q 132 546 187 469 q 77 741 77 622 q 134 944 77 858 q 296 1074 191 1029 q 540 1119 401 1119 q 792 1075 677 1119 q 988 949 906 1031 l 772 733 q 656 821 711 793 q 532 849 600 849 q 448 831 478 849 q 417 779 417 813 q 460 710 417 736 q 602 648 503 684 q 796 569 718 610 q 931 451 873 529 q 988 247 988 372 q 854 -42 988 62 q 478 -147 721 -147 z "},"T":{"ha":1096,"x_min":-8,"x_max":1088,"o":"m 23 810 l -8 1103 l 1088 1103 l 1088 810 l 718 810 l 718 -131 l 370 -131 l 370 810 l 23 810 z "},"U":{"ha":1188,"x_min":54,"x_max":1134,"o":"m 594 -147 q 313 -80 435 -147 q 122 103 190 -14 q 54 370 54 221 l 54 1103 l 401 1103 l 401 340 q 456 204 401 255 q 594 154 511 154 q 732 204 677 154 q 787 340 787 255 l 787 1103 l 1134 1103 l 1134 370 q 1066 103 1134 221 q 876 -80 998 -14 q 594 -147 753 -147 z "},"V":{"ha":1219,"x_min":-8,"x_max":1227,"o":"m 355 1103 l 610 347 l 864 1103 l 1227 1103 l 772 -131 l 440 -131 l -8 1103 l 355 1103 z "},"W":{"ha":1721,"x_min":-8,"x_max":1728,"o":"m 332 1103 l 525 432 l 718 1103 l 1003 1103 l 1196 432 l 1389 1103 l 1728 1103 l 1343 -131 l 1057 -131 l 856 556 l 664 -131 l 378 -131 l -8 1103 l 332 1103 z "},"X":{"ha":1219,"x_min":-15,"x_max":1235,"o":"m 8 1103 l 424 1103 l 617 779 l 810 1103 l 1211 1103 l 818 509 l 1235 -131 l 826 -131 l 610 239 l 386 -131 l -15 -131 l 409 502 l 8 1103 z "},"Y":{"ha":1165,"x_min":-15,"x_max":1181,"o":"m -15 1103 l 378 1103 l 586 718 l 795 1103 l 1181 1103 l 756 378 l 756 -131 l 409 -131 l 409 363 l -15 1103 z "},"Z":{"ha":1034,"x_min":23,"x_max":1011,"o":"m 556 818 l 62 818 l 31 1103 l 918 1103 q 1011 1011 1011 1103 l 1011 864 l 478 154 l 980 154 l 1011 -131 l 116 -131 q 23 -39 23 -131 l 23 108 l 556 818 z "},"a":{"ha":1011,"x_min":8,"x_max":949,"o":"m 409 -147 q 199 -91 290 -147 q 58 64 108 -35 q 8 293 8 164 q 58 525 8 423 q 200 684 108 627 q 409 741 292 741 q 617 671 520 741 l 617 718 l 949 718 l 949 -131 l 617 -131 l 617 -85 q 409 -147 531 -147 m 486 147 q 591 188 549 147 q 633 293 633 230 q 595 399 633 358 q 494 440 557 440 q 389 398 431 440 q 347 293 347 356 q 385 188 347 228 q 486 147 423 147 z "},"b":{"ha":1011,"x_min":62,"x_max":1003,"o":"m 394 1134 l 394 694 q 579 741 475 741 q 800 684 704 741 q 950 525 897 627 q 1003 293 1003 423 q 950 63 1003 164 q 801 -92 897 -37 q 579 -147 705 -147 q 386 -93 480 -147 l 386 -131 l 62 -131 l 62 1134 l 394 1134 m 517 147 q 622 188 580 147 q 664 293 664 230 q 622 398 664 356 q 517 440 580 440 q 416 399 454 440 q 378 293 378 358 q 416 188 378 228 q 517 147 454 147 z "},"c":{"ha":826,"x_min":0,"x_max":833,"o":"m 486 -147 q 238 -90 349 -147 q 63 68 127 -32 q 0 293 0 168 q 65 524 0 421 q 243 684 130 627 q 494 741 356 741 q 826 617 691 741 l 610 401 q 559 437 585 426 q 494 448 532 448 q 384 406 429 448 q 340 301 340 364 q 384 190 340 233 q 494 147 429 147 q 564 160 537 147 q 617 201 591 174 l 833 -15 q 675 -116 759 -85 q 486 -147 591 -147 z "},"d":{"ha":1011,"x_min":8,"x_max":949,"o":"m 424 -147 q 204 -92 299 -147 q 59 63 110 -37 q 8 293 8 164 q 59 525 8 424 q 204 684 110 627 q 424 741 299 741 q 610 694 529 741 l 610 1134 l 949 1134 l 949 -131 l 617 -131 l 617 -93 q 424 -147 523 -147 m 486 147 q 591 188 549 147 q 633 293 633 230 q 595 399 633 358 q 494 440 557 440 q 389 398 431 440 q 347 293 347 356 q 385 188 347 228 q 486 147 423 147 z "},"e":{"ha":926,"x_min":0,"x_max":926,"o":"m 502 -147 q 239 -92 353 -147 q 63 63 125 -37 q 0 293 0 164 q 61 521 0 418 q 230 682 122 623 q 471 741 338 741 q 704 686 600 741 q 867 535 809 631 q 926 316 926 438 q 910 193 926 285 l 324 193 q 390 109 341 140 q 502 77 438 77 q 609 100 559 77 q 694 162 659 122 l 856 -8 q 502 -147 730 -147 m 478 509 q 381 481 421 509 q 324 401 341 454 l 617 401 q 572 484 606 458 q 478 509 537 509 z "},"f":{"ha":764,"x_min":-31,"x_max":864,"o":"m 0 448 l -31 718 l 162 718 l 162 756 q 211 958 162 866 q 352 1103 259 1049 q 571 1157 444 1157 q 864 1042 748 1157 l 656 833 q 586 856 633 856 q 519 834 545 856 q 494 772 494 812 l 494 718 l 733 718 l 733 448 l 494 448 l 494 -131 l 162 -131 l 162 448 l 0 448 z "},"g":{"ha":980,"x_min":0,"x_max":918,"o":"m 409 -93 q 198 -37 292 -93 q 52 114 105 19 q 0 324 0 210 q 52 534 0 438 q 198 685 105 630 q 409 741 292 741 q 509 726 460 741 q 594 687 559 711 l 594 718 l 918 718 l 918 -62 q 855 -301 918 -198 q 679 -461 792 -404 q 424 -517 566 -517 q 167 -471 278 -517 q 0 -340 57 -426 l 201 -139 q 289 -209 242 -187 q 401 -231 335 -231 q 531 -191 483 -231 q 579 -77 579 -151 l 579 -54 q 505 -84 546 -76 q 409 -93 465 -93 m 471 193 q 567 231 532 193 q 602 324 602 269 q 566 415 602 375 q 471 455 531 455 q 375 415 410 455 q 340 324 340 375 q 377 234 340 275 q 471 193 415 193 z "},"h":{"ha":980,"x_min":62,"x_max":941,"o":"m 394 1134 l 394 679 q 489 725 434 708 q 602 741 545 741 q 781 701 704 741 q 900 589 858 660 q 941 424 941 517 l 941 -131 l 602 -131 l 602 347 q 573 422 602 397 q 502 448 545 448 q 423 422 452 448 q 394 347 394 397 l 394 -131 l 62 -131 l 62 1134 l 394 1134 z "},"i":{"ha":455,"x_min":54,"x_max":401,"o":"m 224 802 q 102 853 150 802 q 54 980 54 904 q 101 1103 54 1056 q 224 1150 148 1150 q 350 1102 299 1150 q 401 980 401 1054 q 350 853 401 904 q 224 802 299 802 m 394 718 l 394 -131 l 54 -131 l 54 718 l 394 718 z "},"j":{"ha":478,"x_min":-247,"x_max":424,"o":"m 255 802 q 128 853 179 802 q 77 980 77 904 q 128 1102 77 1054 q 255 1150 179 1150 q 377 1103 330 1150 q 424 980 424 1056 q 377 853 424 904 q 255 802 329 802 m 46 -517 q -247 -401 -144 -517 l -39 -193 q 23 -224 -8 -224 q 69 -206 52 -224 q 85 -154 85 -188 l 85 718 l 424 718 l 424 -147 q 378 -339 424 -255 q 246 -470 332 -423 q 46 -517 160 -517 z "},"k":{"ha":957,"x_min":62,"x_max":988,"o":"m 394 1134 l 394 363 l 602 718 l 972 718 l 702 324 l 988 -131 l 610 -131 l 394 262 l 394 -131 l 62 -131 l 62 1134 l 394 1134 z "},"l":{"ha":455,"x_min":62,"x_max":394,"o":"m 394 1134 l 394 -131 l 62 -131 l 62 1134 l 394 1134 z "},"m":{"ha":1481,"x_min":62,"x_max":1443,"o":"m 394 718 l 394 679 q 491 725 435 708 q 610 741 546 741 q 731 715 671 741 q 833 648 792 690 q 1096 741 938 741 q 1275 698 1196 741 q 1398 573 1353 654 q 1443 378 1443 491 l 1443 -131 l 1103 -131 l 1103 355 q 1077 421 1103 395 q 1011 448 1051 448 q 944 421 971 448 q 918 355 918 395 l 918 -131 l 579 -131 l 579 355 q 556 422 579 397 q 494 448 534 448 q 423 421 452 448 q 394 355 394 395 l 394 -131 l 62 -131 l 62 718 l 394 718 z "},"n":{"ha":980,"x_min":62,"x_max":941,"o":"m 394 718 l 394 671 q 496 721 437 702 q 617 741 556 741 q 782 701 708 741 q 899 588 856 660 q 941 424 941 515 l 941 -131 l 602 -131 l 602 347 q 573 422 602 397 q 502 448 545 448 q 423 422 452 448 q 394 347 394 397 l 394 -131 l 62 -131 l 62 718 l 394 718 z "},"o":{"ha":972,"x_min":0,"x_max":972,"o":"m 486 -147 q 238 -88 349 -147 q 63 73 127 -29 q 0 301 0 176 q 63 526 0 426 q 238 684 127 627 q 486 741 349 741 q 735 684 623 741 q 909 526 846 627 q 972 301 972 426 q 909 73 972 176 q 735 -88 846 -29 q 486 -147 623 -147 m 486 147 q 588 185 551 147 q 625 293 625 224 q 587 405 625 363 q 486 448 549 448 q 380 405 421 448 q 340 293 340 363 q 381 188 340 230 q 486 147 423 147 z "},"p":{"ha":1011,"x_min":62,"x_max":1003,"o":"m 394 718 l 394 687 q 579 741 488 741 q 800 684 704 741 q 950 525 897 627 q 1003 293 1003 423 q 950 63 1003 164 q 801 -92 897 -37 q 579 -147 705 -147 q 386 -100 468 -147 l 386 -494 l 62 -494 l 62 718 l 394 718 m 517 147 q 622 188 580 147 q 664 293 664 230 q 622 398 664 356 q 517 440 580 440 q 416 399 454 440 q 378 293 378 358 q 416 188 378 228 q 517 147 454 147 z "},"q":{"ha":1011,"x_min":8,"x_max":949,"o":"m 409 -147 q 199 -91 290 -147 q 58 64 108 -35 q 8 293 8 164 q 58 525 8 423 q 200 684 108 627 q 409 741 292 741 q 617 671 520 741 l 617 718 l 949 718 l 949 -494 l 617 -494 l 617 -85 q 409 -147 531 -147 m 486 147 q 591 188 549 147 q 633 293 633 230 q 595 399 633 358 q 494 440 557 440 q 389 398 431 440 q 347 293 347 356 q 385 188 347 228 q 486 147 423 147 z "},"r":{"ha":748,"x_min":62,"x_max":779,"o":"m 394 718 l 394 679 q 491 725 435 708 q 610 741 546 741 q 710 726 665 741 q 779 687 755 711 l 594 417 q 556 438 582 429 q 502 448 529 448 q 421 418 449 448 q 394 332 394 389 l 394 -131 l 62 -131 l 62 718 l 394 718 z "},"s":{"ha":795,"x_min":-23,"x_max":802,"o":"m 394 -154 q 159 -111 272 -154 q -23 8 46 -68 l 154 185 q 254 123 194 145 q 378 100 313 100 q 423 110 406 100 q 440 131 440 119 q 415 164 440 153 q 332 193 390 176 q 190 238 248 213 q 89 320 131 264 q 46 471 46 377 q 93 614 46 551 q 223 713 139 677 q 417 748 307 748 q 637 711 532 748 q 802 602 741 674 l 625 417 q 537 476 590 458 q 440 494 485 494 q 386 463 386 494 q 407 436 386 446 q 478 409 427 426 q 617 363 557 390 q 720 276 676 336 q 764 116 764 216 q 664 -83 764 -11 q 394 -154 563 -154 z "},"t":{"ha":679,"x_min":-23,"x_max":694,"o":"m 8 448 l -23 718 l 170 718 l 170 1073 l 509 1073 l 509 718 l 694 718 l 694 448 l 509 448 l 509 -131 l 170 -131 l 170 448 l 8 448 z "},"u":{"ha":926,"x_min":39,"x_max":887,"o":"m 463 -147 q 245 -99 341 -147 q 93 35 148 -51 q 39 231 39 122 l 39 718 l 378 718 l 378 224 q 400 161 378 184 q 463 139 423 139 q 523 162 498 139 q 548 224 548 185 l 548 718 l 887 718 l 887 231 q 833 35 887 122 q 681 -99 778 -51 q 463 -147 585 -147 z "},"v":{"ha":926,"x_min":-31,"x_max":957,"o":"m 332 718 l 463 224 l 594 718 l 957 718 l 625 -131 l 309 -131 l -31 718 l 332 718 z "},"w":{"ha":1366,"x_min":-23,"x_max":1381,"o":"m 301 718 l 394 285 l 517 718 l 841 718 l 965 285 l 1065 718 l 1381 718 l 1134 -131 l 810 -131 l 679 340 l 548 -131 l 224 -131 l -23 718 l 301 718 z "},"x":{"ha":926,"x_min":-31,"x_max":957,"o":"m -8 718 l 378 718 l 478 532 l 579 718 l 941 718 l 664 309 l 957 -131 l 571 -131 l 455 85 l 324 -131 l -31 -131 l 270 301 l -8 718 z "},"y":{"ha":903,"x_min":-31,"x_max":934,"o":"m -31 718 l 332 718 l 455 270 l 571 718 l 934 718 l 594 -131 l 455 -494 l 123 -494 l 293 -100 l -31 718 z "},"z":{"ha":833,"x_min":15,"x_max":818,"o":"m 340 448 l 62 448 l 31 718 l 718 718 q 810 625 810 718 l 810 517 l 486 139 l 787 139 l 818 -131 l 108 -131 q 15 -39 15 -131 l 15 77 l 340 448 z "},"ㄱ":{"ha":1389,"x_min":162,"x_max":1227,"o":"m 1227 139 l 880 139 l 880 556 l 162 556 l 162 880 l 1227 880 l 1227 139 z "},"ﾡ":{"ha":1389,"x_min":162,"x_max":1227,"o":"m 1227 139 l 880 139 l 880 556 l 162 556 l 162 880 l 1227 880 l 1227 139 z "},"ㄲ":{"ha":1389,"x_min":116,"x_max":1273,"o":"m 671 139 l 324 139 l 324 556 l 116 556 l 116 880 l 671 880 l 671 139 m 1273 139 l 926 139 l 926 556 l 718 556 l 718 880 l 1273 880 l 1273 139 z "},"ﾢ":{"ha":1389,"x_min":116,"x_max":1273,"o":"m 671 139 l 324 139 l 324 556 l 116 556 l 116 880 l 671 880 l 671 139 m 1273 139 l 926 139 l 926 556 l 718 556 l 718 880 l 1273 880 l 1273 139 z "},"ㄳ":{"ha":1389,"x_min":116,"x_max":1427,"o":"m 671 372 q 807 539 750 435 q 864 718 864 644 l 864 880 l 1173 880 l 1173 718 q 1210 583 1173 660 q 1306 437 1247 505 q 1427 340 1364 369 l 1204 116 q 1100 206 1137 171 q 1020 298 1063 241 q 934 197 975 236 q 833 108 894 157 l 671 270 l 671 139 l 324 139 l 324 556 l 116 556 l 116 880 l 671 880 l 671 372 z "},"ﾣ":{"ha":1389,"x_min":116,"x_max":1427,"o":"m 671 372 q 807 539 750 435 q 864 718 864 644 l 864 880 l 1173 880 l 1173 718 q 1210 583 1173 660 q 1306 437 1247 505 q 1427 340 1364 369 l 1204 116 q 1100 206 1137 171 q 1020 298 1063 241 q 934 197 975 236 q 833 108 894 157 l 671 270 l 671 139 l 324 139 l 324 556 l 116 556 l 116 880 l 671 880 l 671 372 z "},"ㄴ":{"ha":1389,"x_min":162,"x_max":1258,"o":"m 486 880 l 486 417 l 1227 417 l 1258 139 l 255 139 q 162 231 162 139 l 162 880 l 486 880 z "},"ﾤ":{"ha":1389,"x_min":162,"x_max":1258,"o":"m 486 880 l 486 417 l 1227 417 l 1258 139 l 255 139 q 162 231 162 139 l 162 880 l 486 880 z "},"ㄵ":{"ha":1389,"x_min":116,"x_max":1427,"o":"m 1227 123 q 1133 200 1191 144 q 1023 330 1076 256 q 908 195 971 255 q 810 116 846 136 l 707 207 l 710 170 q 208 139 556 139 q 116 231 116 139 l 116 880 l 417 880 l 417 418 q 687 432 568 418 l 694 347 q 836 487 779 410 q 887 648 892 563 l 887 664 l 694 664 l 694 880 l 1343 880 l 1343 664 l 1150 664 l 1150 648 q 1241 444 1154 539 q 1427 301 1327 350 l 1227 123 z "},"ﾥ":{"ha":1389,"x_min":116,"x_max":1427,"o":"m 1227 123 q 1133 200 1191 144 q 1023 330 1076 256 q 908 195 971 255 q 810 116 846 136 l 707 207 l 710 170 q 208 139 556 139 q 116 231 116 139 l 116 880 l 417 880 l 417 418 q 687 432 568 418 l 694 347 q 836 487 779 410 q 887 648 892 563 l 887 664 l 694 664 l 694 880 l 1343 880 l 1343 664 l 1150 664 l 1150 648 q 1241 444 1154 539 q 1427 301 1327 350 l 1227 123 z "},"ㄶ":{"ha":1389,"x_min":116,"x_max":1366,"o":"m 116 880 l 417 880 l 417 418 q 664 432 546 418 l 687 170 q 479 145 596 151 q 208 139 363 139 q 116 231 116 139 l 116 880 m 1134 926 l 1134 841 l 1366 841 l 1366 625 l 671 625 l 671 841 l 903 841 l 903 926 l 1134 926 m 1019 116 q 779 176 863 116 q 694 347 694 236 q 779 519 694 458 q 1019 579 863 579 q 1258 519 1174 579 q 1343 347 1343 458 q 1258 176 1343 236 q 1019 116 1174 116 m 1019 285 q 1088 302 1065 285 q 1111 347 1111 318 q 1088 393 1111 377 q 1019 409 1065 409 q 949 393 972 409 q 926 347 926 377 q 949 302 926 318 q 1019 285 972 285 z "},"ﾦ":{"ha":1389,"x_min":116,"x_max":1366,"o":"m 116 880 l 417 880 l 417 418 q 664 432 546 418 l 687 170 q 479 145 596 151 q 208 139 363 139 q 116 231 116 139 l 116 880 m 1134 926 l 1134 841 l 1366 841 l 1366 625 l 671 625 l 671 841 l 903 841 l 903 926 l 1134 926 m 1019 116 q 779 176 863 116 q 694 347 694 236 q 779 519 694 458 q 1019 579 863 579 q 1258 519 1174 579 q 1343 347 1343 458 q 1258 176 1343 236 q 1019 116 1174 116 m 1019 285 q 1088 302 1065 285 q 1111 347 1111 318 q 1088 393 1111 377 q 1019 409 1065 409 q 949 393 972 409 q 926 347 926 377 q 949 302 926 318 q 1019 285 972 285 z "},"ㄷ":{"ha":1389,"x_min":162,"x_max":1242,"o":"m 1227 880 l 1227 602 l 486 602 l 486 417 l 1227 417 l 1242 139 l 255 139 q 162 231 162 139 l 162 880 l 1227 880 z "},"ﾧ":{"ha":1389,"x_min":162,"x_max":1242,"o":"m 1227 880 l 1227 602 l 486 602 l 486 417 l 1227 417 l 1242 139 l 255 139 q 162 231 162 139 l 162 880 l 1227 880 z "},"ㄸ":{"ha":1389,"x_min":93,"x_max":1296,"o":"m 671 880 l 671 602 l 417 602 l 417 421 q 671 440 568 427 l 687 162 q 185 139 500 139 q 93 231 93 139 l 93 880 l 671 880 m 1296 880 l 1296 602 l 1042 602 l 1042 417 l 1296 417 l 1296 139 l 718 139 l 718 880 l 1296 880 z "},"ﾨ":{"ha":1389,"x_min":93,"x_max":1296,"o":"m 671 880 l 671 602 l 417 602 l 417 421 q 671 440 568 427 l 687 162 q 185 139 500 139 q 93 231 93 139 l 93 880 l 671 880 m 1296 880 l 1296 602 l 1042 602 l 1042 417 l 1296 417 l 1296 139 l 718 139 l 718 880 l 1296 880 z "},"ㄹ":{"ha":1389,"x_min":116,"x_max":1289,"o":"m 1273 880 l 1273 417 l 440 417 l 440 347 l 1273 347 l 1289 139 l 208 139 q 116 231 116 139 l 116 602 l 949 602 l 949 671 l 116 671 l 116 880 l 1273 880 z "},"ﾩ":{"ha":1389,"x_min":116,"x_max":1289,"o":"m 1273 880 l 1273 417 l 440 417 l 440 347 l 1273 347 l 1289 139 l 208 139 q 116 231 116 139 l 116 602 l 949 602 l 949 671 l 116 671 l 116 880 l 1273 880 z "},"ㄺ":{"ha":1389,"x_min":116,"x_max":1273,"o":"m 116 880 l 687 880 l 687 417 l 370 417 l 370 352 q 802 378 608 350 l 826 177 q 563 149 711 157 q 208 139 414 140 q 116 231 116 139 l 116 602 l 432 602 l 432 671 l 116 671 l 116 880 m 1273 139 l 949 139 l 949 602 l 733 602 l 733 880 l 1273 880 l 1273 139 z "},"ﾪ":{"ha":1389,"x_min":116,"x_max":1273,"o":"m 116 880 l 687 880 l 687 417 l 370 417 l 370 352 q 802 378 608 350 l 826 177 q 563 149 711 157 q 208 139 414 140 q 116 231 116 139 l 116 602 l 432 602 l 432 671 l 116 671 l 116 880 m 1273 139 l 949 139 l 949 602 l 733 602 l 733 880 l 1273 880 l 1273 139 z "},"ㄻ":{"ha":1389,"x_min":116,"x_max":1273,"o":"m 1273 880 l 1273 139 l 733 139 l 733 880 l 1273 880 m 1026 370 l 1026 648 l 980 648 l 980 370 l 1026 370 m 116 880 l 687 880 l 687 417 l 370 417 l 370 349 q 687 363 549 347 l 710 162 q 208 131 556 131 q 116 224 116 131 l 116 602 l 432 602 l 432 671 l 116 671 l 116 880 z "},"ﾫ":{"ha":1389,"x_min":116,"x_max":1273,"o":"m 1273 880 l 1273 139 l 733 139 l 733 880 l 1273 880 m 1026 370 l 1026 648 l 980 648 l 980 370 l 1026 370 m 116 880 l 687 880 l 687 417 l 370 417 l 370 349 q 687 363 549 347 l 710 162 q 208 131 556 131 q 116 224 116 131 l 116 602 l 432 602 l 432 671 l 116 671 l 116 880 z "},"ㄼ":{"ha":1389,"x_min":116,"x_max":1273,"o":"m 116 880 l 687 880 l 687 417 l 370 417 l 370 349 q 687 363 549 347 l 710 170 q 208 139 556 139 q 116 231 116 139 l 116 602 l 432 602 l 432 671 l 116 671 l 116 880 m 980 880 l 980 710 l 1026 710 l 1026 880 l 1273 880 l 1273 139 l 733 139 l 733 880 l 980 880 m 1026 347 l 1026 509 l 980 509 l 980 347 l 1026 347 z "},"ﾬ":{"ha":1389,"x_min":116,"x_max":1273,"o":"m 116 880 l 687 880 l 687 417 l 370 417 l 370 349 q 687 363 549 347 l 710 170 q 208 139 556 139 q 116 231 116 139 l 116 602 l 432 602 l 432 671 l 116 671 l 116 880 m 980 880 l 980 710 l 1026 710 l 1026 880 l 1273 880 l 1273 139 l 733 139 l 733 880 l 980 880 m 1026 347 l 1026 509 l 980 509 l 980 347 l 1026 347 z "},"ㄽ":{"ha":1389,"x_min":116,"x_max":1427,"o":"m 1173 880 l 1173 741 q 1246 496 1173 605 q 1427 324 1319 387 l 1204 123 q 1116 204 1165 153 q 1022 324 1066 256 q 926 198 975 252 q 833 116 877 145 l 702 233 l 710 170 q 208 139 563 139 q 116 231 116 139 l 116 602 l 432 602 l 432 671 l 116 671 l 116 880 l 687 880 l 687 417 l 370 417 l 370 349 q 677 361 539 347 q 813 527 762 429 q 864 741 864 625 l 864 880 l 1173 880 z "},"ﾭ":{"ha":1389,"x_min":116,"x_max":1427,"o":"m 1173 880 l 1173 741 q 1246 496 1173 605 q 1427 324 1319 387 l 1204 123 q 1116 204 1165 153 q 1022 324 1066 256 q 926 198 975 252 q 833 116 877 145 l 702 233 l 710 170 q 208 139 563 139 q 116 231 116 139 l 116 602 l 432 602 l 432 671 l 116 671 l 116 880 l 687 880 l 687 417 l 370 417 l 370 349 q 677 361 539 347 q 813 527 762 429 q 864 741 864 625 l 864 880 l 1173 880 z "},"ㄾ":{"ha":1389,"x_min":116,"x_max":1289,"o":"m 116 880 l 687 880 l 687 417 l 370 417 l 370 349 q 687 363 542 347 l 710 170 q 208 139 548 139 q 116 231 116 139 l 116 602 l 432 602 l 432 671 l 116 671 l 116 880 m 1281 880 l 1281 671 l 972 671 l 972 602 l 1273 602 l 1273 417 l 972 417 l 972 355 l 1289 355 l 1289 139 l 733 139 l 733 880 l 1281 880 z "},"ﾮ":{"ha":1389,"x_min":116,"x_max":1289,"o":"m 116 880 l 687 880 l 687 417 l 370 417 l 370 349 q 687 363 542 347 l 710 170 q 208 139 548 139 q 116 231 116 139 l 116 602 l 432 602 l 432 671 l 116 671 l 116 880 m 1281 880 l 1281 671 l 972 671 l 972 602 l 1273 602 l 1273 417 l 972 417 l 972 355 l 1289 355 l 1289 139 l 733 139 l 733 880 l 1281 880 z "},"ㄿ":{"ha":1389,"x_min":116,"x_max":1296,"o":"m 785 394 l 781 625 l 718 625 l 718 880 l 1289 880 l 1289 625 l 1225 625 l 1221 394 l 1296 394 l 1296 139 l 733 139 l 733 394 l 785 394 m 116 880 l 687 880 l 687 417 l 370 417 l 370 349 q 687 363 549 347 l 710 170 q 208 139 556 139 q 116 231 116 139 l 116 602 l 432 602 l 432 671 l 116 671 l 116 880 m 1020 394 l 1025 625 l 981 625 l 986 394 l 1020 394 z "},"ﾯ":{"ha":1389,"x_min":116,"x_max":1296,"o":"m 785 394 l 781 625 l 718 625 l 718 880 l 1289 880 l 1289 625 l 1225 625 l 1221 394 l 1296 394 l 1296 139 l 733 139 l 733 394 l 785 394 m 116 880 l 687 880 l 687 417 l 370 417 l 370 349 q 687 363 549 347 l 710 170 q 208 139 556 139 q 116 231 116 139 l 116 602 l 432 602 l 432 671 l 116 671 l 116 880 m 1020 394 l 1025 625 l 981 625 l 986 394 l 1020 394 z "},"ㅀ":{"ha":1389,"x_min":116,"x_max":1335,"o":"m 1142 903 l 1142 826 l 1335 826 l 1335 602 l 718 602 l 718 826 l 910 826 l 910 903 l 1142 903 m 1026 116 q 810 177 887 116 q 733 347 733 238 q 810 518 733 457 q 1026 579 887 579 q 1242 518 1165 579 q 1319 347 1319 457 q 1242 177 1319 238 q 1026 116 1165 116 m 1026 301 q 1096 347 1096 301 q 1026 394 1096 394 q 957 347 957 394 q 1026 301 957 301 m 116 880 l 687 880 l 687 417 l 370 417 l 370 349 q 687 363 549 347 l 710 170 q 208 139 556 139 q 116 231 116 139 l 116 602 l 432 602 l 432 671 l 116 671 l 116 880 z "},"ﾰ":{"ha":1389,"x_min":116,"x_max":1335,"o":"m 1142 903 l 1142 826 l 1335 826 l 1335 602 l 718 602 l 718 826 l 910 826 l 910 903 l 1142 903 m 1026 116 q 810 177 887 116 q 733 347 733 238 q 810 518 733 457 q 1026 579 887 579 q 1242 518 1165 579 q 1319 347 1319 457 q 1242 177 1319 238 q 1026 116 1165 116 m 1026 301 q 1096 347 1096 301 q 1026 394 1096 394 q 957 347 957 394 q 1026 301 957 301 m 116 880 l 687 880 l 687 417 l 370 417 l 370 349 q 687 363 549 347 l 710 170 q 208 139 556 139 q 116 231 116 139 l 116 602 l 432 602 l 432 671 l 116 671 l 116 880 z "},"ㅁ":{"ha":1389,"x_min":162,"x_max":1227,"o":"m 1227 880 l 1227 139 l 255 139 q 162 231 162 139 l 162 880 l 1227 880 m 926 378 l 926 640 l 463 640 l 463 378 l 926 378 z "},"ﾱ":{"ha":1389,"x_min":162,"x_max":1227,"o":"m 1227 880 l 1227 139 l 255 139 q 162 231 162 139 l 162 880 l 1227 880 m 926 378 l 926 640 l 463 640 l 463 378 l 926 378 z "},"ㅂ":{"ha":1389,"x_min":116,"x_max":1273,"o":"m 417 880 l 417 718 l 972 718 l 972 880 l 1273 880 l 1273 139 l 208 139 q 116 231 116 139 l 116 880 l 417 880 m 972 370 l 972 486 l 417 486 l 417 370 l 972 370 z "},"ﾲ":{"ha":1389,"x_min":116,"x_max":1273,"o":"m 417 880 l 417 718 l 972 718 l 972 880 l 1273 880 l 1273 139 l 208 139 q 116 231 116 139 l 116 880 l 417 880 m 972 370 l 972 486 l 417 486 l 417 370 l 972 370 z "},"ㅃ":{"ha":1389,"x_min":139,"x_max":1250,"o":"m 440 880 l 440 718 l 556 718 l 556 880 l 833 880 l 833 718 l 949 718 l 949 880 l 1250 880 l 1250 139 l 231 139 q 139 231 139 139 l 139 880 l 440 880 m 556 370 l 556 486 l 440 486 l 440 370 l 556 370 m 949 370 l 949 486 l 833 486 l 833 370 l 949 370 z "},"ﾳ":{"ha":1389,"x_min":139,"x_max":1250,"o":"m 440 880 l 440 718 l 556 718 l 556 880 l 833 880 l 833 718 l 949 718 l 949 880 l 1250 880 l 1250 139 l 231 139 q 139 231 139 139 l 139 880 l 440 880 m 556 370 l 556 486 l 440 486 l 440 370 l 556 370 m 949 370 l 949 486 l 833 486 l 833 370 l 949 370 z "},"ㅄ":{"ha":1389,"x_min":116,"x_max":1427,"o":"m 370 880 l 370 694 l 440 694 l 440 880 l 687 880 l 687 372 q 864 718 864 505 l 864 880 l 1173 880 l 1173 718 q 1427 332 1173 466 l 1204 123 q 1017 316 1100 201 q 833 116 932 190 l 687 252 l 687 139 l 116 139 l 116 880 l 370 880 m 440 332 l 440 502 l 370 502 l 370 332 l 440 332 z "},"ﾴ":{"ha":1389,"x_min":116,"x_max":1427,"o":"m 370 880 l 370 694 l 440 694 l 440 880 l 687 880 l 687 372 q 864 718 864 505 l 864 880 l 1173 880 l 1173 718 q 1427 332 1173 466 l 1204 123 q 1017 316 1100 201 q 833 116 932 190 l 687 252 l 687 139 l 116 139 l 116 880 l 370 880 m 440 332 l 440 502 l 370 502 l 370 332 l 440 332 z "},"ㅅ":{"ha":1389,"x_min":93,"x_max":1296,"o":"m 880 880 l 880 787 q 926 623 880 688 q 1043 517 972 557 q 1242 424 1114 477 l 1296 401 l 1111 123 q 696 373 852 210 q 498 215 608 278 q 278 116 387 153 l 93 394 q 305 483 218 437 q 451 604 392 529 q 509 787 509 679 l 509 880 l 880 880 z "},"ﾵ":{"ha":1389,"x_min":93,"x_max":1296,"o":"m 880 880 l 880 787 q 926 623 880 688 q 1043 517 972 557 q 1242 424 1114 477 l 1296 401 l 1111 123 q 696 373 852 210 q 498 215 608 278 q 278 116 387 153 l 93 394 q 305 483 218 437 q 451 604 392 529 q 509 787 509 679 l 509 880 l 880 880 z "},"ㅆ":{"ha":1389,"x_min":-23,"x_max":1412,"o":"m -23 378 q 194 537 119 446 q 270 787 270 628 l 270 880 l 579 880 l 579 787 q 693 506 579 620 q 810 787 810 620 l 810 880 l 1119 880 l 1119 787 q 1160 655 1119 739 q 1269 492 1201 571 q 1412 378 1336 414 l 1204 123 q 1076 227 1139 164 q 961 373 1014 290 q 831 223 903 289 q 694 123 759 157 q 562 219 631 156 q 432 367 492 282 q 312 219 377 282 q 185 123 247 156 l -23 378 z "},"ﾶ":{"ha":1389,"x_min":-23,"x_max":1412,"o":"m -23 378 q 194 537 119 446 q 270 787 270 628 l 270 880 l 579 880 l 579 787 q 693 506 579 620 q 810 787 810 620 l 810 880 l 1119 880 l 1119 787 q 1160 655 1119 739 q 1269 492 1201 571 q 1412 378 1336 414 l 1204 123 q 1076 227 1139 164 q 961 373 1014 290 q 831 223 903 289 q 694 123 759 157 q 562 219 631 156 q 432 367 492 282 q 312 219 377 282 q 185 123 247 156 l -23 378 z "},"ㅇ":{"ha":1389,"x_min":139,"x_max":1250,"o":"m 694 116 q 400 162 526 116 q 207 296 275 208 q 139 502 139 383 q 207 709 139 620 q 400 846 275 798 q 694 895 526 895 q 988 846 863 895 q 1182 709 1114 798 q 1250 502 1250 620 q 1182 296 1250 383 q 988 162 1114 208 q 694 116 863 116 m 694 401 q 852 428 793 401 q 910 502 910 455 q 852 575 910 548 q 694 602 793 602 q 537 575 596 602 q 478 502 478 548 q 537 428 478 455 q 694 401 596 401 z "},"ﾷ":{"ha":1389,"x_min":139,"x_max":1250,"o":"m 694 116 q 400 162 526 116 q 207 296 275 208 q 139 502 139 383 q 207 709 139 620 q 400 846 275 798 q 694 895 526 895 q 988 846 863 895 q 1182 709 1114 798 q 1250 502 1250 620 q 1182 296 1250 383 q 988 162 1114 208 q 694 116 863 116 m 694 401 q 852 428 793 401 q 910 502 910 455 q 852 575 910 548 q 694 602 793 602 q 537 575 596 602 q 478 502 478 548 q 537 428 478 455 q 694 401 596 401 z "},"ㅈ":{"ha":1389,"x_min":23,"x_max":1366,"o":"m 23 340 q 252 405 165 377 q 415 483 340 434 q 511 602 491 532 l 116 602 l 116 880 l 1273 880 l 1273 602 l 878 602 q 965 492 897 537 q 1113 418 1032 446 q 1327 355 1194 390 q 1366 347 1341 353 l 1181 123 q 927 214 1059 156 q 696 355 796 272 q 461 208 596 269 q 208 116 327 147 l 23 340 z "},"ﾸ":{"ha":1389,"x_min":23,"x_max":1366,"o":"m 23 340 q 252 405 165 377 q 415 483 340 434 q 511 602 491 532 l 116 602 l 116 880 l 1273 880 l 1273 602 l 878 602 q 965 492 897 537 q 1113 418 1032 446 q 1327 355 1194 390 q 1366 347 1341 353 l 1181 123 q 927 214 1059 156 q 696 355 796 272 q 461 208 596 269 q 208 116 327 147 l 23 340 z "},"ㅉ":{"ha":1389,"x_min":0,"x_max":1389,"o":"m 0 340 q 282 579 252 423 l 108 579 l 77 880 l 679 880 l 679 579 l 603 579 q 694 457 617 508 q 785 579 772 508 l 710 579 l 710 880 l 1296 880 l 1296 579 l 1106 579 q 1200 438 1123 492 q 1389 347 1276 384 l 1204 123 q 1072 187 1139 145 q 948 289 1005 228 q 694 116 853 188 q 440 289 537 188 q 185 116 336 181 l 0 340 z "},"ﾹ":{"ha":1389,"x_min":0,"x_max":1389,"o":"m 0 340 q 282 579 252 423 l 108 579 l 77 880 l 679 880 l 679 579 l 603 579 q 694 457 617 508 q 785 579 772 508 l 710 579 l 710 880 l 1296 880 l 1296 579 l 1106 579 q 1200 438 1123 492 q 1389 347 1276 384 l 1204 123 q 1072 187 1139 145 q 948 289 1005 228 q 694 116 853 188 q 440 289 537 188 q 185 116 336 181 l 0 340 z "},"ㅊ":{"ha":1389,"x_min":23,"x_max":1366,"o":"m 872 926 l 872 833 l 1273 833 l 1273 556 l 907 556 q 1019 464 946 502 q 1171 404 1093 426 q 1366 355 1250 381 l 1181 123 q 698 340 870 191 q 208 116 523 187 l 23 347 q 311 431 196 386 q 481 556 426 475 l 116 556 l 116 833 l 517 833 l 517 926 l 872 926 z "},"ﾺ":{"ha":1389,"x_min":23,"x_max":1366,"o":"m 872 926 l 872 833 l 1273 833 l 1273 556 l 907 556 q 1019 464 946 502 q 1171 404 1093 426 q 1366 355 1250 381 l 1181 123 q 698 340 870 191 q 208 116 523 187 l 23 347 q 311 431 196 386 q 481 556 426 475 l 116 556 l 116 833 l 517 833 l 517 926 l 872 926 z "},"ㅋ":{"ha":1389,"x_min":93,"x_max":1273,"o":"m 1273 139 l 949 139 l 949 306 q 116 255 585 255 l 93 509 q 949 540 602 509 l 949 625 l 116 625 l 116 880 l 1273 880 l 1273 139 z "},"ﾻ":{"ha":1389,"x_min":93,"x_max":1273,"o":"m 1273 139 l 949 139 l 949 306 q 116 255 585 255 l 93 509 q 949 540 602 509 l 949 625 l 116 625 l 116 880 l 1273 880 l 1273 139 z "},"ㅌ":{"ha":1389,"x_min":116,"x_max":1304,"o":"m 1281 880 l 1281 671 l 417 671 l 417 602 l 1273 602 l 1273 417 l 417 417 l 417 347 l 1289 347 l 1304 139 l 208 139 q 116 231 116 139 l 116 880 l 1281 880 z "},"ﾼ":{"ha":1389,"x_min":116,"x_max":1304,"o":"m 1281 880 l 1281 671 l 417 671 l 417 602 l 1273 602 l 1273 417 l 417 417 l 417 347 l 1289 347 l 1304 139 l 208 139 q 116 231 116 139 l 116 880 l 1281 880 z "},"ㅍ":{"ha":1389,"x_min":93,"x_max":1296,"o":"m 273 386 l 261 625 l 116 625 l 116 880 l 1273 880 l 1273 625 l 1128 625 l 1117 386 l 1296 386 l 1296 139 l 93 139 l 93 386 l 273 386 m 793 386 l 804 625 l 585 625 l 597 386 l 793 386 z "},"ﾽ":{"ha":1389,"x_min":93,"x_max":1296,"o":"m 273 386 l 261 625 l 116 625 l 116 880 l 1273 880 l 1273 625 l 1128 625 l 1117 386 l 1296 386 l 1296 139 l 93 139 l 93 386 l 273 386 m 793 386 l 804 625 l 585 625 l 597 386 l 793 386 z "},"ㅎ":{"ha":1389,"x_min":93,"x_max":1296,"o":"m 694 123 q 255 177 394 123 q 116 347 116 231 q 255 517 116 463 q 694 571 394 571 q 1134 517 995 571 q 1273 347 1273 463 q 1134 177 1273 231 q 694 123 995 123 m 694 316 q 872 323 818 316 q 926 347 926 330 q 872 371 926 364 q 694 378 818 378 q 517 371 571 378 q 463 347 463 364 q 517 323 463 330 q 694 316 571 316 m 856 926 l 856 833 l 1296 833 l 1296 625 l 93 625 l 93 833 l 532 833 l 532 926 l 856 926 z "},"ﾾ":{"ha":1389,"x_min":93,"x_max":1296,"o":"m 694 123 q 255 177 394 123 q 116 347 116 231 q 255 517 116 463 q 694 571 394 571 q 1134 517 995 571 q 1273 347 1273 463 q 1134 177 1273 231 q 694 123 995 123 m 694 316 q 872 323 818 316 q 926 347 926 330 q 872 371 926 364 q 694 378 818 378 q 517 371 571 378 q 463 347 463 364 q 517 323 463 330 q 694 316 571 316 m 856 926 l 856 833 l 1296 833 l 1296 625 l 93 625 l 93 833 l 532 833 l 532 926 l 856 926 z "},"ㅏ":{"ha":1389,"x_min":517,"x_max":980,"o":"m 864 1181 l 864 741 l 980 741 l 980 370 l 864 370 l 864 -185 l 517 -185 l 517 1181 l 864 1181 z "},"ￂ":{"ha":1389,"x_min":517,"x_max":980,"o":"m 864 1181 l 864 741 l 980 741 l 980 370 l 864 370 l 864 -185 l 517 -185 l 517 1181 l 864 1181 z "},"ㅐ":{"ha":1389,"x_min":378,"x_max":1003,"o":"m 664 1181 l 664 741 l 718 741 l 718 1181 l 1003 1181 l 1003 -185 l 718 -185 l 718 370 l 664 370 l 664 -185 l 378 -185 l 378 1181 l 664 1181 z "},"ￃ":{"ha":1389,"x_min":378,"x_max":1003,"o":"m 664 1181 l 664 741 l 718 741 l 718 1181 l 1003 1181 l 1003 -185 l 718 -185 l 718 370 l 664 370 l 664 -185 l 378 -185 l 378 1181 l 664 1181 z "},"ㅑ":{"ha":1389,"x_min":455,"x_max":941,"o":"m 802 1181 l 802 972 l 941 972 l 941 648 l 802 648 l 802 509 l 941 509 l 941 185 l 802 185 l 802 -185 l 455 -185 l 455 1181 l 802 1181 z "},"ￄ":{"ha":1389,"x_min":455,"x_max":941,"o":"m 802 1181 l 802 972 l 941 972 l 941 648 l 802 648 l 802 509 l 941 509 l 941 185 l 802 185 l 802 -185 l 455 -185 l 455 1181 l 802 1181 z "},"ㅒ":{"ha":1389,"x_min":386,"x_max":1011,"o":"m 671 1181 l 671 972 l 725 972 l 725 1181 l 1011 1181 l 1011 -185 l 725 -185 l 725 185 l 671 185 l 671 -185 l 386 -185 l 386 1181 l 671 1181 m 725 509 l 725 648 l 671 648 l 671 509 l 725 509 z "},"ￅ":{"ha":1389,"x_min":386,"x_max":1011,"o":"m 671 1181 l 671 972 l 725 972 l 725 1181 l 1011 1181 l 1011 -185 l 725 -185 l 725 185 l 671 185 l 671 -185 l 386 -185 l 386 1181 l 671 1181 m 725 509 l 725 648 l 671 648 l 671 509 l 725 509 z "},"ㅓ":{"ha":1389,"x_min":394,"x_max":995,"o":"m 648 764 l 648 1181 l 995 1181 l 995 -185 l 648 -185 l 648 394 l 394 394 l 394 764 l 648 764 z "},"ￆ":{"ha":1389,"x_min":394,"x_max":995,"o":"m 648 764 l 648 1181 l 995 1181 l 995 -185 l 648 -185 l 648 394 l 394 394 l 394 764 l 648 764 z "},"ㅔ":{"ha":1389,"x_min":309,"x_max":1073,"o":"m 471 741 l 471 1181 l 748 1181 l 748 -185 l 471 -185 l 471 370 l 309 370 l 309 741 l 471 741 m 1073 1181 l 1073 -185 l 795 -185 l 795 1181 l 1073 1181 z "},"ￇ":{"ha":1389,"x_min":309,"x_max":1073,"o":"m 471 741 l 471 1181 l 748 1181 l 748 -185 l 471 -185 l 471 370 l 309 370 l 309 741 l 471 741 m 1073 1181 l 1073 -185 l 795 -185 l 795 1181 l 1073 1181 z "},"ㅕ":{"ha":1389,"x_min":409,"x_max":988,"o":"m 988 1181 l 988 -185 l 640 -185 l 640 185 l 409 185 l 409 509 l 640 509 l 640 648 l 409 648 l 409 972 l 640 972 l 640 1181 l 988 1181 z "},"ￊ":{"ha":1389,"x_min":409,"x_max":988,"o":"m 988 1181 l 988 -185 l 640 -185 l 640 185 l 409 185 l 409 509 l 640 509 l 640 648 l 409 648 l 409 972 l 640 972 l 640 1181 l 988 1181 z "},"ㅖ":{"ha":1389,"x_min":324,"x_max":1065,"o":"m 1065 1181 l 1065 -185 l 787 -185 l 787 1181 l 1065 1181 m 741 1181 l 741 -185 l 463 -185 l 463 185 l 324 185 l 324 509 l 463 509 l 463 648 l 324 648 l 324 972 l 463 972 l 463 1181 l 741 1181 z "},"ￋ":{"ha":1389,"x_min":324,"x_max":1065,"o":"m 1065 1181 l 1065 -185 l 787 -185 l 787 1181 l 1065 1181 m 741 1181 l 741 -185 l 463 -185 l 463 185 l 324 185 l 324 509 l 463 509 l 463 648 l 324 648 l 324 972 l 463 972 l 463 1181 l 741 1181 z "},"ㅗ":{"ha":1389,"x_min":23,"x_max":1366,"o":"m 509 440 l 509 880 l 880 880 l 880 440 l 1366 440 l 1366 139 l 23 139 l 23 440 l 509 440 z "},"ￌ":{"ha":1389,"x_min":23,"x_max":1366,"o":"m 509 440 l 509 880 l 880 880 l 880 440 l 1366 440 l 1366 139 l 23 139 l 23 440 l 509 440 z "},"ㅘ":{"ha":1389,"x_min":23,"x_max":1389,"o":"m 1273 1181 l 1273 741 l 1389 741 l 1389 370 l 1273 370 l 1273 -185 l 949 -185 l 949 1181 l 1273 1181 m 625 417 l 625 248 q 903 278 830 265 l 903 -46 q 586 -78 799 -63 q 231 -93 372 -93 l 23 -93 l 23 231 l 231 231 l 301 233 l 301 417 l 625 417 z "},"ￍ":{"ha":1389,"x_min":23,"x_max":1389,"o":"m 1273 1181 l 1273 741 l 1389 741 l 1389 370 l 1273 370 l 1273 -185 l 949 -185 l 949 1181 l 1273 1181 m 625 417 l 625 248 q 903 278 830 265 l 903 -46 q 586 -78 799 -63 q 231 -93 372 -93 l 23 -93 l 23 231 l 231 231 l 301 233 l 301 417 l 625 417 z "},"ㅙ":{"ha":1389,"x_min":0,"x_max":1366,"o":"m 1019 1181 l 1019 741 l 1065 741 l 1065 1181 l 1366 1181 l 1366 -185 l 1065 -185 l 1065 370 l 1019 370 l 1019 -185 l 718 -185 l 718 1181 l 1019 1181 m 486 417 l 486 253 q 687 278 619 265 l 687 -46 q 403 -79 579 -65 q 93 -93 227 -93 l 0 -93 l 0 231 l 93 231 l 208 235 l 208 417 l 486 417 z "},"ￎ":{"ha":1389,"x_min":0,"x_max":1366,"o":"m 1019 1181 l 1019 741 l 1065 741 l 1065 1181 l 1366 1181 l 1366 -185 l 1065 -185 l 1065 370 l 1019 370 l 1019 -185 l 718 -185 l 718 1181 l 1019 1181 m 486 417 l 486 253 q 687 278 619 265 l 687 -46 q 403 -79 579 -65 q 93 -93 227 -93 l 0 -93 l 0 231 l 93 231 l 208 235 l 208 417 l 486 417 z "},"ㅚ":{"ha":1389,"x_min":23,"x_max":1319,"o":"m 625 417 l 625 247 q 926 278 838 262 l 926 -46 q 609 -78 823 -63 q 255 -93 395 -93 l 23 -93 l 23 231 l 255 231 l 301 231 l 301 417 l 625 417 m 1319 1181 l 1319 -185 l 972 -185 l 972 1181 l 1319 1181 z "},"ￏ":{"ha":1389,"x_min":23,"x_max":1319,"o":"m 625 417 l 625 247 q 926 278 838 262 l 926 -46 q 609 -78 823 -63 q 255 -93 395 -93 l 23 -93 l 23 231 l 255 231 l 301 231 l 301 417 l 625 417 m 1319 1181 l 1319 -185 l 972 -185 l 972 1181 l 1319 1181 z "},"ㅛ":{"ha":1389,"x_min":23,"x_max":1366,"o":"m 278 440 l 278 880 l 625 880 l 625 440 l 764 440 l 764 880 l 1111 880 l 1111 440 l 1366 440 l 1366 139 l 23 139 l 23 440 l 278 440 z "},"ￒ":{"ha":1389,"x_min":23,"x_max":1366,"o":"m 278 440 l 278 880 l 625 880 l 625 440 l 764 440 l 764 880 l 1111 880 l 1111 440 l 1366 440 l 1366 139 l 23 139 l 23 440 l 278 440 z "},"ㅜ":{"ha":1389,"x_min":23,"x_max":1366,"o":"m 1366 880 l 1366 579 l 880 579 l 880 139 l 509 139 l 509 579 l 23 579 l 23 880 l 1366 880 z "},"ￓ":{"ha":1389,"x_min":23,"x_max":1366,"o":"m 1366 880 l 1366 579 l 880 579 l 880 139 l 509 139 l 509 579 l 23 579 l 23 880 l 1366 880 z "},"ㅝ":{"ha":1389,"x_min":23,"x_max":1343,"o":"m 995 208 l 995 1181 l 1343 1181 l 1343 -185 l 995 -185 l 995 -46 l 671 -46 l 671 208 l 995 208 m 162 532 q 605 547 367 532 q 949 579 843 562 l 949 278 q 639 248 846 261 l 602 -185 l 278 -185 l 315 233 l 162 231 l 23 231 l 23 532 l 162 532 z "},"ￔ":{"ha":1389,"x_min":23,"x_max":1343,"o":"m 995 208 l 995 1181 l 1343 1181 l 1343 -185 l 995 -185 l 995 -46 l 671 -46 l 671 208 l 995 208 m 162 532 q 605 547 367 532 q 949 579 843 562 l 949 278 q 639 248 846 261 l 602 -185 l 278 -185 l 315 233 l 162 231 l 23 231 l 23 532 l 162 532 z "},"ㅞ":{"ha":1389,"x_min":23,"x_max":1366,"o":"m 1366 1181 l 1366 -185 l 1088 -185 l 1088 1181 l 1366 1181 m 1042 1181 l 1042 -185 l 764 -185 l 764 -93 l 556 -93 l 556 116 l 764 116 l 764 1181 l 1042 1181 m 139 394 q 451 406 289 394 q 718 440 613 418 l 718 185 q 502 156 636 168 l 486 -185 l 185 -185 l 199 139 l 139 139 l 23 139 l 23 394 l 139 394 z "},"ￕ":{"ha":1389,"x_min":23,"x_max":1366,"o":"m 1366 1181 l 1366 -185 l 1088 -185 l 1088 1181 l 1366 1181 m 1042 1181 l 1042 -185 l 764 -185 l 764 -93 l 556 -93 l 556 116 l 764 116 l 764 1181 l 1042 1181 m 139 394 q 451 406 289 394 q 718 440 613 418 l 718 185 q 502 156 636 168 l 486 -185 l 185 -185 l 199 139 l 139 139 l 23 139 l 23 394 l 139 394 z "},"ㅟ":{"ha":1389,"x_min":23,"x_max":1343,"o":"m 162 532 q 605 547 367 532 q 949 579 843 562 l 949 278 q 639 248 846 261 l 602 -185 l 278 -185 l 315 233 l 162 231 l 23 231 l 23 532 l 162 532 m 1343 1181 l 1343 -185 l 995 -185 l 995 1181 l 1343 1181 z "},"ￖ":{"ha":1389,"x_min":23,"x_max":1343,"o":"m 162 532 q 605 547 367 532 q 949 579 843 562 l 949 278 q 639 248 846 261 l 602 -185 l 278 -185 l 315 233 l 162 231 l 23 231 l 23 532 l 162 532 m 1343 1181 l 1343 -185 l 995 -185 l 995 1181 l 1343 1181 z "},"ㅠ":{"ha":1389,"x_min":23,"x_max":1366,"o":"m 1366 880 l 1366 556 l 1111 556 l 1111 139 l 764 139 l 764 556 l 625 556 l 625 139 l 278 139 l 278 556 l 23 556 l 23 880 l 1366 880 z "},"ￗ":{"ha":1389,"x_min":23,"x_max":1366,"o":"m 1366 880 l 1366 556 l 1111 556 l 1111 139 l 764 139 l 764 556 l 625 556 l 625 139 l 278 139 l 278 556 l 23 556 l 23 880 l 1366 880 z "},"ㅡ":{"ha":1389,"x_min":46,"x_max":1358,"o":"m 1327 656 l 1358 332 l 46 332 l 46 656 l 1327 656 z "},"ￚ":{"ha":1389,"x_min":46,"x_max":1358,"o":"m 1327 656 l 1358 332 l 46 332 l 46 656 l 1327 656 z "},"ㅢ":{"ha":1389,"x_min":23,"x_max":1343,"o":"m 162 255 q 605 269 367 255 q 949 301 843 284 l 949 -23 q 605 -55 843 -40 q 162 -69 367 -69 l 23 -69 l 23 255 l 162 255 m 1343 1181 l 1343 -185 l 995 -185 l 995 1181 l 1343 1181 z "},"ￛ":{"ha":1389,"x_min":23,"x_max":1343,"o":"m 162 255 q 605 269 367 255 q 949 301 843 284 l 949 -23 q 605 -55 843 -40 q 162 -69 367 -69 l 23 -69 l 23 255 l 162 255 m 1343 1181 l 1343 -185 l 995 -185 l 995 1181 l 1343 1181 z "},"ㅣ":{"ha":1389,"x_min":517,"x_max":864,"o":"m 864 1181 l 864 -185 l 517 -185 l 517 1181 l 864 1181 z "},"ￜ":{"ha":1389,"x_min":517,"x_max":864,"o":"m 864 1181 l 864 -185 l 517 -185 l 517 1181 l 864 1181 z "},"ᄀ":{"ha":1389,"x_min":-46,"x_max":810,"o":"m 718 1111 q 810 1019 810 1111 q 652 370 792 630 q 208 -46 512 111 l -46 216 q 279 456 162 315 q 427 787 395 597 l 62 787 l 31 1111 l 718 1111 z "},"ᄁ":{"ha":1389,"x_min":-69,"x_max":903,"o":"m 455 1111 q 396 458 455 715 q 185 0 336 202 l -69 162 q 90 431 34 279 q 151 787 145 583 l 39 787 l 8 1111 l 455 1111 m 810 1111 q 903 1019 903 1111 q 828 399 897 659 q 602 -69 759 139 l 347 93 q 588 787 566 364 l 486 787 l 486 1111 l 810 1111 z "},"ᄂ":{"ha":1389,"x_min":46,"x_max":856,"o":"m 394 1111 l 394 361 q 833 394 613 364 l 856 46 q 139 0 543 6 q 46 93 46 0 l 46 1111 l 394 1111 z "},"ᄃ":{"ha":1389,"x_min":46,"x_max":856,"o":"m 787 1111 l 787 810 l 394 810 l 394 315 q 833 347 613 318 l 856 46 q 139 0 543 6 q 46 93 46 0 l 46 1111 l 787 1111 z "},"ᄄ":{"ha":1389,"x_min":46,"x_max":949,"o":"m 432 1111 l 432 833 l 347 833 l 347 326 l 432 332 l 432 23 q 139 0 321 3 q 46 93 46 0 l 46 1111 l 432 1111 m 903 1111 l 903 833 l 764 833 l 764 319 q 926 347 869 329 l 949 46 q 742 14 873 28 q 463 0 610 0 l 463 1111 l 903 1111 z "},"ᄅ":{"ha":1389,"x_min":31,"x_max":880,"o":"m 741 1111 q 833 1019 833 1111 l 833 440 l 370 440 l 370 338 q 864 370 620 340 l 880 46 q 139 0 594 5 q 46 93 46 0 l 46 718 l 509 718 l 509 810 l 62 810 l 31 1111 l 741 1111 z "},"ᄆ":{"ha":1389,"x_min":46,"x_max":833,"o":"m 741 1111 q 833 1019 833 1111 l 833 0 l 139 0 q 46 93 46 0 l 46 1111 l 741 1111 m 370 810 l 370 301 l 509 301 l 509 810 l 370 810 z "},"ᄇ":{"ha":1389,"x_min":46,"x_max":833,"o":"m 370 1111 l 370 833 l 509 833 l 509 1111 l 833 1111 l 833 0 l 139 0 q 46 93 46 0 l 46 1111 l 370 1111 m 509 301 l 509 532 l 370 532 l 370 301 l 509 301 z "},"ᄈ":{"ha":1389,"x_min":46,"x_max":926,"o":"m 316 1111 l 316 833 l 378 833 l 378 1111 l 594 1111 l 594 833 l 656 833 l 656 1111 l 926 1111 l 926 0 l 139 0 q 46 93 46 0 l 46 1111 l 316 1111 m 378 278 l 378 532 l 316 532 l 316 278 l 378 278 m 656 278 l 656 532 l 594 532 l 594 278 l 656 278 z "},"ᄉ":{"ha":1389,"x_min":-69,"x_max":949,"o":"m 617 1134 l 617 833 q 701 471 617 617 q 949 216 784 326 l 710 -39 q 572 92 642 12 q 441 272 502 171 q 310 88 381 170 q 170 -46 239 6 l -69 208 q 178 467 94 318 q 262 833 262 616 l 262 1134 l 617 1134 z "},"ᄊ":{"ha":1389,"x_min":-77,"x_max":1049,"o":"m -77 139 q 154 787 154 392 l 154 1111 l 424 1111 l 424 787 q 486 471 424 605 q 548 787 548 605 l 548 1111 l 818 1111 l 818 787 q 1049 147 818 400 l 818 -39 q 659 201 724 56 q 486 -39 574 32 q 315 198 398 32 q 154 -46 248 48 l -77 139 z "},"ᄋ":{"ha":1389,"x_min":-8,"x_max":856,"o":"m 424 -46 q 101 104 210 -46 q -8 556 -8 255 q 101 1007 -8 856 q 424 1157 210 1157 q 748 1007 639 1157 q 856 556 856 856 q 748 104 856 255 q 424 -46 639 -46 m 424 255 q 505 330 477 255 q 532 556 532 406 q 505 781 532 705 q 424 856 477 856 q 344 781 372 856 q 316 556 316 705 q 344 330 316 406 q 424 255 372 255 z "},"ᄌ":{"ha":1389,"x_min":-69,"x_max":949,"o":"m -69 208 q 178 434 86 306 q 270 741 270 563 l 270 779 l 39 779 l 8 1111 l 856 1111 l 856 779 l 610 779 l 610 741 q 701 440 610 565 q 949 216 792 315 l 710 -39 q 441 245 551 82 q 312 83 383 157 q 170 -46 241 8 l -69 208 z "},"ᄍ":{"ha":1389,"x_min":-62,"x_max":1034,"o":"m -62 139 q 117 418 63 275 q 170 741 170 562 l 170 787 l 31 787 l 0 1111 l 471 1111 l 471 787 l 424 787 l 424 741 q 439 582 424 651 q 485 454 454 512 q 532 583 517 514 q 548 741 548 653 l 548 787 l 502 787 l 502 1111 l 934 1111 l 934 787 l 802 787 l 802 741 q 856 423 802 563 q 1034 147 909 282 l 849 -39 q 662 190 730 65 q 509 -39 586 34 q 323 188 409 32 q 170 -46 265 65 l -62 139 z "},"ᄎ":{"ha":1389,"x_min":-54,"x_max":941,"o":"m -54 208 q 187 427 103 307 q 270 741 270 548 l 15 741 l -15 1065 l 278 1065 l 278 1204 l 602 1204 l 602 1065 l 880 1065 l 880 741 l 610 741 q 652 513 610 610 q 765 350 694 417 q 941 216 835 282 l 710 -39 q 441 245 551 82 q 312 83 383 157 q 170 -46 241 8 l -54 208 z "},"ᄏ":{"ha":1389,"x_min":-46,"x_max":810,"o":"m 0 694 q 218 703 88 694 q 446 727 347 711 q 460 810 455 764 l 62 810 l 31 1111 l 718 1111 q 810 1019 810 1111 q 643 374 793 636 q 185 -46 492 113 l -46 185 q 323 457 194 285 q 31 417 168 426 l 0 694 z "},"ᄐ":{"ha":1389,"x_min":46,"x_max":903,"o":"m 833 1111 l 833 810 l 394 810 l 394 718 l 810 718 l 810 440 l 394 440 l 394 338 q 880 370 670 340 l 903 46 q 566 16 769 29 q 139 0 363 3 q 46 93 46 0 l 46 1111 l 833 1111 z "},"ᄑ":{"ha":1389,"x_min":-31,"x_max":903,"o":"m 0 810 l -31 1111 l 880 1111 l 880 810 l 772 810 l 765 336 q 880 347 840 341 l 903 46 q 500 14 753 28 q 0 0 247 0 l 0 324 l 122 324 l 108 810 l 0 810 m 401 810 l 415 326 q 471 327 452 326 l 478 810 l 401 810 z "},"ᄒ":{"ha":1389,"x_min":-8,"x_max":872,"o":"m 602 1204 l 602 1065 l 872 1065 l 872 772 l 23 772 l -8 1065 l 278 1065 l 278 1204 l 602 1204 m 440 -77 q 140 32 248 -77 q 31 332 31 140 q 140 632 31 523 q 440 741 248 741 q 740 632 631 741 q 849 332 849 523 q 740 32 849 140 q 440 -77 631 -77 m 440 208 q 502 241 480 208 q 525 332 525 273 q 502 423 525 390 q 440 455 480 455 q 377 423 400 455 q 355 332 355 390 q 377 241 355 273 q 440 208 400 208 z "},"ᅡ":{"ha":1389,"x_min":926,"x_max":1412,"o":"m 1273 1181 l 1273 741 l 1412 741 l 1412 370 l 1273 370 l 1273 -185 l 926 -185 l 926 1181 l 1273 1181 z "},"ᅢ":{"ha":1389,"x_min":718,"x_max":1343,"o":"m 1003 1181 l 1003 741 l 1057 741 l 1057 1181 l 1343 1181 l 1343 -185 l 1057 -185 l 1057 370 l 1003 370 l 1003 -185 l 718 -185 l 718 1181 l 1003 1181 z "},"ᅣ":{"ha":1389,"x_min":926,"x_max":1412,"o":"m 1273 1181 l 1273 972 l 1412 972 l 1412 648 l 1273 648 l 1273 509 l 1412 509 l 1412 185 l 1273 185 l 1273 -185 l 926 -185 l 926 1181 l 1273 1181 z "},"ᅤ":{"ha":1389,"x_min":718,"x_max":1343,"o":"m 1003 1181 l 1003 972 l 1057 972 l 1057 1181 l 1343 1181 l 1343 -185 l 1057 -185 l 1057 185 l 1003 185 l 1003 -185 l 718 -185 l 718 1181 l 1003 1181 m 1057 509 l 1057 648 l 1003 648 l 1003 509 l 1057 509 z "},"ᅥ":{"ha":1389,"x_min":718,"x_max":1319,"o":"m 972 764 l 972 1181 l 1319 1181 l 1319 -185 l 972 -185 l 972 394 l 718 394 l 718 764 l 972 764 z "},"ᅦ":{"ha":1389,"x_min":579,"x_max":1343,"o":"m 741 741 l 741 1181 l 1019 1181 l 1019 -185 l 741 -185 l 741 370 l 579 370 l 579 741 l 741 741 m 1343 1181 l 1343 -185 l 1065 -185 l 1065 1181 l 1343 1181 z "},"ᅧ":{"ha":1389,"x_min":741,"x_max":1319,"o":"m 1319 1181 l 1319 -185 l 972 -185 l 972 185 l 741 185 l 741 509 l 972 509 l 972 648 l 741 648 l 741 972 l 972 972 l 972 1181 l 1319 1181 z "},"ᅨ":{"ha":1389,"x_min":602,"x_max":1343,"o":"m 1343 1181 l 1343 -185 l 1065 -185 l 1065 1181 l 1343 1181 m 1019 1181 l 1019 -185 l 741 -185 l 741 185 l 602 185 l 602 509 l 741 509 l 741 648 l 602 648 l 602 972 l 741 972 l 741 1181 l 1019 1181 z "},"ᅩ":{"ha":1389,"x_min":23,"x_max":1366,"o":"m 509 162 l 509 417 l 880 417 l 880 162 l 1366 162 l 1366 -139 l 23 -139 l 23 162 l 509 162 z "},"ᅪ":{"ha":1389,"x_min":23,"x_max":1389,"o":"m 1273 1181 l 1273 741 l 1389 741 l 1389 370 l 1273 370 l 1273 -185 l 949 -185 l 949 1181 l 1273 1181 m 625 417 l 625 248 q 903 278 830 265 l 903 -46 q 586 -78 799 -63 q 231 -93 372 -93 l 23 -93 l 23 231 l 231 231 l 301 233 l 301 417 l 625 417 z "},"ᅫ":{"ha":1389,"x_min":0,"x_max":1366,"o":"m 1019 1181 l 1019 741 l 1065 741 l 1065 1181 l 1366 1181 l 1366 -185 l 1065 -185 l 1065 370 l 1019 370 l 1019 -185 l 718 -185 l 718 1181 l 1019 1181 m 486 417 l 486 253 q 687 278 619 265 l 687 -46 q 403 -79 579 -65 q 93 -93 227 -93 l 0 -93 l 0 231 l 93 231 l 208 235 l 208 417 l 486 417 z "},"ᅬ":{"ha":1389,"x_min":23,"x_max":1319,"o":"m 625 417 l 625 247 q 926 278 838 262 l 926 -46 q 609 -78 823 -63 q 255 -93 395 -93 l 23 -93 l 23 231 l 255 231 l 301 231 l 301 417 l 625 417 m 1319 1181 l 1319 -185 l 972 -185 l 972 1181 l 1319 1181 z "},"ᅭ":{"ha":1389,"x_min":23,"x_max":1366,"o":"m 278 162 l 278 417 l 625 417 l 625 162 l 764 162 l 764 417 l 1111 417 l 1111 162 l 1366 162 l 1366 -139 l 23 -139 l 23 162 l 278 162 z "},"ᅮ":{"ha":1389,"x_min":23,"x_max":1366,"o":"m 1366 370 l 1366 69 l 880 69 l 880 -185 l 509 -185 l 509 69 l 23 69 l 23 370 l 1366 370 z "},"ᅯ":{"ha":1389,"x_min":23,"x_max":1343,"o":"m 995 208 l 995 1181 l 1343 1181 l 1343 -185 l 995 -185 l 995 -46 l 671 -46 l 671 208 l 995 208 m 162 532 q 605 547 367 532 q 949 579 843 562 l 949 278 q 639 248 846 261 l 602 -185 l 278 -185 l 315 233 l 162 231 l 23 231 l 23 532 l 162 532 z "},"ᅰ":{"ha":1389,"x_min":23,"x_max":1366,"o":"m 1366 1181 l 1366 -185 l 1088 -185 l 1088 1181 l 1366 1181 m 1042 1181 l 1042 -185 l 764 -185 l 764 -93 l 556 -93 l 556 116 l 764 116 l 764 1181 l 1042 1181 m 139 394 q 451 406 289 394 q 718 440 613 418 l 718 185 q 502 156 636 168 l 486 -185 l 185 -185 l 199 139 l 139 139 l 23 139 l 23 394 l 139 394 z "},"ᅱ":{"ha":1389,"x_min":23,"x_max":1343,"o":"m 162 532 q 605 547 367 532 q 949 579 843 562 l 949 278 q 639 248 846 261 l 602 -185 l 278 -185 l 315 233 l 162 231 l 23 231 l 23 532 l 162 532 m 1343 1181 l 1343 -185 l 995 -185 l 995 1181 l 1343 1181 z "},"ᅲ":{"ha":1389,"x_min":23,"x_max":1366,"o":"m 1366 370 l 1366 46 l 1111 46 l 1111 -185 l 764 -185 l 764 46 l 625 46 l 625 -185 l 278 -185 l 278 46 l 23 46 l 23 370 l 1366 370 z "},"ᅳ":{"ha":1389,"x_min":46,"x_max":1358,"o":"m 1327 185 l 1358 -139 l 46 -139 l 46 185 l 1327 185 z "},"ᅴ":{"ha":1389,"x_min":23,"x_max":1343,"o":"m 162 255 q 605 269 367 255 q 949 301 843 284 l 949 -23 q 605 -55 843 -40 q 162 -69 367 -69 l 23 -69 l 23 255 l 162 255 m 1343 1181 l 1343 -185 l 995 -185 l 995 1181 l 1343 1181 z "},"ᅵ":{"ha":1389,"x_min":972,"x_max":1319,"o":"m 1319 1181 l 1319 -185 l 972 -185 l 972 1181 l 1319 1181 z "},"ᆨ":{"ha":1389,"x_min":116,"x_max":1273,"o":"m 1273 -185 l 949 -185 l 949 23 l 116 23 l 116 301 l 1273 301 l 1273 -185 z "},"ᆩ":{"ha":1389,"x_min":116,"x_max":1273,"o":"m 679 -185 l 324 -185 l 324 69 l 116 69 l 116 370 l 679 370 l 679 -185 m 1273 -185 l 918 -185 l 918 69 l 710 69 l 710 370 l 1273 370 l 1273 -185 z "},"ᆪ":{"ha":1389,"x_min":116,"x_max":1412,"o":"m 679 99 q 833 301 833 173 l 833 370 l 1181 370 l 1181 301 q 1241 170 1181 227 q 1412 77 1301 113 l 1250 -201 q 1009 -37 1128 -151 q 888 -140 952 -96 q 764 -208 824 -185 l 679 -63 l 679 -185 l 324 -185 l 324 69 l 116 69 l 116 370 l 679 370 l 679 99 z "},"ᆫ":{"ha":1389,"x_min":116,"x_max":1281,"o":"m 440 255 l 440 93 l 1281 93 l 1281 -185 l 116 -185 l 116 255 l 440 255 z "},"ᆬ":{"ha":1389,"x_min":116,"x_max":1412,"o":"m 440 440 l 440 116 l 679 116 l 679 99 q 809 208 772 142 l 671 208 l 671 440 l 1343 440 l 1343 208 l 1208 208 q 1412 77 1262 125 l 1250 -201 q 1009 -37 1128 -151 q 888 -140 952 -96 q 764 -208 824 -185 l 679 -63 l 679 -185 l 116 -185 l 116 440 l 440 440 z "},"ᆭ":{"ha":1389,"x_min":162,"x_max":1343,"o":"m 162 -185 l 162 440 l 486 440 l 486 116 l 725 116 l 725 -185 l 162 -185 m 725 -23 q 764 73 725 31 q 870 138 802 114 q 1026 162 938 162 q 1182 138 1114 162 q 1289 73 1250 114 q 1327 -23 1327 31 q 1289 -119 1327 -77 q 1182 -184 1250 -160 q 1026 -208 1114 -208 q 870 -184 938 -208 q 764 -119 802 -160 q 725 -23 725 -77 m 972 -23 q 988 -34 972 -29 q 1026 -39 1003 -39 q 1065 -34 1049 -39 q 1080 -23 1080 -29 q 1065 -12 1080 -17 q 1026 -8 1049 -8 q 988 -12 1003 -8 q 972 -23 972 -17 m 833 417 l 833 463 l 1204 463 l 1204 417 l 1343 417 l 1343 185 l 710 185 l 710 417 l 833 417 z "},"ᆮ":{"ha":1389,"x_min":116,"x_max":1281,"o":"m 1273 340 l 1273 100 l 440 100 l 440 54 l 1281 54 l 1281 -185 l 116 -185 l 116 340 l 1273 340 z "},"ᆯ":{"ha":1389,"x_min":116,"x_max":1281,"o":"m 1273 463 l 1273 31 l 440 31 l 440 0 l 1281 0 l 1281 -208 l 116 -208 l 116 224 l 949 224 l 949 255 l 116 255 l 116 463 l 1273 463 z "},"ᆰ":{"ha":1389,"x_min":116,"x_max":1319,"o":"m 679 463 l 679 46 l 370 46 l 370 23 l 679 23 l 679 -185 l 116 -185 l 116 231 l 424 231 l 424 255 l 116 255 l 116 463 l 679 463 m 1319 -185 l 965 -185 l 965 162 l 756 162 l 756 463 l 1319 463 l 1319 -185 z "},"ᆱ":{"ha":1389,"x_min":116,"x_max":1273,"o":"m 679 463 l 679 46 l 370 46 l 370 23 l 679 23 l 679 -185 l 116 -185 l 116 231 l 424 231 l 424 255 l 116 255 l 116 463 l 679 463 m 1273 463 l 1273 -185 l 710 -185 l 710 463 l 1273 463 m 972 231 l 972 46 l 1011 46 l 1011 231 l 972 231 z "},"ᆲ":{"ha":1389,"x_min":116,"x_max":1273,"o":"m 679 463 l 679 46 l 370 46 l 370 23 l 679 23 l 679 -185 l 116 -185 l 116 231 l 424 231 l 424 255 l 116 255 l 116 463 l 679 463 m 972 463 l 972 363 l 1011 363 l 1011 463 l 1273 463 l 1273 -185 l 710 -185 l 710 463 l 972 463 m 1011 62 l 1011 139 l 972 139 l 972 62 l 1011 62 z "},"ᆳ":{"ha":1389,"x_min":116,"x_max":1435,"o":"m 679 463 l 679 46 l 370 46 l 370 23 l 679 23 l 679 -185 l 116 -185 l 116 231 l 424 231 l 424 255 l 116 255 l 116 463 l 679 463 m 679 69 q 827 164 775 105 q 880 301 880 222 l 880 463 l 1227 463 l 1227 301 q 1281 170 1227 227 q 1435 77 1335 113 l 1273 -201 q 1166 -136 1224 -177 q 1056 -42 1108 -94 q 943 -141 1002 -97 q 833 -208 884 -185 l 679 69 z "},"ᆴ":{"ha":1389,"x_min":116,"x_max":1273,"o":"m 679 463 l 679 46 l 370 46 l 370 23 l 679 23 l 679 -185 l 116 -185 l 116 231 l 424 231 l 424 255 l 116 255 l 116 463 l 679 463 m 1273 463 l 1273 255 l 965 255 l 965 231 l 1258 231 l 1258 46 l 965 46 l 965 23 l 1273 23 l 1273 -185 l 710 -185 l 710 463 l 1273 463 z "},"ᆵ":{"ha":1389,"x_min":116,"x_max":1296,"o":"m 679 463 l 679 46 l 370 46 l 370 23 l 679 23 l 679 -185 l 116 -185 l 116 231 l 424 231 l 424 255 l 116 255 l 116 463 l 679 463 m 1296 463 l 1296 255 l 1250 255 l 1250 23 l 1296 23 l 1296 -185 l 710 -185 l 710 23 l 756 23 l 756 255 l 710 255 l 710 463 l 1296 463 m 980 255 l 980 23 l 1026 23 l 1026 255 l 980 255 z "},"ᆶ":{"ha":1389,"x_min":116,"x_max":1343,"o":"m 725 -23 q 764 73 725 31 q 870 138 802 114 q 1026 162 938 162 q 1182 138 1114 162 q 1289 73 1250 114 q 1327 -23 1327 31 q 1289 -119 1327 -77 q 1182 -184 1250 -160 q 1026 -208 1114 -208 q 870 -184 938 -208 q 764 -119 802 -160 q 725 -23 725 -77 m 972 -23 q 988 -34 972 -29 q 1026 -39 1003 -39 q 1065 -34 1049 -39 q 1080 -23 1080 -29 q 1065 -12 1080 -17 q 1026 -8 1049 -8 q 988 -12 1003 -8 q 972 -23 972 -17 m 833 417 l 833 463 l 1204 463 l 1204 417 l 1343 417 l 1343 185 l 710 185 l 710 417 l 833 417 m 679 463 l 679 46 l 370 46 l 370 23 l 679 23 l 679 -185 l 116 -185 l 116 231 l 424 231 l 424 255 l 116 255 l 116 463 l 679 463 z "},"ᆷ":{"ha":1389,"x_min":154,"x_max":1265,"o":"m 1265 417 l 1265 -185 l 154 -185 l 154 417 l 1265 417 m 918 93 l 918 139 l 502 139 l 502 93 l 918 93 z "},"ᆸ":{"ha":1389,"x_min":139,"x_max":1250,"o":"m 486 417 l 486 324 l 903 324 l 903 417 l 1250 417 l 1250 -185 l 139 -185 l 139 417 l 486 417 m 903 46 l 903 116 l 486 116 l 486 46 l 903 46 z "},"ᆹ":{"ha":1389,"x_min":116,"x_max":1412,"o":"m 1250 -201 q 1009 -37 1128 -151 q 888 -140 952 -96 q 764 -208 824 -185 l 679 -63 l 679 -185 l 116 -185 l 116 417 l 378 417 l 378 324 l 417 324 l 417 417 l 679 417 l 679 99 q 833 301 833 173 l 833 417 l 1181 417 l 1181 301 q 1241 170 1181 227 q 1412 77 1301 113 l 1250 -201 m 417 46 l 417 116 l 378 116 l 378 46 l 417 46 z "},"ᆺ":{"ha":1389,"x_min":46,"x_max":1343,"o":"m 880 370 l 880 324 q 1015 160 880 215 q 1343 93 1150 106 l 1227 -208 q 941 -151 1083 -198 q 694 -25 799 -105 q 448 -151 590 -105 q 162 -208 306 -198 l 46 93 q 374 160 239 106 q 509 324 509 215 l 509 370 l 880 370 z "},"ᆻ":{"ha":1389,"x_min":23,"x_max":1366,"o":"m 23 69 q 206 169 134 105 q 278 301 278 233 l 278 370 l 579 370 l 579 301 q 610 222 579 264 q 694 144 640 181 q 779 222 748 181 q 810 301 810 264 l 810 370 l 1111 370 l 1111 301 q 1183 169 1111 233 q 1366 69 1255 105 l 1204 -208 q 1074 -135 1140 -184 q 952 -25 1008 -86 q 825 -129 894 -83 q 694 -201 756 -174 q 564 -129 633 -174 q 437 -25 495 -83 q 315 -135 381 -86 q 185 -208 248 -184 l 23 69 z "},"ᆼ":{"ha":1389,"x_min":116,"x_max":1273,"o":"m 116 93 q 266 316 116 238 q 694 394 417 394 q 1123 316 972 394 q 1273 93 1273 238 q 1123 -130 1273 -52 q 694 -208 972 -208 q 266 -130 417 -208 q 116 93 116 -52 m 463 93 q 523 58 463 69 q 694 46 583 46 q 866 58 806 46 q 926 93 926 69 q 866 127 926 116 q 694 139 806 139 q 523 127 583 139 q 463 93 463 116 z "},"ᆽ":{"ha":1389,"x_min":77,"x_max":1312,"o":"m 77 46 q 427 139 318 65 l 139 139 l 139 417 l 1250 417 l 1250 139 l 961 139 q 1312 46 1071 65 l 1204 -208 q 928 -160 1063 -198 q 694 -57 793 -123 q 461 -160 596 -123 q 185 -208 326 -198 l 77 46 z "},"ᆾ":{"ha":1389,"x_min":77,"x_max":1312,"o":"m 864 509 l 864 417 l 1250 417 l 1250 162 l 918 162 q 1080 83 975 111 q 1312 46 1185 56 l 1204 -208 q 694 -54 869 -182 q 185 -208 520 -182 l 77 46 q 309 83 204 56 q 471 162 414 111 l 139 162 l 139 417 l 525 417 l 525 509 l 864 509 z "},"ᆿ":{"ha":1389,"x_min":139,"x_max":1250,"o":"m 1250 -185 l 880 -185 l 880 -93 l 162 -93 l 162 139 l 880 139 l 880 185 l 139 185 l 139 417 l 1250 417 l 1250 -185 z "},"ᇀ":{"ha":1389,"x_min":139,"x_max":1250,"o":"m 1250 255 l 486 255 l 486 231 l 1235 231 l 1235 46 l 486 46 l 486 23 l 1250 23 l 1250 -185 l 139 -185 l 139 463 l 1250 463 l 1250 255 z "},"ᇁ":{"ha":1389,"x_min":116,"x_max":1273,"o":"m 1250 139 l 1111 139 l 1111 93 l 1273 93 l 1273 -185 l 116 -185 l 116 93 l 278 93 l 278 139 l 139 139 l 139 417 l 1250 417 l 1250 139 m 764 93 l 764 139 l 625 139 l 625 93 l 764 93 z "},"ᇂ":{"ha":1389,"x_min":139,"x_max":1250,"o":"m 162 0 q 302 154 162 99 q 694 208 441 208 q 1087 154 948 208 q 1227 0 1227 99 q 1087 -154 1227 -99 q 694 -208 948 -208 q 302 -154 441 -208 q 162 0 162 -99 m 509 0 q 694 -23 509 -23 q 880 0 880 -23 q 694 23 880 23 q 509 0 509 23 m 532 463 l 532 532 l 856 532 l 856 463 l 1250 463 l 1250 208 l 139 208 l 139 463 l 532 463 z "},"가":{"ha":1389,"x_min":-46,"x_max":1412,"o":"m 718 1111 q 810 1019 810 1111 q 652 370 792 630 q 208 -46 512 111 l -46 216 q 279 456 162 315 q 427 787 395 597 l 62 787 l 31 1111 l 718 1111 m 1273 1181 l 1273 741 l 1412 741 l 1412 370 l 1273 370 l 1273 -185 l 926 -185 l 926 1181 l 1273 1181 z "},"각":{"ha":1389,"x_min":-46,"x_max":1412,"o":"m 718 1157 q 786 1134 764 1157 q 802 1065 809 1111 q 93 394 755 511 l -46 671 q 219 745 114 701 q 380 856 324 790 l 62 856 l 31 1157 l 718 1157 m 1273 1181 l 1273 972 l 1412 972 l 1412 648 l 1273 648 l 1273 417 l 926 417 l 926 1181 l 1273 1181 m 1273 -185 l 926 -185 l 926 69 l 139 69 l 139 370 l 1273 370 l 1273 -185 z "},"갂":{"ha":1389,"x_min":0,"x_max":0,"o":""},"갃":{"ha":1389,"x_min":0,"x_max":0,"o":""},"간":{"ha":1389,"x_min":-46,"x_max":1412,"o":"m 718 1157 q 786 1134 764 1157 q 802 1065 809 1111 q 578 575 775 752 q 93 347 381 398 l -46 625 q 394 856 289 688 l 62 856 l 31 1157 l 718 1157 m 1273 1181 l 1273 926 l 1412 926 l 1412 602 l 1273 602 l 1273 185 l 926 185 l 926 1181 l 1273 1181 m 509 324 l 509 116 l 1265 116 l 1296 -185 l 255 -185 q 162 -93 162 -185 l 162 324 l 509 324 z "},"갅":{"ha":1389,"x_min":0,"x_max":0,"o":""},"갆":{"ha":1389,"x_min":0,"x_max":0,"o":""},"갇":{"ha":1389,"x_min":-46,"x_max":1412,"o":"m 718 1157 q 786 1134 764 1157 q 802 1065 809 1111 q 586 621 776 762 q 93 440 395 480 l -46 694 q 242 760 128 716 q 412 880 355 804 l 62 880 l 31 1157 l 718 1157 m 1273 1181 l 1273 995 l 1412 995 l 1412 694 l 1273 694 l 1273 463 l 926 463 l 926 1181 l 1273 1181 m 1273 417 l 1273 147 l 486 147 l 486 85 l 1265 85 l 1296 -185 l 255 -185 q 162 -93 162 -185 l 162 417 l 1273 417 z "},"갈":{"ha":1389,"x_min":-46,"x_max":1412,"o":"m 718 1157 q 786 1134 764 1157 q 802 1065 809 1111 q 569 675 770 798 q 69 532 369 552 l -46 764 q 238 807 127 775 q 407 903 349 840 l 54 903 l 39 1157 l 718 1157 m 1273 1181 l 1273 995 l 1412 995 l 1412 718 l 1273 718 l 1273 540 l 926 540 l 926 1181 l 1273 1181 m 162 509 l 1273 509 l 1273 62 l 509 62 l 509 31 l 1273 31 l 1289 -208 l 255 -208 q 162 -116 162 -208 l 162 247 l 926 247 l 926 278 l 162 278 l 162 509 z "},"갉":{"ha":1389,"x_min":-46,"x_max":1412,"o":"m 718 1157 q 786 1134 764 1157 q 802 1065 809 1111 q 569 675 770 798 q 69 532 369 552 l -46 764 q 238 807 127 775 q 407 903 349 840 l 54 903 l 39 1157 l 718 1157 m 1273 1181 l 1273 995 l 1412 995 l 1412 718 l 1273 718 l 1273 540 l 926 540 l 926 1181 l 1273 1181 m 116 509 l 687 509 l 687 54 l 370 54 l 370 20 q 802 46 608 19 l 826 -170 q 563 -198 711 -190 q 208 -208 414 -207 q 116 -116 116 -208 l 116 247 l 432 247 l 432 278 l 116 278 l 116 509 m 1273 -208 l 949 -208 l 949 231 l 733 231 l 733 509 l 1273 509 l 1273 -208 z "},"갊":{"ha":1389,"x_min":-46,"x_max":1412,"o":"m 718 1157 q 786 1134 764 1157 q 802 1065 809 1111 q 569 675 770 798 q 69 532 369 552 l -46 764 q 238 807 127 775 q 407 903 349 840 l 54 903 l 39 1157 l 718 1157 m 1273 1181 l 1273 995 l 1412 995 l 1412 718 l 1273 718 l 1273 540 l 926 540 l 926 1181 l 1273 1181 m 1273 509 l 1273 -201 l 733 -201 l 733 509 l 1273 509 m 1026 31 l 1026 278 l 980 278 l 980 31 l 1026 31 m 116 509 l 687 509 l 687 54 l 370 54 l 370 17 q 687 31 549 15 l 710 -177 q 208 -208 556 -208 q 116 -116 116 -208 l 116 247 l 432 247 l 432 278 l 116 278 l 116 509 z "},"갋":{"ha":1389,"x_min":-46,"x_max":1412,"o":"m 718 1157 q 786 1134 764 1157 q 802 1065 809 1111 q 569 675 770 798 q 69 532 369 552 l -46 764 q 238 807 127 775 q 407 903 349 840 l 54 903 l 39 1157 l 718 1157 m 1273 1181 l 1273 995 l 1412 995 l 1412 718 l 1273 718 l 1273 540 l 926 540 l 926 1181 l 1273 1181 m 116 509 l 687 509 l 687 54 l 370 54 l 370 17 q 687 31 549 15 l 710 -177 q 208 -208 556 -208 q 116 -116 116 -208 l 116 247 l 432 247 l 432 278 l 116 278 l 116 509 m 980 509 l 980 370 l 1026 370 l 1026 509 l 1273 509 l 1273 -201 l 733 -201 l 733 509 l 980 509 m 1026 8 l 1026 162 l 980 162 l 980 8 l 1026 8 z "},"갌":{"ha":1389,"x_min":0,"x_max":0,"o":""},"갍":{"ha":1389,"x_min":0,"x_max":0,"o":""},"갎":{"ha":1389,"x_min":0,"x_max":0,"o":""},"갏":{"ha":1389,"x_min":0,"x_max":0,"o":""},"감":{"ha":1389,"x_min":-46,"x_max":1412,"o":"m 718 1157 q 786 1134 764 1157 q 802 1065 809 1111 q 586 621 776 762 q 93 440 395 480 l -46 694 q 242 760 128 716 q 412 880 355 804 l 62 880 l 31 1157 l 718 1157 m 1273 1181 l 1273 995 l 1412 995 l 1412 694 l 1273 694 l 1273 463 l 926 463 l 926 1181 l 1273 1181 m 1273 417 l 1273 -185 l 255 -185 q 162 -93 162 -185 l 162 417 l 1273 417 m 949 85 l 949 147 l 486 147 l 486 85 l 949 85 z "},"갑":{"ha":1389,"x_min":-46,"x_max":1412,"o":"m 718 1157 q 786 1134 764 1157 q 802 1065 809 1111 q 586 621 776 762 q 93 440 395 480 l -46 694 q 242 760 128 716 q 412 880 355 804 l 62 880 l 31 1157 l 718 1157 m 1273 1181 l 1273 995 l 1412 995 l 1412 694 l 1273 694 l 1273 463 l 926 463 l 926 1181 l 1273 1181 m 486 417 l 486 324 l 949 324 l 949 417 l 1273 417 l 1273 -185 l 255 -185 q 162 -93 162 -185 l 162 417 l 486 417 m 949 39 l 949 100 l 486 100 l 486 39 l 949 39 z "},"값":{"ha":1389,"x_min":-46,"x_max":1427,"o":"m 718 1157 q 786 1134 764 1157 q 802 1065 809 1111 q 586 621 776 762 q 93 440 395 480 l -46 694 q 242 760 128 716 q 412 880 355 804 l 62 880 l 31 1157 l 718 1157 m 1273 1181 l 1273 995 l 1412 995 l 1412 694 l 1273 694 l 1273 463 l 926 463 l 926 1181 l 1273 1181 m 370 417 l 370 324 l 440 324 l 440 417 l 687 417 l 687 60 q 864 324 864 159 l 864 417 l 1173 417 l 1173 324 q 1242 146 1173 213 q 1427 31 1310 79 l 1204 -201 q 1105 -138 1147 -168 q 1020 -59 1063 -108 q 931 -144 975 -111 q 833 -208 886 -177 l 687 -57 l 687 -185 l 208 -185 q 116 -93 116 -185 l 116 417 l 370 417 m 440 23 l 440 116 l 370 116 l 370 23 l 440 23 z "},"갓":{"ha":1389,"x_min":-46,"x_max":1412,"o":"m 718 1157 q 786 1134 764 1157 q 802 1065 809 1111 q 578 575 775 752 q 93 347 381 398 l -46 625 q 394 856 289 688 l 62 856 l 31 1157 l 718 1157 m 1273 1181 l 1273 972 l 1412 972 l 1412 648 l 1273 648 l 1273 324 l 926 324 l 926 1181 l 1273 1181 m 872 440 l 872 394 q 1014 197 872 270 q 1366 77 1156 123 l 1181 -201 q 932 -113 1066 -176 q 696 48 798 -49 q 460 -117 596 -51 q 208 -208 324 -182 l 23 69 q 372 192 227 114 q 517 394 517 270 l 517 440 l 872 440 z "},"갔":{"ha":1389,"x_min":-46,"x_max":1435,"o":"m 718 1157 q 786 1134 764 1157 q 802 1065 809 1111 q 93 394 755 511 l -46 671 q 219 745 114 701 q 380 856 324 790 l 62 856 l 31 1157 l 718 1157 m 1273 1181 l 1273 972 l 1412 972 l 1412 648 l 1273 648 l 1273 417 l 926 417 l 926 1181 l 1273 1181 m 0 46 q 208 160 123 82 q 293 324 293 239 l 293 370 l 602 370 l 602 324 q 716 154 602 238 q 802 237 770 193 q 833 324 833 281 l 833 370 l 1142 370 l 1142 324 q 1227 160 1142 239 q 1435 46 1312 82 l 1227 -208 q 975 -15 1076 -144 q 848 -131 917 -80 q 718 -208 779 -182 q 588 -132 656 -182 q 461 -17 520 -82 q 208 -208 360 -144 l 0 46 z "},"강":{"ha":1389,"x_min":-46,"x_max":1412,"o":"m 718 1157 q 786 1134 764 1157 q 802 1065 809 1111 q 93 394 755 511 l -46 671 q 219 745 114 701 q 380 856 324 790 l 62 856 l 31 1157 l 718 1157 m 1273 1181 l 1273 972 l 1412 972 l 1412 648 l 1273 648 l 1273 417 l 926 417 l 926 1181 l 1273 1181 m 718 -208 q 123 100 123 -208 q 718 409 123 409 q 1312 100 1312 409 q 718 -208 1312 -208 m 718 39 q 949 100 949 39 q 718 162 949 162 q 486 100 486 162 q 718 39 486 39 z "},"갖":{"ha":1389,"x_min":-46,"x_max":1412,"o":"m 718 1157 q 786 1134 764 1157 q 802 1065 809 1111 q 586 621 776 762 q 93 440 395 480 l -46 694 q 242 760 128 716 q 412 880 355 804 l 62 880 l 31 1157 l 718 1157 m 1273 1181 l 1273 995 l 1412 995 l 1412 694 l 1273 694 l 1273 463 l 926 463 l 926 1181 l 1273 1181 m 46 46 q 286 91 168 60 q 471 170 404 122 l 162 170 l 162 417 l 1273 417 l 1273 170 l 966 170 q 1148 96 1032 125 q 1389 54 1264 68 l 1204 -201 q 1157 -193 1177 -194 q 911 -127 1015 -162 q 719 -29 807 -93 q 522 -132 630 -96 q 270 -201 415 -168 q 231 -208 252 -205 l 46 46 z "},"갗":{"ha":1389,"x_min":-46,"x_max":1412,"o":"m 718 1157 q 786 1134 764 1157 q 802 1065 809 1111 q 586 621 776 762 q 93 440 395 480 l -46 694 q 242 760 128 716 q 412 880 355 804 l 62 880 l 31 1157 l 718 1157 m 1273 1181 l 1273 995 l 1412 995 l 1412 694 l 1273 694 l 1273 463 l 926 463 l 926 1181 l 1273 1181 m 895 463 l 895 394 l 1273 394 l 1273 147 l 941 147 q 1117 73 1000 99 q 1389 31 1233 48 l 1204 -201 q 943 -147 1066 -181 q 719 -45 819 -113 q 231 -208 552 -162 l 46 23 q 495 147 395 60 l 162 147 l 162 394 l 540 394 l 540 463 l 895 463 z "},"갘":{"ha":1389,"x_min":0,"x_max":0,"o":""},"같":{"ha":1389,"x_min":-46,"x_max":1412,"o":"m 718 1157 q 786 1134 764 1157 q 802 1065 809 1111 q 569 675 770 798 q 69 532 369 552 l -46 764 q 238 807 127 775 q 407 903 349 840 l 54 903 l 39 1157 l 718 1157 m 1273 1181 l 1273 995 l 1412 995 l 1412 718 l 1273 718 l 1273 540 l 926 540 l 926 1181 l 1273 1181 m 1281 509 l 1281 278 l 463 278 l 463 247 l 1273 247 l 1273 54 l 463 54 l 463 23 l 1289 23 l 1304 -208 l 255 -208 q 162 -116 162 -208 l 162 509 l 1281 509 z "},"갚":{"ha":1389,"x_min":-46,"x_max":1412,"o":"m 718 1157 q 786 1134 764 1157 q 802 1065 809 1111 q 586 621 776 762 q 93 440 395 480 l -46 694 q 242 760 128 716 q 412 880 355 804 l 62 880 l 31 1157 l 718 1157 m 1273 1181 l 1273 995 l 1412 995 l 1412 694 l 1273 694 l 1273 463 l 926 463 l 926 1181 l 1273 1181 m 293 62 l 285 162 l 162 162 l 162 417 l 1273 417 l 1273 162 l 1150 162 l 1142 62 l 1289 62 l 1304 -185 l 139 -185 l 139 62 l 293 62 m 818 62 l 826 162 l 610 162 l 617 62 l 818 62 z "},"갛":{"ha":1389,"x_min":-46,"x_max":1412,"o":"m 718 1157 q 786 1134 764 1157 q 802 1065 809 1111 q 569 675 770 798 q 69 532 369 552 l -46 764 q 238 807 127 775 q 407 903 349 840 l 54 903 l 39 1157 l 718 1157 m 1273 1181 l 1273 995 l 1412 995 l 1412 718 l 1273 718 l 1273 540 l 926 540 l 926 1181 l 1273 1181 m 718 -208 q 162 23 162 -208 q 718 255 162 255 q 1273 23 1273 255 q 718 -208 1273 -208 m 718 -15 q 881 -8 836 -15 q 926 23 926 0 q 881 54 926 46 q 718 62 836 62 q 554 54 599 62 q 509 23 509 46 q 554 -8 509 0 q 718 -15 599 -15 m 880 556 l 880 494 l 1296 494 l 1296 278 l 139 278 l 139 494 l 556 494 l 556 556 l 880 556 z "},"개":{"ha":1389,"x_min":-69,"x_max":1343,"o":"m 556 1111 q 648 1019 648 1111 q 590 539 640 731 q 441 210 540 346 q 177 -46 343 74 l -69 162 q 205 426 106 272 q 326 810 304 580 l 39 810 l 8 1111 l 556 1111 m 1003 1181 l 1003 741 l 1057 741 l 1057 1181 l 1343 1181 l 1343 -185 l 1057 -185 l 1057 370 l 1003 370 l 1003 -185 l 718 -185 l 718 1181 l 1003 1181 z "},"객":{"ha":1389,"x_min":-46,"x_max":1343,"o":"m 556 1157 q 648 1065 648 1157 q 560 723 633 856 q 376 515 488 590 q 108 394 264 441 l -46 625 q 180 721 88 657 q 316 880 272 785 l 39 880 l 8 1157 l 556 1157 m 1003 1181 l 1003 972 l 1057 972 l 1057 1181 l 1343 1181 l 1343 417 l 1057 417 l 1057 648 l 1003 648 l 1003 417 l 718 417 l 718 1181 l 1003 1181 m 1343 -185 l 995 -185 l 995 69 l 139 69 l 139 370 l 1343 370 l 1343 -185 z "},"갞":{"ha":1389,"x_min":0,"x_max":0,"o":""},"갟":{"ha":1389,"x_min":0,"x_max":0,"o":""},"갠":{"ha":1389,"x_min":-46,"x_max":1366,"o":"m 556 1157 q 648 1065 648 1157 q 483 587 627 756 q 108 347 340 418 l -46 579 q 181 691 86 613 q 319 880 275 769 l 39 880 l 8 1157 l 556 1157 m 1003 1181 l 1003 926 l 1057 926 l 1057 1181 l 1343 1181 l 1343 231 l 1057 231 l 1057 602 l 1003 602 l 1003 231 l 718 231 l 718 1181 l 1003 1181 m 509 324 l 509 116 l 1335 116 l 1366 -185 l 255 -185 q 162 -93 162 -185 l 162 324 l 509 324 z "},"갡":{"ha":1389,"x_min":0,"x_max":0,"o":""},"갢":{"ha":1389,"x_min":0,"x_max":0,"o":""},"갣":{"ha":1389,"x_min":-46,"x_max":1366,"o":"m 556 1157 q 648 1065 648 1157 q 560 732 633 860 q 376 539 488 605 q 108 440 264 474 l -46 671 q 310 880 218 715 l 39 880 l 8 1157 l 556 1157 m 1003 1181 l 1003 995 l 1057 995 l 1057 1181 l 1343 1181 l 1343 463 l 1057 463 l 1057 694 l 1003 694 l 1003 463 l 718 463 l 718 1181 l 1003 1181 m 1343 417 l 1343 147 l 509 147 l 509 85 l 1335 85 l 1366 -185 l 255 -185 q 162 -93 162 -185 l 162 417 l 1343 417 z "},"갤":{"ha":1389,"x_min":-46,"x_max":1358,"o":"m 648 1157 q 495 694 648 836 q 85 532 341 552 l -46 756 q 318 903 225 779 l 23 903 l 23 1157 l 648 1157 m 1003 1181 l 1003 995 l 1057 995 l 1057 1181 l 1343 1181 l 1343 540 l 1057 540 l 1057 718 l 1003 718 l 1003 540 l 718 540 l 718 1181 l 1003 1181 m 1343 509 l 1343 46 l 509 46 l 509 15 l 1343 15 l 1358 -208 l 255 -208 q 162 -116 162 -208 l 162 255 l 995 255 l 995 285 l 162 285 l 162 509 l 1343 509 z "},"갥":{"ha":1389,"x_min":0,"x_max":0,"o":""},"갦":{"ha":1389,"x_min":0,"x_max":0,"o":""},"갧":{"ha":1389,"x_min":0,"x_max":0,"o":""},"갨":{"ha":1389,"x_min":0,"x_max":0,"o":""},"갩":{"ha":1389,"x_min":0,"x_max":0,"o":""},"갪":{"ha":1389,"x_min":0,"x_max":0,"o":""},"갫":{"ha":1389,"x_min":0,"x_max":0,"o":""},"갬":{"ha":1389,"x_min":-46,"x_max":1343,"o":"m 556 1157 q 648 1065 648 1157 q 560 732 633 860 q 376 539 488 605 q 108 440 264 474 l -46 671 q 310 880 218 715 l 39 880 l 8 1157 l 556 1157 m 1003 1181 l 1003 995 l 1057 995 l 1057 1181 l 1343 1181 l 1343 463 l 1057 463 l 1057 694 l 1003 694 l 1003 463 l 718 463 l 718 1181 l 1003 1181 m 1343 417 l 1343 -185 l 255 -185 q 162 -93 162 -185 l 162 417 l 1343 417 m 995 85 l 995 147 l 509 147 l 509 85 l 995 85 z "},"갭":{"ha":1389,"x_min":-46,"x_max":1343,"o":"m 556 1157 q 648 1065 648 1157 q 560 732 633 860 q 376 539 488 605 q 108 440 264 474 l -46 671 q 310 880 218 715 l 39 880 l 8 1157 l 556 1157 m 1003 1181 l 1003 995 l 1057 995 l 1057 1181 l 1343 1181 l 1343 463 l 1057 463 l 1057 694 l 1003 694 l 1003 463 l 718 463 l 718 1181 l 1003 1181 m 486 417 l 486 324 l 1019 324 l 1019 417 l 1343 417 l 1343 -185 l 255 -185 q 162 -93 162 -185 l 162 417 l 486 417 m 1019 39 l 1019 100 l 486 100 l 486 39 l 1019 39 z "},"갮":{"ha":1389,"x_min":0,"x_max":0,"o":""},"갯":{"ha":1389,"x_min":-46,"x_max":1435,"o":"m 556 1157 q 648 1065 648 1157 q 483 587 627 756 q 108 347 340 418 l -46 579 q 181 691 86 613 q 319 880 275 769 l 39 880 l 8 1157 l 556 1157 m 1003 1181 l 1003 972 l 1057 972 l 1057 1181 l 1343 1181 l 1343 347 l 1057 347 l 1057 648 l 1003 648 l 1003 417 l 718 417 l 718 1181 l 1003 1181 m 941 370 l 941 347 q 1085 170 941 239 q 1435 54 1228 100 l 1250 -201 q 994 -120 1123 -173 q 765 17 864 -68 q 535 -125 665 -71 q 278 -208 406 -179 l 93 46 q 441 165 295 91 q 586 347 586 239 l 586 370 l 941 370 z "},"갰":{"ha":1389,"x_min":-46,"x_max":1528,"o":"m 556 1157 q 648 1065 648 1157 q 560 723 633 856 q 376 515 488 590 q 108 394 264 441 l -46 625 q 180 721 88 657 q 316 880 272 785 l 39 880 l 8 1157 l 556 1157 m 1003 1181 l 1003 972 l 1057 972 l 1057 1181 l 1343 1181 l 1343 417 l 1057 417 l 1057 648 l 1003 648 l 1003 417 l 718 417 l 718 1181 l 1003 1181 m 46 23 q 269 137 182 62 q 355 324 355 211 l 355 370 l 664 370 l 664 324 q 785 122 664 205 q 910 324 910 207 l 910 370 l 1219 370 l 1219 324 q 1306 137 1219 211 q 1528 23 1392 62 l 1319 -208 q 1179 -127 1248 -177 q 1054 -9 1110 -77 q 923 -129 994 -77 q 787 -208 852 -181 q 653 -130 722 -181 q 522 -11 583 -79 q 255 -208 415 -139 l 46 23 z "},"갱":{"ha":1389,"x_min":-46,"x_max":1366,"o":"m 556 1157 q 648 1065 648 1157 q 560 723 633 856 q 376 515 488 590 q 108 394 264 441 l -46 625 q 180 721 88 657 q 316 880 272 785 l 39 880 l 8 1157 l 556 1157 m 1003 1181 l 1003 972 l 1057 972 l 1057 1181 l 1343 1181 l 1343 417 l 1057 417 l 1057 648 l 1003 648 l 1003 463 l 718 463 l 718 1181 l 1003 1181 m 748 -208 q 131 100 131 -208 q 748 409 131 409 q 1366 100 1366 409 q 748 -208 1366 -208 m 748 39 q 980 100 980 39 q 748 162 980 162 q 517 100 517 162 q 748 39 517 39 z "},"갲":{"ha":1389,"x_min":0,"x_max":0,"o":""},"갳":{"ha":1389,"x_min":0,"x_max":0,"o":""},"갴":{"ha":1389,"x_min":0,"x_max":0,"o":""},"갵":{"ha":1389,"x_min":0,"x_max":0,"o":""},"갶":{"ha":1389,"x_min":0,"x_max":0,"o":""},"갷":{"ha":1389,"x_min":0,"x_max":0,"o":""},"갸":{"ha":1389,"x_min":-46,"x_max":1412,"o":"m 718 1111 q 810 1019 810 1111 q 652 370 792 630 q 208 -46 512 111 l -46 216 q 279 456 162 315 q 427 787 395 597 l 62 787 l 31 1111 l 718 1111 m 1273 1181 l 1273 972 l 1412 972 l 1412 648 l 1273 648 l 1273 509 l 1412 509 l 1412 185 l 1273 185 l 1273 -185 l 926 -185 l 926 1181 l 1273 1181 z "},"갹":{"ha":1389,"x_min":-46,"x_max":1412,"o":"m 718 1157 q 786 1134 764 1157 q 802 1065 809 1111 q 93 394 755 511 l -46 671 q 219 745 114 701 q 380 856 324 790 l 62 856 l 31 1157 l 718 1157 m 1273 1181 l 1273 1080 l 1412 1080 l 1412 856 l 1273 856 l 1273 772 l 1412 772 l 1412 532 l 1273 532 l 1273 417 l 926 417 l 926 1181 l 1273 1181 m 1273 -185 l 926 -185 l 926 69 l 139 69 l 139 370 l 1273 370 l 1273 -185 z "},"갺":{"ha":1389,"x_min":0,"x_max":0,"o":""},"갻":{"ha":1389,"x_min":0,"x_max":0,"o":""},"갼":{"ha":1389,"x_min":-46,"x_max":1412,"o":"m 718 1157 q 786 1134 764 1157 q 802 1065 809 1111 q 578 575 775 752 q 93 347 381 398 l -46 625 q 394 856 289 688 l 62 856 l 31 1157 l 718 1157 m 1273 1181 l 1273 1065 l 1412 1065 l 1412 810 l 1273 810 l 1273 718 l 1412 718 l 1412 463 l 1273 463 l 1273 185 l 926 185 l 926 1181 l 1273 1181 m 509 324 l 509 116 l 1265 116 l 1296 -185 l 255 -185 q 162 -93 162 -185 l 162 324 l 509 324 z "},"갽":{"ha":1389,"x_min":0,"x_max":0,"o":""},"갾":{"ha":1389,"x_min":0,"x_max":0,"o":""},"갿":{"ha":1389,"x_min":0,"x_max":0,"o":""},"걀":{"ha":1389,"x_min":-46,"x_max":1412,"o":"m 718 1157 q 786 1134 764 1157 q 802 1065 809 1111 q 569 675 770 798 q 69 532 369 552 l -46 764 q 238 807 127 775 q 407 903 349 840 l 54 903 l 39 1157 l 718 1157 m 1273 1181 l 1273 1088 l 1412 1088 l 1412 880 l 1273 880 l 1273 833 l 1412 833 l 1412 625 l 1273 625 l 1273 540 l 926 540 l 926 1181 l 1273 1181 m 162 509 l 1273 509 l 1273 62 l 509 62 l 509 31 l 1273 31 l 1289 -208 l 255 -208 q 162 -116 162 -208 l 162 247 l 926 247 l 926 278 l 162 278 l 162 509 z "},"걁":{"ha":1389,"x_min":0,"x_max":0,"o":""},"걂":{"ha":1389,"x_min":0,"x_max":0,"o":""},"걃":{"ha":1389,"x_min":0,"x_max":0,"o":""},"걄":{"ha":1389,"x_min":0,"x_max":0,"o":""},"걅":{"ha":1389,"x_min":0,"x_max":0,"o":""},"걆":{"ha":1389,"x_min":0,"x_max":0,"o":""},"걇":{"ha":1389,"x_min":0,"x_max":0,"o":""},"걈":{"ha":1389,"x_min":0,"x_max":0,"o":""},"걉":{"ha":1389,"x_min":0,"x_max":0,"o":""},"걊":{"ha":1389,"x_min":0,"x_max":0,"o":""},"걋":{"ha":1389,"x_min":-46,"x_max":1412,"o":"m 718 1157 q 786 1134 764 1157 q 802 1065 809 1111 q 578 575 775 752 q 93 347 381 398 l -46 625 q 394 856 289 688 l 62 856 l 31 1157 l 718 1157 m 1273 1181 l 1273 1080 l 1412 1080 l 1412 856 l 1273 856 l 1273 772 l 1412 772 l 1412 532 l 1273 532 l 1273 324 l 926 324 l 926 1181 l 1273 1181 m 872 440 l 872 394 q 1014 197 872 270 q 1366 77 1156 123 l 1181 -201 q 932 -113 1066 -176 q 696 48 798 -49 q 460 -117 596 -51 q 208 -208 324 -182 l 23 69 q 372 192 227 114 q 517 394 517 270 l 517 440 l 872 440 z "},"걌":{"ha":1389,"x_min":0,"x_max":0,"o":""},"걍":{"ha":1389,"x_min":-46,"x_max":1412,"o":"m 718 1157 q 786 1134 764 1157 q 802 1065 809 1111 q 93 394 755 511 l -46 671 q 219 745 114 701 q 380 856 324 790 l 62 856 l 31 1157 l 718 1157 m 1273 1181 l 1273 1080 l 1412 1080 l 1412 856 l 1273 856 l 1273 772 l 1412 772 l 1412 532 l 1273 532 l 1273 417 l 926 417 l 926 1181 l 1273 1181 m 718 -208 q 123 100 123 -208 q 718 409 123 409 q 1312 100 1312 409 q 718 -208 1312 -208 m 718 39 q 949 100 949 39 q 718 162 949 162 q 486 100 486 162 q 718 39 486 39 z "},"걎":{"ha":1389,"x_min":0,"x_max":0,"o":""},"걏":{"ha":1389,"x_min":0,"x_max":0,"o":""},"걐":{"ha":1389,"x_min":0,"x_max":0,"o":""},"걑":{"ha":1389,"x_min":0,"x_max":0,"o":""},"걒":{"ha":1389,"x_min":0,"x_max":0,"o":""},"걓":{"ha":1389,"x_min":0,"x_max":0,"o":""},"걔":{"ha":1389,"x_min":-69,"x_max":1343,"o":"m 556 1111 q 648 1019 648 1111 q 590 539 640 731 q 441 210 540 346 q 177 -46 343 74 l -69 162 q 205 426 106 272 q 326 810 304 580 l 39 810 l 8 1111 l 556 1111 m 1003 1181 l 1003 972 l 1057 972 l 1057 1181 l 1343 1181 l 1343 -185 l 1057 -185 l 1057 185 l 1003 185 l 1003 -185 l 718 -185 l 718 1181 l 1003 1181 m 1057 509 l 1057 648 l 1003 648 l 1003 509 l 1057 509 z "},"걕":{"ha":1389,"x_min":0,"x_max":0,"o":""},"걖":{"ha":1389,"x_min":0,"x_max":0,"o":""},"걗":{"ha":1389,"x_min":0,"x_max":0,"o":""},"걘":{"ha":1389,"x_min":-46,"x_max":1366,"o":"m 556 1157 q 648 1065 648 1157 q 483 587 627 756 q 108 347 340 418 l -46 579 q 181 691 86 613 q 319 880 275 769 l 39 880 l 8 1157 l 556 1157 m 1003 1181 l 1003 1065 l 1057 1065 l 1057 1181 l 1343 1181 l 1343 231 l 1057 231 l 1057 463 l 1003 463 l 1003 231 l 718 231 l 718 1181 l 1003 1181 m 509 324 l 509 116 l 1335 116 l 1366 -185 l 255 -185 q 162 -93 162 -185 l 162 324 l 509 324 m 1057 718 l 1057 810 l 1003 810 l 1003 718 l 1057 718 z "},"걙":{"ha":1389,"x_min":0,"x_max":0,"o":""},"걚":{"ha":1389,"x_min":0,"x_max":0,"o":""},"걛":{"ha":1389,"x_min":0,"x_max":0,"o":""},"걜":{"ha":1389,"x_min":-46,"x_max":1358,"o":"m 648 1157 q 495 694 648 836 q 85 532 341 552 l -46 756 q 318 903 225 779 l 23 903 l 23 1157 l 648 1157 m 1003 1181 l 1003 1088 l 1057 1088 l 1057 1181 l 1343 1181 l 1343 540 l 1057 540 l 1057 625 l 1003 625 l 1003 540 l 718 540 l 718 1181 l 1003 1181 m 1343 509 l 1343 46 l 509 46 l 509 15 l 1343 15 l 1358 -208 l 255 -208 q 162 -116 162 -208 l 162 255 l 995 255 l 995 285 l 162 285 l 162 509 l 1343 509 m 1057 833 l 1057 880 l 1003 880 l 1003 833 l 1057 833 z "},"걝":{"ha":1389,"x_min":0,"x_max":0,"o":""},"걞":{"ha":1389,"x_min":0,"x_max":0,"o":""},"걟":{"ha":1389,"x_min":0,"x_max":0,"o":""},"걠":{"ha":1389,"x_min":0,"x_max":0,"o":""},"걡":{"ha":1389,"x_min":0,"x_max":0,"o":""},"걢":{"ha":1389,"x_min":0,"x_max":0,"o":""},"걣":{"ha":1389,"x_min":0,"x_max":0,"o":""},"걤":{"ha":1389,"x_min":0,"x_max":0,"o":""},"걥":{"ha":1389,"x_min":-46,"x_max":1343,"o":"m 556 1157 q 648 1065 648 1157 q 560 732 633 860 q 376 539 488 605 q 108 440 264 474 l -46 671 q 310 880 218 715 l 39 880 l 8 1157 l 556 1157 m 1003 1181 l 1003 1088 l 1057 1088 l 1057 1181 l 1343 1181 l 1343 463 l 1057 463 l 1057 556 l 1003 556 l 1003 463 l 718 463 l 718 1181 l 1003 1181 m 486 417 l 486 324 l 1019 324 l 1019 417 l 1343 417 l 1343 -185 l 255 -185 q 162 -93 162 -185 l 162 417 l 486 417 m 1019 39 l 1019 100 l 486 100 l 486 39 l 1019 39 m 1057 787 l 1057 856 l 1003 856 l 1003 787 l 1057 787 z "},"걦":{"ha":1389,"x_min":0,"x_max":0,"o":""},"걧":{"ha":1389,"x_min":0,"x_max":0,"o":""},"걨":{"ha":1389,"x_min":0,"x_max":0,"o":""},"걩":{"ha":1389,"x_min":0,"x_max":0,"o":""},"걪":{"ha":1389,"x_min":0,"x_max":0,"o":""},"걫":{"ha":1389,"x_min":0,"x_max":0,"o":""},"걬":{"ha":1389,"x_min":0,"x_max":0,"o":""},"걭":{"ha":1389,"x_min":0,"x_max":0,"o":""},"걮":{"ha":1389,"x_min":0,"x_max":0,"o":""},"걯":{"ha":1389,"x_min":0,"x_max":0,"o":""},"거":{"ha":1389,"x_min":-46,"x_max":1319,"o":"m 718 1111 q 810 1019 810 1111 q 779 741 804 873 l 972 741 l 972 1181 l 1319 1181 l 1319 -185 l 972 -185 l 972 370 l 718 370 l 718 514 q 524 191 648 329 q 208 -46 400 52 l -46 216 q 279 456 162 315 q 427 787 395 597 l 62 787 l 31 1111 l 718 1111 z "},"걱":{"ha":1389,"x_min":-46,"x_max":1319,"o":"m 718 1157 q 802 1080 804 1157 q 790 972 804 1045 l 972 972 l 972 1181 l 1319 1181 l 1319 417 l 972 417 l 972 648 l 718 648 l 718 772 q 93 394 556 477 l -46 671 q 219 745 114 701 q 380 856 324 790 l 62 856 l 31 1157 l 718 1157 m 1319 -185 l 972 -185 l 972 69 l 139 69 l 139 370 l 1319 370 l 1319 -185 z "},"걲":{"ha":1389,"x_min":0,"x_max":0,"o":""},"걳":{"ha":1389,"x_min":0,"x_max":0,"o":""},"건":{"ha":1389,"x_min":-46,"x_max":1343,"o":"m 718 1157 q 786 1134 764 1157 q 802 1065 809 1111 q 779 926 796 992 l 972 926 l 972 1181 l 1319 1181 l 1319 185 l 972 185 l 972 602 l 694 602 l 694 719 q 444 473 600 565 q 93 347 287 381 l -46 625 q 394 856 289 688 l 62 856 l 31 1157 l 718 1157 m 509 324 l 509 116 l 1312 116 l 1343 -185 l 255 -185 q 162 -93 162 -185 l 162 324 l 509 324 z "},"걵":{"ha":1389,"x_min":0,"x_max":0,"o":""},"걶":{"ha":1389,"x_min":0,"x_max":0,"o":""},"걷":{"ha":1389,"x_min":-46,"x_max":1343,"o":"m 718 1157 q 802 1080 804 1157 q 793 995 804 1048 l 972 995 l 972 1181 l 1319 1181 l 1319 463 l 972 463 l 972 694 l 718 694 l 718 776 q 469 546 630 623 q 93 440 309 469 l -46 694 q 242 760 128 716 q 412 880 355 804 l 62 880 l 31 1157 l 718 1157 m 1319 417 l 1319 147 l 509 147 l 509 85 l 1312 85 l 1343 -185 l 255 -185 q 162 -93 162 -185 l 162 417 l 1319 417 z "},"걸":{"ha":1389,"x_min":-46,"x_max":1335,"o":"m 718 1157 q 802 1080 804 1157 q 799 1039 804 1062 q 790 995 795 1015 l 972 995 l 972 1181 l 1319 1181 l 1319 540 l 972 540 l 972 718 l 741 718 l 741 861 q 69 532 583 566 l -46 764 q 238 807 127 775 q 407 903 349 840 l 54 903 l 39 1157 l 718 1157 m 1319 509 l 1319 46 l 509 46 l 509 15 l 1319 15 l 1335 -208 l 255 -208 q 162 -116 162 -208 l 162 255 l 972 255 l 972 285 l 162 285 l 162 509 l 1319 509 z "},"걹":{"ha":1389,"x_min":0,"x_max":0,"o":""},"걺":{"ha":1389,"x_min":-46,"x_max":1319,"o":"m 718 1157 q 802 1080 804 1157 q 799 1039 804 1062 q 790 995 795 1015 l 972 995 l 972 1181 l 1319 1181 l 1319 540 l 972 540 l 972 718 l 741 718 l 741 861 q 69 532 583 566 l -46 764 q 238 807 127 775 q 407 903 349 840 l 54 903 l 39 1157 l 718 1157 m 1319 509 l 1319 -201 l 779 -201 l 779 509 l 1319 509 m 1073 31 l 1073 278 l 1026 278 l 1026 31 l 1073 31 m 162 509 l 733 509 l 733 54 l 417 54 l 417 17 q 733 31 596 15 l 756 -177 q 255 -208 602 -208 q 162 -116 162 -208 l 162 247 l 478 247 l 478 278 l 162 278 l 162 509 z "},"걻":{"ha":1389,"x_min":0,"x_max":0,"o":""},"걼":{"ha":1389,"x_min":0,"x_max":0,"o":""},"걽":{"ha":1389,"x_min":0,"x_max":0,"o":""},"걾":{"ha":1389,"x_min":0,"x_max":0,"o":""},"걿":{"ha":1389,"x_min":0,"x_max":0,"o":""},"검":{"ha":1389,"x_min":-46,"x_max":1319,"o":"m 718 1157 q 802 1080 804 1157 q 793 995 804 1048 l 972 995 l 972 1181 l 1319 1181 l 1319 463 l 972 463 l 972 694 l 718 694 l 718 776 q 469 546 630 623 q 93 440 309 469 l -46 694 q 242 760 128 716 q 412 880 355 804 l 62 880 l 31 1157 l 718 1157 m 1319 417 l 1319 -185 l 255 -185 q 162 -93 162 -185 l 162 417 l 1319 417 m 995 85 l 995 147 l 486 147 l 486 85 l 995 85 z "},"겁":{"ha":1389,"x_min":-46,"x_max":1319,"o":"m 718 1157 q 802 1080 804 1157 q 793 995 804 1048 l 972 995 l 972 1181 l 1319 1181 l 1319 463 l 972 463 l 972 694 l 718 694 l 718 776 q 469 546 630 623 q 93 440 309 469 l -46 694 q 242 760 128 716 q 412 880 355 804 l 62 880 l 31 1157 l 718 1157 m 486 417 l 486 324 l 995 324 l 995 417 l 1319 417 l 1319 -185 l 255 -185 q 162 -93 162 -185 l 162 417 l 486 417 m 995 39 l 995 100 l 486 100 l 486 39 l 995 39 z "},"겂":{"ha":1389,"x_min":-46,"x_max":1474,"o":"m 718 1157 q 802 1080 804 1157 q 793 995 804 1048 l 972 995 l 972 1181 l 1319 1181 l 1319 463 l 972 463 l 972 694 l 718 694 l 718 776 q 469 546 630 623 q 93 440 309 469 l -46 694 q 242 760 128 716 q 412 880 355 804 l 62 880 l 31 1157 l 718 1157 m 417 417 l 417 324 l 486 324 l 486 417 l 733 417 l 733 60 q 910 324 910 159 l 910 417 l 1219 417 l 1219 324 q 1288 146 1219 213 q 1474 31 1356 79 l 1250 -201 q 1151 -138 1193 -168 q 1066 -59 1110 -108 q 977 -144 1022 -111 q 880 -208 932 -177 l 733 -57 l 733 -185 l 255 -185 q 162 -93 162 -185 l 162 417 l 417 417 m 486 23 l 486 116 l 417 116 l 417 23 l 486 23 z "},"것":{"ha":1389,"x_min":-46,"x_max":1412,"o":"m 718 1157 q 786 1134 764 1157 q 802 1065 809 1111 q 779 926 796 992 l 972 926 l 972 1181 l 1319 1181 l 1319 324 l 972 324 l 972 602 l 694 602 l 694 719 q 444 473 600 565 q 93 347 287 381 l -46 625 q 394 856 289 688 l 62 856 l 31 1157 l 718 1157 m 918 440 l 918 394 q 1060 197 918 270 q 1412 77 1202 123 l 1227 -201 q 978 -113 1113 -176 q 742 48 844 -49 q 506 -117 642 -51 q 255 -208 370 -182 l 69 69 q 418 192 273 114 q 563 394 563 270 l 563 440 l 918 440 z "},"겄":{"ha":1389,"x_min":-46,"x_max":1481,"o":"m 718 1157 q 802 1080 804 1157 q 790 972 804 1045 l 972 972 l 972 1181 l 1319 1181 l 1319 417 l 972 417 l 972 648 l 718 648 l 718 772 q 93 394 556 477 l -46 671 q 219 745 114 701 q 380 856 324 790 l 62 856 l 31 1157 l 718 1157 m 46 46 q 255 160 170 82 q 340 324 340 239 l 340 370 l 648 370 l 648 324 q 762 154 648 238 q 848 237 816 193 q 880 324 880 281 l 880 370 l 1188 370 l 1188 324 q 1273 160 1188 239 q 1481 46 1358 82 l 1273 -208 q 1022 -15 1122 -144 q 894 -131 963 -80 q 764 -208 826 -182 q 634 -132 702 -182 q 508 -17 566 -82 q 255 -208 406 -144 l 46 46 z "},"겅":{"ha":1389,"x_min":-46,"x_max":1350,"o":"m 718 1157 q 802 1080 804 1157 q 790 972 804 1045 l 972 972 l 972 1181 l 1319 1181 l 1319 417 l 972 417 l 972 648 l 718 648 l 718 772 q 93 394 556 477 l -46 671 q 219 745 114 701 q 380 856 324 790 l 62 856 l 31 1157 l 718 1157 m 741 -208 q 282 -132 434 -208 q 131 100 131 -56 q 282 333 131 256 q 741 409 434 409 q 1199 333 1048 409 q 1350 100 1350 256 q 1199 -132 1350 -56 q 741 -208 1048 -208 m 741 39 q 938 52 881 39 q 995 100 995 66 q 938 148 995 134 q 741 162 881 162 q 543 148 600 162 q 486 100 486 134 q 543 52 486 66 q 741 39 600 39 z "},"겆":{"ha":1389,"x_min":-46,"x_max":1435,"o":"m 718 1157 q 802 1080 804 1157 q 793 995 804 1048 l 972 995 l 972 1181 l 1319 1181 l 1319 463 l 972 463 l 972 694 l 718 694 l 718 776 q 469 546 630 623 q 93 440 309 469 l -46 694 q 242 760 128 716 q 412 880 355 804 l 62 880 l 31 1157 l 718 1157 m 93 46 q 333 91 215 60 q 517 170 451 122 l 208 170 l 208 417 l 1319 417 l 1319 170 l 1012 170 q 1194 96 1079 125 q 1435 54 1310 68 l 1250 -201 q 1204 -193 1224 -194 q 958 -127 1062 -162 q 765 -29 853 -93 q 569 -132 676 -96 q 316 -201 461 -168 q 278 -208 298 -205 l 93 46 z "},"겇":{"ha":1389,"x_min":0,"x_max":0,"o":""},"겈":{"ha":1389,"x_min":0,"x_max":0,"o":""},"겉":{"ha":1389,"x_min":-46,"x_max":1350,"o":"m 718 1157 q 802 1080 804 1157 q 799 1039 804 1062 q 790 995 795 1015 l 972 995 l 972 1181 l 1319 1181 l 1319 540 l 972 540 l 972 718 l 741 718 l 741 861 q 69 532 583 566 l -46 764 q 238 807 127 775 q 407 903 349 840 l 54 903 l 39 1157 l 718 1157 m 1327 509 l 1327 278 l 463 278 l 463 247 l 1319 247 l 1319 54 l 463 54 l 463 23 l 1335 23 l 1350 -208 l 255 -208 q 162 -116 162 -208 l 162 509 l 1327 509 z "},"겊":{"ha":1389,"x_min":-46,"x_max":1350,"o":"m 718 1157 q 802 1080 804 1157 q 793 995 804 1048 l 972 995 l 972 1181 l 1319 1181 l 1319 463 l 972 463 l 972 694 l 718 694 l 718 776 q 469 546 630 623 q 93 440 309 469 l -46 694 q 242 760 128 716 q 412 880 355 804 l 62 880 l 31 1157 l 718 1157 m 316 62 l 309 162 l 162 162 l 162 417 l 1319 417 l 1319 162 l 1173 162 l 1165 62 l 1335 62 l 1350 -185 l 139 -185 l 139 62 l 316 62 m 841 62 l 849 162 l 633 162 l 640 62 l 841 62 z "},"겋":{"ha":1389,"x_min":-46,"x_max":1343,"o":"m 718 1157 q 802 1080 804 1157 q 799 1039 804 1062 q 790 995 795 1015 l 972 995 l 972 1181 l 1319 1181 l 1319 540 l 972 540 l 972 718 l 741 718 l 741 861 q 69 532 583 566 l -46 764 q 238 807 127 775 q 407 903 349 840 l 54 903 l 39 1157 l 718 1157 m 764 -208 q 208 23 208 -208 q 764 255 208 255 q 1319 23 1319 255 q 764 -208 1319 -208 m 764 -15 q 927 -8 883 -15 q 972 23 972 0 q 927 54 972 46 q 764 62 883 62 q 600 54 645 62 q 556 23 556 46 q 600 -8 556 0 q 764 -15 645 -15 m 926 556 l 926 494 l 1343 494 l 1343 278 l 185 278 l 185 494 l 602 494 l 602 556 l 926 556 z "},"게":{"ha":1389,"x_min":-69,"x_max":1343,"o":"m 556 1111 q 648 1019 648 1111 q 631 764 644 866 l 741 764 l 741 1181 l 1019 1181 l 1019 -185 l 741 -185 l 741 394 l 579 394 l 579 498 q 431 194 526 321 q 177 -46 335 68 l -69 162 q 205 426 106 272 q 326 810 304 580 l 39 810 l 8 1111 l 556 1111 m 1343 1181 l 1343 -185 l 1065 -185 l 1065 1181 l 1343 1181 z "},"겍":{"ha":1389,"x_min":-46,"x_max":1343,"o":"m 556 1157 q 648 1065 648 1157 q 637 972 647 1034 l 741 972 l 741 1181 l 1019 1181 l 1019 417 l 741 417 l 741 648 l 579 648 l 579 759 q 396 529 514 613 q 108 394 278 446 l -46 625 q 180 721 88 657 q 316 880 272 785 l 39 880 l 8 1157 l 556 1157 m 1343 1181 l 1343 417 l 1065 417 l 1065 1181 l 1343 1181 m 1343 -185 l 995 -185 l 995 69 l 139 69 l 139 370 l 1343 370 l 1343 -185 z "},"겎":{"ha":1389,"x_min":0,"x_max":0,"o":""},"겏":{"ha":1389,"x_min":0,"x_max":0,"o":""},"겐":{"ha":1389,"x_min":-46,"x_max":1366,"o":"m 556 1157 q 648 1065 648 1157 q 631 926 644 992 l 741 926 l 741 1181 l 1019 1181 l 1019 231 l 741 231 l 741 602 l 556 602 l 556 701 q 108 347 426 444 l -46 579 q 181 691 86 613 q 319 880 275 769 l 39 880 l 8 1157 l 556 1157 m 1343 1181 l 1343 231 l 1065 231 l 1065 1181 l 1343 1181 m 509 324 l 509 116 l 1335 116 l 1366 -185 l 255 -185 q 162 -93 162 -185 l 162 324 l 509 324 z "},"겑":{"ha":1389,"x_min":0,"x_max":0,"o":""},"겒":{"ha":1389,"x_min":0,"x_max":0,"o":""},"겓":{"ha":1389,"x_min":0,"x_max":0,"o":""},"겔":{"ha":1389,"x_min":-46,"x_max":1358,"o":"m 648 1157 q 636 995 648 1073 l 741 995 l 741 1181 l 1019 1181 l 1019 540 l 741 540 l 741 718 l 579 718 l 579 813 q 85 532 451 560 l -46 756 q 318 903 225 779 l 23 903 l 23 1157 l 648 1157 m 1343 1181 l 1343 540 l 1065 540 l 1065 1181 l 1343 1181 m 1343 509 l 1343 46 l 509 46 l 509 15 l 1343 15 l 1358 -208 l 255 -208 q 162 -116 162 -208 l 162 255 l 995 255 l 995 285 l 162 285 l 162 509 l 1343 509 z "},"겕":{"ha":1389,"x_min":0,"x_max":0,"o":""},"겖":{"ha":1389,"x_min":0,"x_max":0,"o":""},"겗":{"ha":1389,"x_min":0,"x_max":0,"o":""},"겘":{"ha":1389,"x_min":0,"x_max":0,"o":""},"겙":{"ha":1389,"x_min":0,"x_max":0,"o":""},"겚":{"ha":1389,"x_min":0,"x_max":0,"o":""},"겛":{"ha":1389,"x_min":0,"x_max":0,"o":""},"겜":{"ha":1389,"x_min":-46,"x_max":1343,"o":"m 556 1157 q 648 1065 648 1157 l 640 995 l 741 995 l 741 1181 l 1019 1181 l 1019 463 l 741 463 l 741 694 l 579 694 l 579 769 q 394 552 512 628 q 108 440 276 477 l -46 671 q 310 880 218 715 l 39 880 l 8 1157 l 556 1157 m 1343 1181 l 1343 463 l 1065 463 l 1065 1181 l 1343 1181 m 1343 417 l 1343 -185 l 255 -185 q 162 -93 162 -185 l 162 417 l 1343 417 m 995 85 l 995 147 l 509 147 l 509 85 l 995 85 z "},"겝":{"ha":1389,"x_min":-46,"x_max":1343,"o":"m 556 1157 q 648 1065 648 1157 l 640 995 l 741 995 l 741 1181 l 1019 1181 l 1019 463 l 741 463 l 741 694 l 579 694 l 579 769 q 394 552 512 628 q 108 440 276 477 l -46 671 q 310 880 218 715 l 39 880 l 8 1157 l 556 1157 m 1343 1181 l 1343 463 l 1065 463 l 1065 1181 l 1343 1181 m 486 417 l 486 324 l 1019 324 l 1019 417 l 1343 417 l 1343 -185 l 255 -185 q 162 -93 162 -185 l 162 417 l 486 417 m 1019 39 l 1019 100 l 486 100 l 486 39 l 1019 39 z "},"겞":{"ha":1389,"x_min":0,"x_max":0,"o":""},"겟":{"ha":1389,"x_min":-46,"x_max":1435,"o":"m 556 1157 q 648 1065 648 1157 q 639 972 647 1048 l 741 972 l 741 1181 l 1019 1181 l 1019 417 l 741 417 l 741 648 l 579 648 l 579 752 q 108 347 454 454 l -46 579 q 181 691 86 613 q 319 880 275 769 l 39 880 l 8 1157 l 556 1157 m 1343 1181 l 1343 347 l 1065 347 l 1065 1181 l 1343 1181 m 941 370 l 941 347 q 1085 170 941 239 q 1435 54 1228 100 l 1250 -201 q 994 -120 1123 -173 q 765 17 864 -68 q 535 -125 665 -71 q 278 -208 406 -179 l 93 46 q 441 165 295 91 q 586 347 586 239 l 586 370 l 941 370 z "},"겠":{"ha":1389,"x_min":-46,"x_max":1528,"o":"m 556 1157 q 648 1065 648 1157 q 637 972 647 1034 l 741 972 l 741 1181 l 1019 1181 l 1019 417 l 741 417 l 741 648 l 579 648 l 579 759 q 396 529 514 613 q 108 394 278 446 l -46 625 q 180 721 88 657 q 316 880 272 785 l 39 880 l 8 1157 l 556 1157 m 1343 1181 l 1343 417 l 1065 417 l 1065 1181 l 1343 1181 m 46 23 q 269 137 182 62 q 355 324 355 211 l 355 370 l 664 370 l 664 324 q 785 122 664 205 q 910 324 910 207 l 910 370 l 1219 370 l 1219 324 q 1306 137 1219 211 q 1528 23 1392 62 l 1319 -208 q 1179 -127 1248 -177 q 1054 -9 1110 -77 q 923 -129 994 -77 q 787 -208 852 -181 q 653 -130 722 -181 q 522 -11 583 -79 q 255 -208 415 -139 l 46 23 z "},"겡":{"ha":1389,"x_min":-46,"x_max":1366,"o":"m 556 1157 q 648 1065 648 1157 q 637 972 647 1034 l 741 972 l 741 1181 l 1019 1181 l 1019 463 l 741 463 l 741 648 l 579 648 l 579 759 q 396 529 514 613 q 108 394 278 446 l -46 625 q 180 721 88 657 q 316 880 272 785 l 39 880 l 8 1157 l 556 1157 m 1343 1181 l 1343 417 l 1065 417 l 1065 1181 l 1343 1181 m 748 -208 q 131 100 131 -208 q 748 409 131 409 q 1366 100 1366 409 q 748 -208 1366 -208 m 748 39 q 980 100 980 39 q 748 162 980 162 q 517 100 517 162 q 748 39 517 39 z "},"겢":{"ha":1389,"x_min":0,"x_max":0,"o":""},"겣":{"ha":1389,"x_min":0,"x_max":0,"o":""},"겤":{"ha":1389,"x_min":0,"x_max":0,"o":""},"겥":{"ha":1389,"x_min":0,"x_max":0,"o":""},"겦":{"ha":1389,"x_min":0,"x_max":0,"o":""},"겧":{"ha":1389,"x_min":0,"x_max":0,"o":""},"겨":{"ha":1389,"x_min":-46,"x_max":1319,"o":"m 718 1111 q 810 1019 810 1111 q 807 972 809 995 l 972 972 l 972 1181 l 1319 1181 l 1319 -185 l 972 -185 l 972 185 l 610 185 l 610 301 q 208 -46 466 88 l -46 216 q 279 456 162 315 q 427 787 395 597 l 62 787 l 31 1111 l 718 1111 m 972 509 l 972 648 l 759 648 q 716 509 741 576 l 972 509 z "},"격":{"ha":1389,"x_min":-46,"x_max":1319,"o":"m 718 1157 q 804 1080 804 1157 l 972 1080 l 972 1181 l 1319 1181 l 1319 417 l 972 417 l 972 532 l 648 532 l 648 670 q 93 394 472 461 l -46 671 q 219 745 114 701 q 380 856 324 790 l 62 856 l 31 1157 l 718 1157 m 1319 -185 l 972 -185 l 972 69 l 139 69 l 139 370 l 1319 370 l 1319 -185 m 972 772 l 972 856 l 756 856 q 718 772 739 810 l 972 772 z "},"겪":{"ha":1389,"x_min":-46,"x_max":1319,"o":"m 718 1157 q 804 1080 804 1157 l 972 1080 l 972 1181 l 1319 1181 l 1319 417 l 972 417 l 972 532 l 648 532 l 648 670 q 93 394 472 461 l -46 671 q 219 745 114 701 q 380 856 324 790 l 62 856 l 31 1157 l 718 1157 m 718 -185 l 370 -185 l 370 69 l 139 69 l 139 370 l 718 370 l 718 -185 m 1319 -185 l 972 -185 l 972 69 l 764 69 l 764 370 l 1319 370 l 1319 -185 m 972 772 l 972 856 l 756 856 q 718 772 739 810 l 972 772 z "},"겫":{"ha":1389,"x_min":0,"x_max":0,"o":""},"견":{"ha":1389,"x_min":-46,"x_max":1343,"o":"m 718 1157 q 786 1134 764 1157 q 802 1065 809 1111 l 972 1065 l 972 1181 l 1319 1181 l 1319 185 l 972 185 l 972 463 l 602 463 l 602 599 q 374 437 506 500 q 93 347 242 373 l -46 625 q 394 856 289 688 l 62 856 l 31 1157 l 718 1157 m 509 324 l 509 116 l 1312 116 l 1343 -185 l 255 -185 q 162 -93 162 -185 l 162 324 l 509 324 m 972 718 l 972 810 l 741 810 q 694 718 716 753 l 972 718 z "},"겭":{"ha":1389,"x_min":0,"x_max":0,"o":""},"겮":{"ha":1389,"x_min":0,"x_max":0,"o":""},"겯":{"ha":1389,"x_min":-46,"x_max":1343,"o":"m 718 1157 q 804 1088 799 1157 l 972 1088 l 972 1181 l 1319 1181 l 1319 463 l 972 463 l 972 556 l 602 556 l 602 636 q 380 508 508 554 q 93 440 252 461 l -46 694 q 242 760 128 716 q 412 880 355 804 l 62 880 l 31 1157 l 718 1157 m 1319 417 l 1319 147 l 509 147 l 509 85 l 1312 85 l 1343 -185 l 255 -185 q 162 -93 162 -185 l 162 417 l 1319 417 m 972 787 l 972 856 l 756 856 q 724 787 742 821 l 972 787 z "},"결":{"ha":1389,"x_min":-46,"x_max":1335,"o":"m 718 1157 q 804 1088 799 1157 l 972 1088 l 972 1181 l 1319 1181 l 1319 540 l 972 540 l 972 625 l 625 625 l 625 718 q 69 532 438 557 l -46 764 q 238 807 127 775 q 407 903 349 840 l 54 903 l 39 1157 l 718 1157 m 1319 509 l 1319 46 l 509 46 l 509 15 l 1319 15 l 1335 -208 l 255 -208 q 162 -116 162 -208 l 162 255 l 972 255 l 972 285 l 162 285 l 162 509 l 1319 509 m 972 833 l 972 880 l 750 880 l 724 833 l 972 833 z "},"겱":{"ha":1389,"x_min":0,"x_max":0,"o":""},"겲":{"ha":1389,"x_min":0,"x_max":0,"o":""},"겳":{"ha":1389,"x_min":0,"x_max":0,"o":""},"겴":{"ha":1389,"x_min":0,"x_max":0,"o":""},"겵":{"ha":1389,"x_min":0,"x_max":0,"o":""},"겶":{"ha":1389,"x_min":0,"x_max":0,"o":""},"겷":{"ha":1389,"x_min":-46,"x_max":1381,"o":"m 718 1157 q 804 1088 799 1157 l 972 1088 l 972 1181 l 1319 1181 l 1319 540 l 972 540 l 972 625 l 625 625 l 625 718 q 69 532 438 557 l -46 764 q 238 807 127 775 q 407 903 349 840 l 54 903 l 39 1157 l 718 1157 m 1188 509 l 1188 448 l 1381 448 l 1381 239 l 764 239 l 764 448 l 957 448 l 957 509 l 1188 509 m 1073 -231 q 856 -174 932 -231 q 779 -8 779 -117 q 856 159 779 102 q 1073 216 932 216 q 1289 159 1213 216 q 1366 -8 1366 102 q 1289 -174 1366 -117 q 1073 -231 1213 -231 m 1073 -39 q 1125 -32 1108 -39 q 1142 -8 1142 -25 q 1125 16 1142 9 q 1073 23 1108 23 q 1020 16 1037 23 q 1003 -8 1003 9 q 1020 -32 1003 -25 q 1073 -39 1037 -39 m 162 509 l 733 509 l 733 54 l 417 54 l 417 17 q 733 31 596 15 l 756 -177 q 255 -208 602 -208 q 162 -116 162 -208 l 162 247 l 478 247 l 478 278 l 162 278 l 162 509 m 972 833 l 972 880 l 750 880 l 724 833 l 972 833 z "},"겸":{"ha":1389,"x_min":-46,"x_max":1319,"o":"m 718 1157 q 804 1088 799 1157 l 972 1088 l 972 1181 l 1319 1181 l 1319 463 l 972 463 l 972 556 l 602 556 l 602 636 q 380 508 508 554 q 93 440 252 461 l -46 694 q 242 760 128 716 q 412 880 355 804 l 62 880 l 31 1157 l 718 1157 m 1319 417 l 1319 -185 l 255 -185 q 162 -93 162 -185 l 162 417 l 1319 417 m 995 85 l 995 147 l 486 147 l 486 85 l 995 85 m 972 787 l 972 856 l 756 856 q 724 787 742 821 l 972 787 z "},"겹":{"ha":1389,"x_min":-46,"x_max":1319,"o":"m 718 1157 q 804 1088 799 1157 l 972 1088 l 972 1181 l 1319 1181 l 1319 463 l 972 463 l 972 556 l 602 556 l 602 636 q 380 508 508 554 q 93 440 252 461 l -46 694 q 242 760 128 716 q 412 880 355 804 l 62 880 l 31 1157 l 718 1157 m 486 417 l 486 324 l 995 324 l 995 417 l 1319 417 l 1319 -185 l 255 -185 q 162 -93 162 -185 l 162 417 l 486 417 m 995 39 l 995 100 l 486 100 l 486 39 l 995 39 m 972 787 l 972 856 l 756 856 q 724 787 742 821 l 972 787 z "},"겺":{"ha":1389,"x_min":0,"x_max":0,"o":""},"겻":{"ha":1389,"x_min":-46,"x_max":1412,"o":"m 718 1157 q 804 1080 804 1157 l 972 1080 l 972 1181 l 1319 1181 l 1319 324 l 972 324 l 972 532 l 648 532 l 648 651 q 408 453 552 528 q 93 347 264 378 l -46 625 q 394 856 289 688 l 62 856 l 31 1157 l 718 1157 m 918 440 l 918 394 q 1060 197 918 270 q 1412 77 1202 123 l 1227 -201 q 978 -113 1113 -176 q 742 48 844 -49 q 506 -117 642 -51 q 255 -208 370 -182 l 69 69 q 418 192 273 114 q 563 394 563 270 l 563 440 l 918 440 m 972 772 l 972 856 l 759 856 q 724 772 744 810 l 972 772 z "},"겼":{"ha":1389,"x_min":-46,"x_max":1481,"o":"m 718 1157 q 804 1080 804 1157 l 972 1080 l 972 1181 l 1319 1181 l 1319 417 l 972 417 l 972 532 l 648 532 l 648 670 q 93 394 472 461 l -46 671 q 219 745 114 701 q 380 856 324 790 l 62 856 l 31 1157 l 718 1157 m 46 46 q 255 160 170 82 q 340 324 340 239 l 340 370 l 648 370 l 648 324 q 762 154 648 238 q 848 237 816 193 q 880 324 880 281 l 880 370 l 1188 370 l 1188 324 q 1273 160 1188 239 q 1481 46 1358 82 l 1273 -208 q 1022 -15 1122 -144 q 894 -131 963 -80 q 764 -208 826 -182 q 634 -132 702 -182 q 508 -17 566 -82 q 255 -208 406 -144 l 46 46 m 972 772 l 972 856 l 756 856 q 718 772 739 810 l 972 772 z "},"경":{"ha":1389,"x_min":-46,"x_max":1350,"o":"m 718 1157 q 804 1080 804 1157 l 972 1080 l 972 1181 l 1319 1181 l 1319 417 l 972 417 l 972 532 l 648 532 l 648 670 q 93 394 472 461 l -46 671 q 219 745 114 701 q 380 856 324 790 l 62 856 l 31 1157 l 718 1157 m 741 -208 q 282 -132 434 -208 q 131 100 131 -56 q 282 333 131 256 q 741 409 434 409 q 1199 333 1048 409 q 1350 100 1350 256 q 1199 -132 1350 -56 q 741 -208 1048 -208 m 741 39 q 938 52 881 39 q 995 100 995 66 q 938 148 995 134 q 741 162 881 162 q 543 148 600 162 q 486 100 486 134 q 543 52 486 66 q 741 39 600 39 m 972 772 l 972 856 l 756 856 q 718 772 739 810 l 972 772 z "},"겾":{"ha":1389,"x_min":0,"x_max":0,"o":""},"겿":{"ha":1389,"x_min":-46,"x_max":1435,"o":"m 718 1157 q 804 1088 799 1157 l 972 1088 l 972 1181 l 1319 1181 l 1319 463 l 972 463 l 972 556 l 602 556 l 602 636 q 380 508 508 554 q 93 440 252 461 l -46 694 q 242 760 128 716 q 412 880 355 804 l 62 880 l 31 1157 l 718 1157 m 941 463 l 941 394 l 1319 394 l 1319 147 l 988 147 q 1163 73 1046 99 q 1435 31 1279 48 l 1250 -201 q 989 -147 1113 -181 q 765 -45 866 -113 q 278 -208 599 -162 l 93 23 q 542 147 441 60 l 208 147 l 208 394 l 586 394 l 586 463 l 941 463 m 972 787 l 972 856 l 756 856 q 724 787 742 821 l 972 787 z "},"곀":{"ha":1389,"x_min":0,"x_max":0,"o":""},"곁":{"ha":1389,"x_min":-46,"x_max":1350,"o":"m 718 1157 q 804 1088 799 1157 l 972 1088 l 972 1181 l 1319 1181 l 1319 540 l 972 540 l 972 625 l 625 625 l 625 718 q 69 532 438 557 l -46 764 q 238 807 127 775 q 407 903 349 840 l 54 903 l 39 1157 l 718 1157 m 1327 509 l 1327 278 l 463 278 l 463 247 l 1319 247 l 1319 54 l 463 54 l 463 23 l 1335 23 l 1350 -208 l 255 -208 q 162 -116 162 -208 l 162 509 l 1327 509 m 972 833 l 972 880 l 750 880 l 724 833 l 972 833 z "},"곂":{"ha":1389,"x_min":0,"x_max":0,"o":""},"곃":{"ha":1389,"x_min":0,"x_max":0,"o":""},"계":{"ha":1389,"x_min":-69,"x_max":1343,"o":"m 556 1111 q 648 1019 648 1111 l 647 972 l 741 972 l 741 1181 l 1019 1181 l 1019 -185 l 741 -185 l 741 185 l 509 185 l 509 323 q 373 126 454 215 q 177 -46 292 37 l -69 162 q 205 426 106 272 q 326 810 304 580 l 39 810 l 8 1111 l 556 1111 m 1343 1181 l 1343 -185 l 1065 -185 l 1065 1181 l 1343 1181 m 741 509 l 741 648 l 614 648 q 582 509 602 579 l 741 509 z "},"곅":{"ha":1389,"x_min":0,"x_max":0,"o":""},"곆":{"ha":1389,"x_min":0,"x_max":0,"o":""},"곇":{"ha":1389,"x_min":0,"x_max":0,"o":""},"곈":{"ha":1389,"x_min":-46,"x_max":1366,"o":"m 556 1157 q 648 1065 648 1157 l 741 1065 l 741 1181 l 1019 1181 l 1019 231 l 741 231 l 741 463 l 455 463 l 455 556 q 108 347 326 414 l -46 579 q 181 691 86 613 q 319 880 275 769 l 39 880 l 8 1157 l 556 1157 m 1343 1181 l 1343 231 l 1065 231 l 1065 1181 l 1343 1181 m 509 324 l 509 116 l 1335 116 l 1366 -185 l 255 -185 q 162 -93 162 -185 l 162 324 l 509 324 m 741 718 l 741 810 l 600 810 q 563 718 585 762 l 741 718 z "},"곉":{"ha":1389,"x_min":0,"x_max":0,"o":""},"곊":{"ha":1389,"x_min":0,"x_max":0,"o":""},"곋":{"ha":1389,"x_min":0,"x_max":0,"o":""},"곌":{"ha":1389,"x_min":-46,"x_max":1358,"o":"m 648 1157 l 647 1088 l 741 1088 l 741 1181 l 1019 1181 l 1019 540 l 741 540 l 741 625 l 509 625 l 509 710 q 85 532 370 554 l -46 756 q 318 903 225 779 l 23 903 l 23 1157 l 648 1157 m 1343 1181 l 1343 540 l 1065 540 l 1065 1181 l 1343 1181 m 1343 509 l 1343 46 l 509 46 l 509 15 l 1343 15 l 1358 -208 l 255 -208 q 162 -116 162 -208 l 162 255 l 995 255 l 995 285 l 162 285 l 162 509 l 1343 509 m 741 833 l 741 880 l 606 880 l 588 833 l 741 833 z "},"곍":{"ha":1389,"x_min":0,"x_max":0,"o":""},"곎":{"ha":1389,"x_min":0,"x_max":0,"o":""},"곏":{"ha":1389,"x_min":0,"x_max":0,"o":""},"곐":{"ha":1389,"x_min":0,"x_max":0,"o":""},"곑":{"ha":1389,"x_min":0,"x_max":0,"o":""},"곒":{"ha":1389,"x_min":0,"x_max":0,"o":""},"곓":{"ha":1389,"x_min":0,"x_max":0,"o":""},"곔":{"ha":1389,"x_min":0,"x_max":0,"o":""},"곕":{"ha":1389,"x_min":-46,"x_max":1343,"o":"m 556 1157 q 618 1140 596 1157 q 647 1088 640 1123 l 741 1088 l 741 1181 l 1019 1181 l 1019 463 l 741 463 l 741 556 l 509 556 l 509 656 q 340 520 440 571 q 108 440 239 469 l -46 671 q 310 880 218 715 l 39 880 l 8 1157 l 556 1157 m 1343 1181 l 1343 463 l 1065 463 l 1065 1181 l 1343 1181 m 486 417 l 486 324 l 1019 324 l 1019 417 l 1343 417 l 1343 -185 l 255 -185 q 162 -93 162 -185 l 162 417 l 486 417 m 1019 39 l 1019 100 l 486 100 l 486 39 l 1019 39 m 741 787 l 741 856 l 613 856 q 586 787 605 830 l 741 787 z "},"곖":{"ha":1389,"x_min":0,"x_max":0,"o":""},"곗":{"ha":1389,"x_min":-46,"x_max":1435,"o":"m 556 1157 q 621 1139 599 1157 q 648 1080 644 1120 l 741 1080 l 741 1181 l 1019 1181 l 1019 417 l 741 417 l 741 532 l 509 532 l 509 623 q 108 347 373 427 l -46 579 q 181 691 86 613 q 319 880 275 769 l 39 880 l 8 1157 l 556 1157 m 1343 1181 l 1343 347 l 1065 347 l 1065 1181 l 1343 1181 m 941 370 l 941 347 q 1085 170 941 239 q 1435 54 1228 100 l 1250 -201 q 994 -120 1123 -173 q 765 17 864 -68 q 535 -125 665 -71 q 278 -208 406 -179 l 93 46 q 441 165 295 91 q 586 347 586 239 l 586 370 l 941 370 m 741 772 l 741 856 l 614 856 q 586 772 603 815 l 741 772 z "},"곘":{"ha":1389,"x_min":-46,"x_max":1528,"o":"m 556 1157 q 621 1139 599 1157 q 648 1080 644 1120 l 741 1080 l 741 1181 l 1019 1181 l 1019 417 l 741 417 l 741 532 l 509 532 l 509 642 q 340 492 440 549 q 108 394 241 434 l -46 625 q 180 721 88 657 q 316 880 272 785 l 39 880 l 8 1157 l 556 1157 m 1343 1181 l 1343 417 l 1065 417 l 1065 1181 l 1343 1181 m 46 23 q 269 137 182 62 q 355 324 355 211 l 355 370 l 664 370 l 664 324 q 785 122 664 205 q 910 324 910 207 l 910 370 l 1219 370 l 1219 324 q 1306 137 1219 211 q 1528 23 1392 62 l 1319 -208 q 1179 -127 1248 -177 q 1054 -9 1110 -77 q 923 -129 994 -77 q 787 -208 852 -181 q 653 -130 722 -181 q 522 -11 583 -79 q 255 -208 415 -139 l 46 23 m 741 772 l 741 856 l 614 856 q 583 772 600 810 l 741 772 z "},"곙":{"ha":1389,"x_min":0,"x_max":0,"o":""},"곚":{"ha":1389,"x_min":0,"x_max":0,"o":""},"곛":{"ha":1389,"x_min":0,"x_max":0,"o":""},"곜":{"ha":1389,"x_min":0,"x_max":0,"o":""},"곝":{"ha":1389,"x_min":0,"x_max":0,"o":""},"곞":{"ha":1389,"x_min":0,"x_max":0,"o":""},"곟":{"ha":1389,"x_min":0,"x_max":0,"o":""},"고":{"ha":1389,"x_min":46,"x_max":1358,"o":"m 1204 1111 q 1296 1019 1296 1111 q 1227 255 1285 602 l 880 301 q 951 787 938 568 l 131 787 l 100 1111 l 1204 1111 m 718 625 l 718 162 l 1327 162 l 1358 -139 l 46 -139 l 46 162 l 394 162 l 394 625 l 718 625 z "},"곡":{"ha":1389,"x_min":23,"x_max":1366,"o":"m 1204 1157 q 1296 1065 1296 1157 q 1279 880 1289 958 q 1250 694 1270 801 l 903 718 q 937 880 926 801 l 131 880 l 100 1157 l 1204 1157 m 440 625 l 440 787 l 764 787 l 764 625 l 1366 625 l 1366 370 l 23 370 l 23 625 l 440 625 m 1273 -185 l 926 -185 l 926 23 l 116 23 l 116 301 l 1273 301 l 1273 -185 z "},"곢":{"ha":1389,"x_min":0,"x_max":0,"o":""},"곣":{"ha":1389,"x_min":0,"x_max":0,"o":""},"곤":{"ha":1389,"x_min":23,"x_max":1366,"o":"m 1204 1157 q 1296 1065 1296 1157 q 1279 853 1289 938 q 1250 671 1270 769 l 903 694 q 932 856 921 779 l 131 856 l 100 1157 l 1204 1157 m 440 610 l 440 764 l 764 764 l 764 610 l 1366 610 l 1366 332 l 23 332 l 23 610 l 440 610 m 440 278 l 440 93 l 1265 93 l 1296 -185 l 208 -185 q 116 -93 116 -185 l 116 278 l 440 278 z "},"곥":{"ha":1389,"x_min":0,"x_max":0,"o":""},"곦":{"ha":1389,"x_min":0,"x_max":0,"o":""},"곧":{"ha":1389,"x_min":23,"x_max":1366,"o":"m 1204 1157 q 1296 1065 1296 1157 q 1279 880 1289 958 q 1250 694 1270 801 l 903 718 q 938 903 927 819 l 131 903 l 100 1157 l 1204 1157 m 440 648 l 440 810 l 764 810 l 764 648 l 1366 648 l 1366 394 l 23 394 l 23 648 l 440 648 m 1273 340 l 1273 100 l 440 100 l 440 54 l 1273 54 l 1289 -185 l 208 -185 q 116 -93 116 -185 l 116 340 l 1273 340 z "},"골":{"ha":1389,"x_min":23,"x_max":1366,"o":"m 1204 1181 q 1296 1088 1296 1181 q 1290 961 1296 1026 q 1265 764 1284 897 l 918 787 q 940 926 935 894 l 131 926 l 100 1181 l 1204 1181 m 440 733 l 440 856 l 764 856 l 764 733 l 1366 733 l 1366 494 l 23 494 l 23 733 l 440 733 m 1273 455 l 1273 31 l 440 31 l 440 0 l 1273 0 l 1289 -208 l 208 -208 q 116 -116 116 -208 l 116 216 l 949 216 l 949 247 l 116 247 l 116 455 l 1273 455 z "},"곩":{"ha":1389,"x_min":0,"x_max":0,"o":""},"곪":{"ha":1389,"x_min":23,"x_max":1366,"o":"m 1204 1181 q 1296 1088 1296 1181 q 1290 961 1296 1026 q 1265 764 1284 897 l 918 787 q 940 926 935 894 l 131 926 l 100 1181 l 1204 1181 m 440 733 l 440 856 l 764 856 l 764 733 l 1366 733 l 1366 494 l 23 494 l 23 733 l 440 733 m 1273 463 l 1273 -201 l 733 -201 l 733 463 l 1273 463 m 1026 31 l 1026 231 l 980 231 l 980 31 l 1026 31 m 116 463 l 687 463 l 687 39 l 370 39 l 370 2 q 687 15 549 0 l 710 -177 q 208 -208 556 -208 q 116 -116 116 -208 l 116 216 l 432 216 l 432 247 l 116 247 l 116 463 z "},"곫":{"ha":1389,"x_min":0,"x_max":0,"o":""},"곬":{"ha":1389,"x_min":23,"x_max":1427,"o":"m 1204 1181 q 1296 1088 1296 1181 q 1290 961 1296 1026 q 1265 764 1284 897 l 918 787 q 940 926 935 894 l 131 926 l 100 1181 l 1204 1181 m 440 733 l 440 856 l 764 856 l 764 733 l 1366 733 l 1366 494 l 23 494 l 23 733 l 440 733 m 1173 463 l 1173 370 q 1241 154 1173 239 q 1427 0 1309 69 l 1204 -201 q 1105 -122 1147 -157 q 1020 -31 1063 -86 q 932 -127 975 -90 q 833 -208 889 -165 l 699 -88 l 710 -177 q 208 -208 556 -208 q 116 -116 116 -208 l 116 216 l 432 216 l 432 247 l 116 247 l 116 463 l 687 463 l 687 43 q 816 184 769 105 q 864 370 864 262 l 864 463 l 1173 463 m 370 2 q 639 11 506 0 l 681 39 l 370 39 l 370 2 z "},"곭":{"ha":1389,"x_min":0,"x_max":0,"o":""},"곮":{"ha":1389,"x_min":0,"x_max":0,"o":""},"곯":{"ha":1389,"x_min":23,"x_max":1366,"o":"m 1204 1181 q 1296 1088 1296 1181 q 1290 961 1296 1026 q 1265 764 1284 897 l 918 787 q 940 926 935 894 l 131 926 l 100 1181 l 1204 1181 m 440 733 l 440 856 l 764 856 l 764 733 l 1366 733 l 1366 494 l 23 494 l 23 733 l 440 733 m 1142 471 l 1142 409 l 1335 409 l 1335 208 l 718 208 l 718 409 l 910 409 l 910 471 l 1142 471 m 1026 -231 q 810 -177 887 -231 q 733 -23 733 -122 q 810 130 733 76 q 1026 185 887 185 q 1242 130 1165 185 q 1319 -23 1319 76 q 1242 -177 1319 -122 q 1026 -231 1165 -231 m 1026 -54 q 1079 -47 1062 -54 q 1096 -23 1096 -40 q 1079 1 1096 -6 q 1026 8 1062 8 q 974 1 991 8 q 957 -23 957 -6 q 974 -47 957 -40 q 1026 -54 991 -54 m 116 463 l 687 463 l 687 39 l 370 39 l 370 2 q 687 15 549 0 l 710 -177 q 208 -208 556 -208 q 116 -116 116 -208 l 116 216 l 432 216 l 432 247 l 116 247 l 116 463 z "},"곰":{"ha":1389,"x_min":23,"x_max":1366,"o":"m 1204 1157 q 1296 1065 1296 1157 q 1279 880 1289 958 q 1250 694 1270 801 l 903 718 q 938 903 927 819 l 131 903 l 100 1157 l 1204 1157 m 440 648 l 440 810 l 764 810 l 764 648 l 1366 648 l 1366 394 l 23 394 l 23 648 l 440 648 m 1273 340 l 1273 -185 l 208 -185 q 116 -93 116 -185 l 116 340 l 1273 340 m 972 54 l 972 100 l 417 100 l 417 54 l 972 54 z "},"곱":{"ha":1389,"x_min":23,"x_max":1366,"o":"m 1204 1157 q 1296 1065 1296 1157 q 1279 880 1289 958 q 1250 694 1270 801 l 903 718 q 938 903 927 819 l 131 903 l 100 1157 l 1204 1157 m 440 648 l 440 810 l 764 810 l 764 648 l 1366 648 l 1366 394 l 23 394 l 23 648 l 440 648 m 417 355 l 417 278 l 972 278 l 972 355 l 1273 355 l 1273 -185 l 208 -185 q 116 -93 116 -185 l 116 355 l 417 355 m 972 23 l 972 85 l 417 85 l 417 23 l 972 23 z "},"곲":{"ha":1389,"x_min":0,"x_max":0,"o":""},"곳":{"ha":1389,"x_min":23,"x_max":1366,"o":"m 1204 1157 q 1296 1065 1296 1157 q 1279 853 1289 938 q 1250 671 1270 769 l 903 694 q 932 856 921 779 l 131 856 l 100 1157 l 1204 1157 m 440 610 l 440 764 l 764 764 l 764 610 l 1366 610 l 1366 332 l 23 332 l 23 610 l 440 610 m 880 301 l 880 278 q 938 200 880 233 q 1081 144 997 167 q 1296 93 1165 120 l 1366 77 l 1181 -201 q 934 -143 1068 -188 q 696 -20 799 -97 q 456 -147 593 -99 q 208 -208 319 -196 l 23 69 q 248 111 136 82 q 434 184 360 140 q 509 278 509 227 l 509 301 l 880 301 z "},"곴":{"ha":1389,"x_min":0,"x_max":0,"o":""},"공":{"ha":1389,"x_min":23,"x_max":1366,"o":"m 1204 1157 q 1296 1065 1296 1157 q 1279 880 1289 958 q 1250 694 1270 801 l 903 718 q 938 903 927 819 l 131 903 l 100 1157 l 1204 1157 m 440 648 l 440 810 l 764 810 l 764 648 l 1366 648 l 1366 394 l 23 394 l 23 648 l 440 648 m 694 -208 q 242 -137 392 -208 q 93 77 93 -66 q 242 292 93 221 q 694 363 392 363 q 1147 292 997 363 q 1296 77 1296 221 q 1147 -137 1296 -66 q 694 -208 997 -208 m 694 23 q 869 36 812 23 q 926 77 926 49 q 869 118 926 105 q 694 131 812 131 q 520 118 577 131 q 463 77 463 105 q 520 36 463 49 q 694 23 577 23 z "},"곶":{"ha":1389,"x_min":23,"x_max":1366,"o":"m 1204 1157 q 1296 1065 1296 1157 q 1279 880 1289 958 q 1250 694 1270 801 l 903 718 q 938 903 927 819 l 131 903 l 100 1157 l 1204 1157 m 440 648 l 440 810 l 764 810 l 764 648 l 1366 648 l 1366 394 l 23 394 l 23 648 l 440 648 m 23 0 q 298 44 179 17 q 475 116 417 71 l 116 116 l 116 347 l 1273 347 l 1273 116 l 914 116 q 1090 49 971 74 q 1366 8 1210 25 l 1181 -201 q 927 -153 1057 -187 q 696 -57 798 -119 q 462 -159 596 -122 q 208 -208 329 -196 l 23 0 z "},"곷":{"ha":1389,"x_min":0,"x_max":0,"o":""},"곸":{"ha":1389,"x_min":0,"x_max":0,"o":""},"곹":{"ha":1389,"x_min":23,"x_max":1366,"o":"m 1204 1181 q 1296 1088 1296 1181 q 1290 961 1296 1026 q 1265 764 1284 897 l 918 787 q 940 926 935 894 l 131 926 l 100 1181 l 1204 1181 m 440 733 l 440 856 l 764 856 l 764 733 l 1366 733 l 1366 494 l 23 494 l 23 733 l 440 733 m 1281 455 l 1281 247 l 417 247 l 417 216 l 1273 216 l 1273 31 l 417 31 l 417 0 l 1289 0 l 1304 -208 l 208 -208 q 116 -116 116 -208 l 116 455 l 1281 455 z "},"곺":{"ha":1389,"x_min":0,"x_max":0,"o":""},"곻":{"ha":1389,"x_min":0,"x_max":0,"o":""},"과":{"ha":1389,"x_min":8,"x_max":1412,"o":"m 764 1134 q 856 1042 856 1134 q 845 651 856 838 q 810 347 833 465 l 509 370 q 552 833 546 625 l 39 833 l 8 1134 l 764 1134 m 417 648 l 417 238 q 903 278 710 250 l 903 -46 q 568 -79 770 -65 q 170 -93 366 -93 l 8 -93 l 8 231 l 139 231 l 139 648 l 417 648 m 1273 1181 l 1273 741 l 1412 741 l 1412 370 l 1273 370 l 1273 -185 l 949 -185 l 949 1181 l 1273 1181 z "},"곽":{"ha":1389,"x_min":8,"x_max":1412,"o":"m 764 1157 q 856 1065 856 1157 q 850 863 856 972 q 833 671 844 755 l 532 694 q 554 903 546 765 l 31 903 l 15 1157 l 764 1157 m 417 833 l 417 606 q 688 623 559 611 q 903 648 818 634 l 903 394 q 598 361 790 375 q 208 347 406 347 l 8 347 l 8 602 l 139 602 l 139 833 l 417 833 m 1273 1181 l 1273 972 l 1412 972 l 1412 648 l 1273 648 l 1273 347 l 949 347 l 949 1181 l 1273 1181 m 1273 -185 l 949 -185 l 949 46 l 116 46 l 116 301 l 1273 301 l 1273 -185 z "},"곾":{"ha":1389,"x_min":0,"x_max":0,"o":""},"곿":{"ha":1389,"x_min":0,"x_max":0,"o":""},"관":{"ha":1389,"x_min":8,"x_max":1412,"o":"m 764 1157 q 856 1065 856 1157 q 850 847 856 965 q 833 648 844 730 l 532 671 q 554 880 546 752 l 39 880 l 8 1157 l 764 1157 m 1273 1181 l 1273 972 l 1412 972 l 1412 648 l 1273 648 l 1273 208 l 949 208 l 949 1181 l 1273 1181 m 417 810 l 417 583 q 903 625 716 594 l 903 355 q 603 316 795 332 q 208 301 410 301 l 8 301 l 8 579 l 139 579 l 139 810 l 417 810 m 463 255 l 463 116 l 1265 116 l 1296 -185 l 231 -185 q 139 -93 139 -185 l 139 255 l 463 255 z "},"괁":{"ha":1389,"x_min":0,"x_max":0,"o":""},"괂":{"ha":1389,"x_min":0,"x_max":0,"o":""},"괃":{"ha":1389,"x_min":0,"x_max":0,"o":""},"괄":{"ha":1389,"x_min":8,"x_max":1412,"o":"m 764 1157 q 856 1065 856 1157 q 833 764 856 926 l 548 787 q 566 910 560 855 l 31 910 l 15 1157 l 764 1157 m 1273 1181 l 1273 995 l 1412 995 l 1412 718 l 1273 718 l 1273 463 l 949 463 l 949 1181 l 1273 1181 m 417 856 l 417 705 q 903 748 724 716 l 903 509 q 619 482 795 494 q 262 471 443 471 l 208 471 l 8 471 l 8 702 l 139 702 l 139 856 l 417 856 m 1273 440 l 1273 23 l 463 23 l 463 -8 l 1273 -8 l 1289 -208 l 231 -208 q 139 -116 139 -208 l 139 208 l 949 208 l 949 239 l 139 239 l 139 440 l 1273 440 z "},"괅":{"ha":1389,"x_min":0,"x_max":0,"o":""},"괆":{"ha":1389,"x_min":8,"x_max":1412,"o":"m 764 1157 q 856 1065 856 1157 q 833 764 856 926 l 548 787 q 566 910 560 855 l 31 910 l 15 1157 l 764 1157 m 1273 1181 l 1273 995 l 1412 995 l 1412 718 l 1273 718 l 1273 463 l 949 463 l 949 1181 l 1273 1181 m 417 856 l 417 705 q 903 748 724 716 l 903 509 q 619 482 795 494 q 262 471 443 471 l 208 471 l 8 471 l 8 702 l 139 702 l 139 856 l 417 856 m 1273 440 l 1273 -201 l 733 -201 l 733 440 l 1273 440 m 1026 31 l 1026 208 l 980 208 l 980 31 l 1026 31 m 116 440 l 687 440 l 687 31 l 370 31 l 370 -6 q 687 8 549 -8 l 710 -177 q 208 -208 556 -208 q 116 -116 116 -208 l 116 201 l 432 201 l 432 231 l 116 231 l 116 440 z "},"괇":{"ha":1389,"x_min":0,"x_max":0,"o":""},"괈":{"ha":1389,"x_min":0,"x_max":0,"o":""},"괉":{"ha":1389,"x_min":0,"x_max":0,"o":""},"괊":{"ha":1389,"x_min":0,"x_max":0,"o":""},"괋":{"ha":1389,"x_min":0,"x_max":0,"o":""},"괌":{"ha":1389,"x_min":8,"x_max":1412,"o":"m 764 1157 q 856 1065 856 1157 q 833 694 856 869 l 532 718 q 554 903 546 796 l 31 903 l 15 1157 l 764 1157 m 1273 1181 l 1273 995 l 1412 995 l 1412 694 l 1273 694 l 1273 370 l 949 370 l 949 1181 l 1273 1181 m 417 833 l 417 630 q 688 646 559 634 q 903 671 818 657 l 903 417 q 598 384 790 398 q 208 370 406 370 l 8 370 l 8 625 l 139 625 l 139 833 l 417 833 m 1273 324 l 1273 -185 l 231 -185 q 139 -93 139 -185 l 139 324 l 1273 324 m 949 39 l 949 100 l 463 100 l 463 39 l 949 39 z "},"괍":{"ha":1389,"x_min":8,"x_max":1412,"o":"m 764 1157 q 856 1065 856 1157 q 833 694 856 869 l 532 718 q 554 903 546 796 l 31 903 l 15 1157 l 764 1157 m 1273 1181 l 1273 995 l 1412 995 l 1412 694 l 1273 694 l 1273 370 l 949 370 l 949 1181 l 1273 1181 m 417 833 l 417 630 q 688 646 559 634 q 903 671 818 657 l 903 417 q 598 384 790 398 q 208 370 406 370 l 8 370 l 8 625 l 139 625 l 139 833 l 417 833 m 463 324 l 463 262 l 949 262 l 949 324 l 1273 324 l 1273 -185 l 231 -185 q 139 -93 139 -185 l 139 324 l 463 324 m 949 15 l 949 62 l 463 62 l 463 15 l 949 15 z "},"괎":{"ha":1389,"x_min":0,"x_max":0,"o":""},"괏":{"ha":1389,"x_min":8,"x_max":1412,"o":"m 764 1157 q 856 1065 856 1157 q 850 847 856 965 q 833 648 844 730 l 532 671 q 554 880 546 752 l 39 880 l 8 1157 l 764 1157 m 1273 1181 l 1273 972 l 1412 972 l 1412 648 l 1273 648 l 1273 208 l 949 208 l 949 1181 l 1273 1181 m 417 810 l 417 583 q 903 625 716 594 l 903 355 q 603 316 795 332 q 208 301 410 301 l 8 301 l 8 579 l 139 579 l 139 810 l 417 810 m 872 278 l 872 255 q 1013 131 872 177 q 1366 54 1154 85 l 1181 -201 q 921 -137 1046 -176 q 696 -26 795 -97 q 208 -208 528 -151 l 23 46 q 372 127 227 77 q 517 255 517 177 l 517 278 l 872 278 z "},"괐":{"ha":1389,"x_min":0,"x_max":1435,"o":"m 764 1157 q 856 1065 856 1157 q 850 863 856 972 q 833 671 844 755 l 532 694 q 554 903 546 765 l 31 903 l 15 1157 l 764 1157 m 417 833 l 417 606 q 688 623 559 611 q 903 648 818 634 l 903 394 q 598 361 790 375 q 208 347 406 347 l 8 347 l 8 602 l 139 602 l 139 833 l 417 833 m 1273 1181 l 1273 972 l 1412 972 l 1412 648 l 1273 648 l 1273 347 l 949 347 l 949 1181 l 1273 1181 m 0 46 q 293 278 293 130 l 293 301 l 602 301 l 602 278 q 716 131 602 196 q 833 278 833 196 l 833 301 l 1142 301 l 1142 278 q 1435 46 1142 130 l 1227 -208 q 1089 -136 1151 -176 q 975 -39 1026 -96 q 718 -208 866 -145 q 586 -137 653 -181 q 463 -40 519 -94 q 208 -208 372 -137 l 0 46 z "},"광":{"ha":1389,"x_min":8,"x_max":1412,"o":"m 764 1157 q 856 1065 856 1157 q 833 694 856 869 l 532 718 q 554 903 546 796 l 31 903 l 15 1157 l 764 1157 m 1273 1181 l 1273 995 l 1412 995 l 1412 694 l 1273 694 l 1273 370 l 949 370 l 949 1181 l 1273 1181 m 417 833 l 417 630 q 688 646 559 634 q 903 671 818 657 l 903 417 q 598 384 790 398 q 208 370 406 370 l 8 370 l 8 625 l 139 625 l 139 833 l 417 833 m 694 -208 q 93 69 93 -208 q 694 347 93 347 q 1296 69 1296 347 q 694 -208 1296 -208 m 694 15 q 889 28 829 15 q 949 69 949 40 q 889 111 949 99 q 694 123 829 123 q 500 111 560 123 q 440 69 440 99 q 500 28 440 40 q 694 15 560 15 z "},"괒":{"ha":1389,"x_min":8,"x_max":1412,"o":"m 764 1157 q 856 1065 856 1157 q 833 694 856 869 l 532 718 q 554 903 546 796 l 31 903 l 15 1157 l 764 1157 m 1273 1181 l 1273 995 l 1412 995 l 1412 694 l 1273 694 l 1273 370 l 949 370 l 949 1181 l 1273 1181 m 417 833 l 417 630 q 688 646 559 634 q 903 671 818 657 l 903 417 q 598 384 790 398 q 208 370 406 370 l 8 370 l 8 625 l 139 625 l 139 833 l 417 833 m 31 0 q 270 41 150 12 q 461 108 390 69 l 147 108 l 147 324 l 1273 324 l 1273 108 l 961 108 q 1150 47 1031 74 q 1389 8 1270 20 l 1204 -201 q 956 -145 1094 -188 q 711 -35 818 -102 q 465 -150 606 -105 q 216 -208 324 -196 l 31 0 z "},"괓":{"ha":1389,"x_min":0,"x_max":0,"o":""},"괔":{"ha":1389,"x_min":0,"x_max":0,"o":""},"괕":{"ha":1389,"x_min":0,"x_max":0,"o":""},"괖":{"ha":1389,"x_min":0,"x_max":0,"o":""},"괗":{"ha":1389,"x_min":0,"x_max":0,"o":""},"괘":{"ha":1389,"x_min":8,"x_max":1343,"o":"m 625 1134 q 718 1042 718 1134 q 718 980 719 1011 q 718 918 718 949 l 718 856 q 694 324 718 569 l 417 340 q 449 833 448 573 l 39 833 l 8 1134 l 625 1134 m 370 648 l 370 239 q 725 278 606 253 l 725 -46 q 448 -80 622 -68 q 123 -93 275 -93 l 8 -93 l 8 231 l 123 231 l 139 231 l 139 648 l 370 648 m 1034 1181 l 1034 741 l 1080 741 l 1080 1181 l 1343 1181 l 1343 -185 l 1080 -185 l 1080 370 l 1034 370 l 1034 -185 l 772 -185 l 772 1181 l 1034 1181 z "},"괙":{"ha":1389,"x_min":0,"x_max":0,"o":""},"괚":{"ha":1389,"x_min":0,"x_max":0,"o":""},"괛":{"ha":1389,"x_min":0,"x_max":0,"o":""},"괜":{"ha":1389,"x_min":8,"x_max":1366,"o":"m 602 1157 q 694 1065 694 1157 q 688 843 694 960 q 671 648 682 725 l 394 671 q 415 880 407 738 l 39 880 l 8 1157 l 602 1157 m 1034 1181 l 1034 926 l 1080 926 l 1080 1181 l 1343 1181 l 1343 208 l 1080 208 l 1080 602 l 1034 602 l 1034 208 l 772 208 l 772 1181 l 1034 1181 m 347 833 l 347 585 q 725 625 582 596 l 725 340 q 465 311 622 323 q 185 301 307 299 l 8 301 l 8 579 l 116 579 l 116 833 l 347 833 m 486 255 l 486 116 l 1335 116 l 1366 -185 l 255 -185 q 162 -93 162 -185 l 162 255 l 486 255 z "},"괝":{"ha":1389,"x_min":0,"x_max":0,"o":""},"괞":{"ha":1389,"x_min":0,"x_max":0,"o":""},"괟":{"ha":1389,"x_min":0,"x_max":0,"o":""},"괠":{"ha":1389,"x_min":8,"x_max":1358,"o":"m 602 1157 q 694 1065 694 1157 q 671 764 694 915 l 417 787 q 437 926 431 853 l 31 926 l 15 1157 l 602 1157 m 1034 1181 l 1034 995 l 1080 995 l 1080 1181 l 1343 1181 l 1343 471 l 1080 471 l 1080 718 l 1034 718 l 1034 471 l 772 471 l 772 1181 l 1034 1181 m 347 856 l 347 705 q 725 733 571 713 l 725 509 q 471 482 627 492 q 185 471 316 472 l 8 471 l 8 702 l 116 702 l 116 856 l 347 856 m 1343 440 l 1343 23 l 509 23 l 509 -8 l 1343 -8 l 1358 -208 l 255 -208 q 162 -116 162 -208 l 162 208 l 995 208 l 995 239 l 162 239 l 162 440 l 1343 440 z "},"괡":{"ha":1389,"x_min":0,"x_max":0,"o":""},"괢":{"ha":1389,"x_min":8,"x_max":1343,"o":"m 602 1157 q 694 1065 694 1157 q 671 764 694 915 l 417 787 q 437 926 431 853 l 31 926 l 15 1157 l 602 1157 m 1034 1181 l 1034 995 l 1080 995 l 1080 1181 l 1343 1181 l 1343 471 l 1080 471 l 1080 718 l 1034 718 l 1034 471 l 772 471 l 772 1181 l 1034 1181 m 347 856 l 347 705 q 725 733 571 713 l 725 509 q 471 482 627 492 q 185 471 316 472 l 8 471 l 8 702 l 116 702 l 116 856 l 347 856 m 1343 440 l 1343 -201 l 779 -201 l 779 440 l 1343 440 m 1096 31 l 1096 208 l 1026 208 l 1026 31 l 1096 31 m 139 440 l 733 440 l 733 31 l 394 31 l 394 -6 q 733 8 596 -9 l 756 -177 q 231 -208 600 -208 q 139 -116 139 -208 l 139 201 l 478 201 l 478 231 l 139 231 l 139 440 z "},"괣":{"ha":1389,"x_min":0,"x_max":0,"o":""},"괤":{"ha":1389,"x_min":0,"x_max":0,"o":""},"괥":{"ha":1389,"x_min":0,"x_max":0,"o":""},"괦":{"ha":1389,"x_min":0,"x_max":0,"o":""},"괧":{"ha":1389,"x_min":0,"x_max":0,"o":""},"괨":{"ha":1389,"x_min":0,"x_max":0,"o":""},"괩":{"ha":1389,"x_min":8,"x_max":1343,"o":"m 602 1157 q 694 1065 694 1157 q 671 694 694 856 l 394 718 q 415 903 407 781 l 31 903 l 15 1157 l 602 1157 m 1034 1181 l 1034 995 l 1080 995 l 1080 1181 l 1343 1181 l 1343 370 l 1080 370 l 1080 694 l 1034 694 l 1034 370 l 772 370 l 772 1181 l 1034 1181 m 347 833 l 347 630 q 725 664 574 637 l 725 409 q 467 381 623 392 q 185 370 310 370 l 8 370 l 8 625 l 116 625 l 116 833 l 347 833 m 486 324 l 486 262 l 1019 262 l 1019 324 l 1343 324 l 1343 -185 l 255 -185 q 162 -93 162 -185 l 162 324 l 486 324 m 1019 15 l 1019 62 l 486 62 l 486 15 l 1019 15 z "},"괪":{"ha":1389,"x_min":0,"x_max":0,"o":""},"괫":{"ha":1389,"x_min":0,"x_max":0,"o":""},"괬":{"ha":1389,"x_min":8,"x_max":1505,"o":"m 602 1157 q 694 1065 694 1157 q 688 857 694 966 q 671 671 682 748 l 394 694 q 415 903 410 778 l 31 903 l 15 1157 l 602 1157 m 347 833 l 347 606 q 725 640 574 614 l 725 386 q 467 358 623 369 q 185 347 310 347 l 8 347 l 8 602 l 116 602 l 116 833 l 347 833 m 1034 1181 l 1034 972 l 1080 972 l 1080 1181 l 1343 1181 l 1343 347 l 1080 347 l 1080 648 l 1034 648 l 1034 347 l 772 347 l 772 1181 l 1034 1181 m 23 46 q 248 142 164 86 q 332 278 332 198 l 332 301 l 640 301 l 640 278 q 762 134 640 198 q 887 278 887 199 l 887 301 l 1196 301 l 1196 278 q 1280 142 1196 198 q 1505 46 1364 86 l 1296 -208 q 1153 -134 1218 -174 q 1034 -37 1088 -94 q 764 -208 923 -145 q 500 -37 608 -140 q 380 -136 446 -96 q 231 -208 313 -176 l 23 46 z "},"괭":{"ha":1389,"x_min":8,"x_max":1366,"o":"m 602 1157 q 694 1065 694 1157 q 671 694 694 856 l 394 718 q 415 903 407 781 l 31 903 l 15 1157 l 602 1157 m 1034 1181 l 1034 995 l 1080 995 l 1080 1181 l 1343 1181 l 1343 370 l 1080 370 l 1080 694 l 1034 694 l 1034 370 l 772 370 l 772 1181 l 1034 1181 m 347 833 l 347 630 q 725 664 574 637 l 725 409 q 467 381 623 392 q 185 370 310 370 l 8 370 l 8 625 l 116 625 l 116 833 l 347 833 m 741 -208 q 116 69 116 -208 q 741 347 116 347 q 1366 69 1366 347 q 741 -208 1366 -208 m 741 15 q 935 28 875 15 q 995 69 995 40 q 935 111 995 99 q 741 123 875 123 q 546 111 606 123 q 486 69 486 99 q 546 28 486 40 q 741 15 606 15 z "},"괮":{"ha":1389,"x_min":0,"x_max":0,"o":""},"괯":{"ha":1389,"x_min":0,"x_max":0,"o":""},"괰":{"ha":1389,"x_min":0,"x_max":0,"o":""},"괱":{"ha":1389,"x_min":0,"x_max":0,"o":""},"괲":{"ha":1389,"x_min":0,"x_max":0,"o":""},"괳":{"ha":1389,"x_min":0,"x_max":0,"o":""},"괴":{"ha":1389,"x_min":23,"x_max":1343,"o":"m 787 1134 q 880 1042 880 1134 q 868 651 880 838 q 833 347 856 465 l 532 370 q 576 833 569 625 l 62 833 l 31 1134 l 787 1134 m 463 671 l 463 238 q 949 278 798 253 l 949 -46 q 614 -79 841 -65 q 185 -93 387 -93 l 23 -93 l 23 231 l 162 231 l 162 671 l 463 671 m 1343 1181 l 1343 -185 l 995 -185 l 995 1181 l 1343 1181 z "},"괵":{"ha":1389,"x_min":23,"x_max":1343,"o":"m 787 1157 q 880 1065 880 1157 q 873 863 880 972 q 856 671 867 755 l 556 694 q 577 903 569 765 l 54 903 l 39 1157 l 787 1157 m 1343 1181 l 1343 347 l 995 347 l 995 1181 l 1343 1181 m 440 833 l 440 606 q 732 624 594 613 q 949 648 870 636 l 949 394 q 624 361 840 375 q 208 347 409 347 l 23 347 l 23 602 l 162 602 l 162 833 l 440 833 m 1343 -185 l 1019 -185 l 1019 46 l 139 46 l 139 301 l 1343 301 l 1343 -185 z "},"괶":{"ha":1389,"x_min":0,"x_max":0,"o":""},"괷":{"ha":1389,"x_min":0,"x_max":0,"o":""},"괸":{"ha":1389,"x_min":23,"x_max":1350,"o":"m 787 1157 q 880 1065 880 1157 q 873 847 880 965 q 856 648 867 730 l 556 671 q 577 880 569 752 l 62 880 l 31 1157 l 787 1157 m 1343 1181 l 1343 208 l 995 208 l 995 1181 l 1343 1181 m 440 810 l 440 583 q 728 601 590 590 q 949 625 867 613 l 949 355 q 629 317 844 333 q 208 301 414 301 l 23 301 l 23 579 l 162 579 l 162 810 l 440 810 m 486 255 l 486 116 l 1350 116 l 1350 -185 l 255 -185 q 162 -93 162 -185 l 162 255 l 486 255 z "},"괹":{"ha":1389,"x_min":0,"x_max":0,"o":""},"괺":{"ha":1389,"x_min":0,"x_max":0,"o":""},"괻":{"ha":1389,"x_min":0,"x_max":0,"o":""},"괼":{"ha":1389,"x_min":23,"x_max":1358,"o":"m 787 1157 q 880 1065 880 1157 q 856 764 880 926 l 571 787 q 590 910 583 855 l 54 910 l 39 1157 l 787 1157 m 1343 1181 l 1343 471 l 995 471 l 995 1181 l 1343 1181 m 440 856 l 440 707 q 949 748 787 719 l 949 509 q 647 482 844 494 q 262 471 451 471 l 208 471 l 23 471 l 23 702 l 162 702 l 162 856 l 440 856 m 1343 440 l 1343 23 l 509 23 l 509 -8 l 1343 -8 l 1358 -208 l 255 -208 q 162 -116 162 -208 l 162 208 l 972 208 l 972 239 l 162 239 l 162 440 l 1343 440 z "},"괽":{"ha":1389,"x_min":0,"x_max":0,"o":""},"괾":{"ha":1389,"x_min":0,"x_max":0,"o":""},"괿":{"ha":1389,"x_min":0,"x_max":0,"o":""},"굀":{"ha":1389,"x_min":0,"x_max":0,"o":""},"굁":{"ha":1389,"x_min":0,"x_max":0,"o":""},"굂":{"ha":1389,"x_min":0,"x_max":0,"o":""},"굃":{"ha":1389,"x_min":0,"x_max":0,"o":""},"굄":{"ha":1389,"x_min":23,"x_max":1343,"o":"m 787 1157 q 880 1065 880 1157 q 856 694 880 869 l 556 718 q 577 903 569 796 l 54 903 l 39 1157 l 787 1157 m 1343 1181 l 1343 370 l 995 370 l 995 1181 l 1343 1181 m 440 833 l 440 630 q 732 647 594 636 q 949 671 870 659 l 949 417 q 624 384 840 398 q 208 370 409 370 l 23 370 l 23 625 l 162 625 l 162 833 l 440 833 m 1343 324 l 1343 -185 l 255 -185 q 162 -93 162 -185 l 162 324 l 1343 324 m 995 39 l 995 100 l 509 100 l 509 39 l 995 39 z "},"굅":{"ha":1389,"x_min":23,"x_max":1343,"o":"m 787 1157 q 880 1065 880 1157 q 856 694 880 869 l 556 718 q 577 903 569 796 l 54 903 l 39 1157 l 787 1157 m 1343 1181 l 1343 370 l 995 370 l 995 1181 l 1343 1181 m 440 833 l 440 630 q 732 647 594 636 q 949 671 870 659 l 949 417 q 624 384 840 398 q 208 370 409 370 l 23 370 l 23 625 l 162 625 l 162 833 l 440 833 m 486 324 l 486 262 l 1019 262 l 1019 324 l 1343 324 l 1343 -185 l 255 -185 q 162 -93 162 -185 l 162 324 l 486 324 m 1019 15 l 1019 62 l 486 62 l 486 15 l 1019 15 z "},"굆":{"ha":1389,"x_min":0,"x_max":0,"o":""},"굇":{"ha":1389,"x_min":23,"x_max":1412,"o":"m 787 1157 q 880 1065 880 1157 q 873 847 880 965 q 856 648 867 730 l 556 671 q 577 880 569 752 l 62 880 l 31 1157 l 787 1157 m 1343 1181 l 1343 208 l 995 208 l 995 1181 l 1343 1181 m 440 810 l 440 583 q 728 601 590 590 q 949 625 867 613 l 949 355 q 629 317 844 333 q 208 301 414 301 l 23 301 l 23 579 l 162 579 l 162 810 l 440 810 m 918 278 l 918 255 q 1059 131 918 177 q 1412 54 1201 85 l 1227 -201 q 967 -137 1093 -176 q 742 -26 841 -97 q 255 -208 574 -151 l 69 46 q 418 127 273 77 q 563 255 563 177 l 563 278 l 918 278 z "},"굈":{"ha":1389,"x_min":0,"x_max":0,"o":""},"굉":{"ha":1389,"x_min":23,"x_max":1358,"o":"m 787 1157 q 880 1065 880 1157 q 856 694 880 869 l 556 718 q 577 903 569 796 l 54 903 l 39 1157 l 787 1157 m 1343 1181 l 1343 370 l 995 370 l 995 1181 l 1343 1181 m 440 833 l 440 630 q 732 647 594 636 q 949 671 870 659 l 949 417 q 624 384 840 398 q 208 370 409 370 l 23 370 l 23 625 l 162 625 l 162 833 l 440 833 m 748 -208 q 139 62 139 -208 q 748 332 139 332 q 1358 62 1358 332 q 748 -208 1358 -208 m 748 0 q 980 62 980 0 q 748 123 980 123 q 517 62 517 123 q 748 0 517 0 z "},"굊":{"ha":1389,"x_min":0,"x_max":0,"o":""},"굋":{"ha":1389,"x_min":0,"x_max":0,"o":""},"굌":{"ha":1389,"x_min":0,"x_max":0,"o":""},"굍":{"ha":1389,"x_min":0,"x_max":0,"o":""},"굎":{"ha":1389,"x_min":0,"x_max":0,"o":""},"굏":{"ha":1389,"x_min":0,"x_max":0,"o":""},"교":{"ha":1389,"x_min":46,"x_max":1358,"o":"m 1204 1111 q 1296 1019 1296 1111 q 1227 255 1285 602 l 880 301 q 951 787 938 568 l 131 787 l 100 1111 l 1204 1111 m 471 602 l 471 162 l 532 162 l 532 602 l 818 602 l 818 162 l 1327 162 l 1358 -139 l 46 -139 l 46 162 l 185 162 l 185 602 l 471 602 z "},"굑":{"ha":1389,"x_min":0,"x_max":0,"o":""},"굒":{"ha":1389,"x_min":0,"x_max":0,"o":""},"굓":{"ha":1389,"x_min":0,"x_max":0,"o":""},"굔":{"ha":1389,"x_min":23,"x_max":1366,"o":"m 1204 1157 q 1296 1065 1296 1157 q 1279 853 1289 938 q 1250 671 1270 769 l 903 694 q 932 856 921 779 l 131 856 l 100 1157 l 1204 1157 m 208 610 l 208 810 l 494 810 l 494 610 l 579 610 l 579 810 l 864 810 l 864 610 l 1366 610 l 1366 332 l 23 332 l 23 610 l 208 610 m 440 278 l 440 93 l 1265 93 l 1296 -185 l 208 -185 q 116 -93 116 -185 l 116 278 l 440 278 z "},"굕":{"ha":1389,"x_min":0,"x_max":0,"o":""},"굖":{"ha":1389,"x_min":0,"x_max":0,"o":""},"굗":{"ha":1389,"x_min":0,"x_max":0,"o":""},"굘":{"ha":1389,"x_min":23,"x_max":1366,"o":"m 1204 1181 q 1296 1088 1296 1181 q 1290 961 1296 1026 q 1265 764 1284 897 l 918 787 q 940 926 935 894 l 131 926 l 100 1181 l 1204 1181 m 208 733 l 208 880 l 494 880 l 494 733 l 579 733 l 579 880 l 864 880 l 864 733 l 1366 733 l 1366 494 l 23 494 l 23 733 l 208 733 m 1273 455 l 1273 31 l 440 31 l 440 0 l 1273 0 l 1289 -208 l 208 -208 q 116 -116 116 -208 l 116 216 l 949 216 l 949 247 l 116 247 l 116 455 l 1273 455 z "},"굙":{"ha":1389,"x_min":0,"x_max":0,"o":""},"굚":{"ha":1389,"x_min":0,"x_max":0,"o":""},"굛":{"ha":1389,"x_min":0,"x_max":0,"o":""},"굜":{"ha":1389,"x_min":0,"x_max":0,"o":""},"굝":{"ha":1389,"x_min":0,"x_max":0,"o":""},"굞":{"ha":1389,"x_min":0,"x_max":0,"o":""},"굟":{"ha":1389,"x_min":0,"x_max":0,"o":""},"굠":{"ha":1389,"x_min":23,"x_max":1366,"o":"m 1204 1157 q 1296 1065 1296 1157 q 1279 880 1289 958 q 1250 694 1270 801 l 903 718 q 938 903 927 819 l 131 903 l 100 1157 l 1204 1157 m 208 648 l 208 833 l 494 833 l 494 648 l 579 648 l 579 833 l 864 833 l 864 648 l 1366 648 l 1366 394 l 23 394 l 23 648 l 208 648 m 1273 340 l 1273 -185 l 208 -185 q 116 -93 116 -185 l 116 340 l 1273 340 m 972 54 l 972 100 l 417 100 l 417 54 l 972 54 z "},"굡":{"ha":1389,"x_min":23,"x_max":1366,"o":"m 1204 1157 q 1296 1065 1296 1157 q 1279 880 1289 958 q 1250 694 1270 801 l 903 718 q 938 903 927 819 l 131 903 l 100 1157 l 1204 1157 m 208 648 l 208 833 l 494 833 l 494 648 l 579 648 l 579 833 l 864 833 l 864 648 l 1366 648 l 1366 394 l 23 394 l 23 648 l 208 648 m 417 355 l 417 278 l 972 278 l 972 355 l 1273 355 l 1273 -185 l 208 -185 q 116 -93 116 -185 l 116 355 l 417 355 m 972 23 l 972 85 l 417 85 l 417 23 l 972 23 z "},"굢":{"ha":1389,"x_min":0,"x_max":0,"o":""},"굣":{"ha":1389,"x_min":23,"x_max":1366,"o":"m 1204 1157 q 1296 1065 1296 1157 q 1279 853 1289 938 q 1250 671 1270 769 l 903 694 q 932 856 921 779 l 131 856 l 100 1157 l 1204 1157 m 208 610 l 208 810 l 494 810 l 494 610 l 579 610 l 579 810 l 864 810 l 864 610 l 1366 610 l 1366 332 l 23 332 l 23 610 l 208 610 m 880 301 l 880 278 q 938 200 880 233 q 1081 144 997 167 q 1296 93 1165 120 l 1366 77 l 1181 -201 q 934 -143 1068 -188 q 696 -20 799 -97 q 456 -147 593 -99 q 208 -208 319 -196 l 23 69 q 248 111 136 82 q 434 184 360 140 q 509 278 509 227 l 509 301 l 880 301 z "},"굤":{"ha":1389,"x_min":0,"x_max":0,"o":""},"굥":{"ha":1389,"x_min":23,"x_max":1366,"o":"m 1204 1157 q 1296 1065 1296 1157 q 1279 880 1289 958 q 1250 694 1270 801 l 903 718 q 938 903 927 819 l 131 903 l 100 1157 l 1204 1157 m 208 648 l 208 833 l 494 833 l 494 648 l 579 648 l 579 833 l 864 833 l 864 648 l 1366 648 l 1366 394 l 23 394 l 23 648 l 208 648 m 694 -208 q 242 -137 392 -208 q 93 77 93 -66 q 242 292 93 221 q 694 363 392 363 q 1147 292 997 363 q 1296 77 1296 221 q 1147 -137 1296 -66 q 694 -208 997 -208 m 694 23 q 869 36 812 23 q 926 77 926 49 q 869 118 926 105 q 694 131 812 131 q 520 118 577 131 q 463 77 463 105 q 520 36 463 49 q 694 23 577 23 z "},"굦":{"ha":1389,"x_min":0,"x_max":0,"o":""},"굧":{"ha":1389,"x_min":0,"x_max":0,"o":""},"굨":{"ha":1389,"x_min":0,"x_max":0,"o":""},"굩":{"ha":1389,"x_min":0,"x_max":0,"o":""},"굪":{"ha":1389,"x_min":0,"x_max":0,"o":""},"굫":{"ha":1389,"x_min":0,"x_max":0,"o":""},"구":{"ha":1389,"x_min":46,"x_max":1343,"o":"m 1181 1157 q 1273 1065 1273 1157 q 1227 556 1262 745 l 880 579 q 901 722 894 664 q 910 856 909 781 l 131 856 l 100 1157 l 1181 1157 m 1343 509 l 1343 231 l 880 231 l 880 -185 l 509 -185 l 509 231 l 46 231 l 46 509 l 1343 509 z "},"국":{"ha":1389,"x_min":23,"x_max":1366,"o":"m 1204 1157 q 1296 1065 1296 1157 q 1279 880 1289 958 q 1250 694 1270 801 l 903 718 q 937 880 926 801 l 131 880 l 100 1157 l 1204 1157 m 1366 640 l 1366 386 l 880 386 l 880 301 l 1273 301 l 1273 -185 l 926 -185 l 926 23 l 116 23 l 116 301 l 509 301 l 509 386 l 23 386 l 23 640 l 1366 640 z "},"굮":{"ha":1389,"x_min":0,"x_max":0,"o":""},"굯":{"ha":1389,"x_min":0,"x_max":0,"o":""},"군":{"ha":1389,"x_min":23,"x_max":1366,"o":"m 1204 1157 q 1296 1065 1296 1157 q 1279 853 1289 938 q 1250 671 1270 769 l 903 694 q 932 856 921 779 l 131 856 l 100 1157 l 1204 1157 m 1366 625 l 1366 347 l 903 347 l 903 185 l 556 185 l 556 347 l 23 347 l 23 625 l 1366 625 m 440 278 l 440 93 l 1265 93 l 1296 -185 l 208 -185 q 116 -93 116 -185 l 116 278 l 440 278 z "},"굱":{"ha":1389,"x_min":0,"x_max":0,"o":""},"굲":{"ha":1389,"x_min":0,"x_max":0,"o":""},"굳":{"ha":1389,"x_min":23,"x_max":1366,"o":"m 1204 1157 q 1296 1065 1296 1157 q 1279 880 1289 958 q 1250 694 1270 801 l 903 718 q 938 903 927 819 l 131 903 l 100 1157 l 1204 1157 m 1366 664 l 1366 409 l 880 409 l 880 340 l 1273 340 l 1273 100 l 440 100 l 440 54 l 1273 54 l 1289 -185 l 208 -185 q 116 -93 116 -185 l 116 340 l 509 340 l 509 409 l 23 409 l 23 664 l 1366 664 z "},"굴":{"ha":1389,"x_min":23,"x_max":1366,"o":"m 1204 1181 q 1296 1088 1296 1181 q 1290 961 1296 1026 q 1265 764 1284 897 l 918 787 q 940 926 935 894 l 131 926 l 100 1181 l 1204 1181 m 1366 748 l 1366 509 l 880 509 l 880 455 l 1273 455 l 1273 31 l 440 31 l 440 0 l 1273 0 l 1289 -208 l 208 -208 q 116 -116 116 -208 l 116 216 l 949 216 l 949 247 l 116 247 l 116 455 l 509 455 l 509 509 l 23 509 l 23 748 l 1366 748 z "},"굵":{"ha":1389,"x_min":23,"x_max":1366,"o":"m 1204 1181 q 1296 1088 1296 1181 q 1290 961 1296 1026 q 1265 764 1284 897 l 918 787 q 940 926 935 894 l 131 926 l 100 1181 l 1204 1181 m 1366 748 l 1366 509 l 880 509 l 880 463 l 1273 463 l 1273 -208 l 949 -208 l 949 185 l 733 185 l 733 417 l 687 417 l 687 39 l 370 39 l 370 5 q 802 31 608 3 l 826 -170 q 563 -198 711 -190 q 208 -208 414 -207 q 116 -116 116 -208 l 116 216 l 432 216 l 432 247 l 116 247 l 116 463 l 509 463 l 509 509 l 23 509 l 23 748 l 1366 748 z "},"굶":{"ha":1389,"x_min":23,"x_max":1366,"o":"m 1204 1181 q 1296 1088 1296 1181 q 1290 961 1296 1026 q 1265 764 1284 897 l 918 787 q 940 926 935 894 l 131 926 l 100 1181 l 1204 1181 m 1366 748 l 1366 509 l 880 509 l 880 463 l 1273 463 l 1273 -201 l 733 -201 l 733 417 l 687 417 l 687 39 l 370 39 l 370 2 q 687 15 549 0 l 710 -177 q 208 -208 556 -208 q 116 -116 116 -208 l 116 216 l 432 216 l 432 247 l 116 247 l 116 463 l 509 463 l 509 509 l 23 509 l 23 748 l 1366 748 m 1026 31 l 1026 231 l 980 231 l 980 31 l 1026 31 z "},"굷":{"ha":1389,"x_min":0,"x_max":0,"o":""},"굸":{"ha":1389,"x_min":0,"x_max":0,"o":""},"굹":{"ha":1389,"x_min":0,"x_max":0,"o":""},"굺":{"ha":1389,"x_min":0,"x_max":0,"o":""},"굻":{"ha":1389,"x_min":23,"x_max":1366,"o":"m 1204 1181 q 1296 1088 1296 1181 q 1290 961 1296 1026 q 1265 764 1284 897 l 918 787 q 940 926 935 894 l 131 926 l 100 1181 l 1204 1181 m 1366 748 l 1366 509 l 880 509 l 880 417 l 687 417 l 687 39 l 370 39 l 370 2 q 687 15 549 0 l 710 -177 q 208 -208 556 -208 q 116 -116 116 -208 l 116 216 l 432 216 l 432 247 l 116 247 l 116 463 l 509 463 l 509 509 l 23 509 l 23 748 l 1366 748 m 1142 471 l 1142 409 l 1335 409 l 1335 208 l 718 208 l 718 409 l 910 409 l 910 471 l 1142 471 m 1026 -231 q 810 -177 887 -231 q 733 -23 733 -122 q 810 130 733 76 q 1026 185 887 185 q 1242 130 1165 185 q 1319 -23 1319 76 q 1242 -177 1319 -122 q 1026 -231 1165 -231 m 1026 -54 q 1079 -47 1062 -54 q 1096 -23 1096 -40 q 1079 1 1096 -6 q 1026 8 1062 8 q 974 1 991 8 q 957 -23 957 -6 q 974 -47 957 -40 q 1026 -54 991 -54 z "},"굼":{"ha":1389,"x_min":23,"x_max":1366,"o":"m 1204 1157 q 1296 1065 1296 1157 q 1279 880 1289 958 q 1250 694 1270 801 l 903 718 q 938 903 927 819 l 131 903 l 100 1157 l 1204 1157 m 1366 664 l 1366 409 l 880 409 l 880 340 l 1273 340 l 1273 -185 l 208 -185 q 116 -93 116 -185 l 116 340 l 509 340 l 509 409 l 23 409 l 23 664 l 1366 664 m 972 54 l 972 100 l 417 100 l 417 54 l 972 54 z "},"굽":{"ha":1389,"x_min":23,"x_max":1366,"o":"m 1204 1157 q 1296 1065 1296 1157 q 1279 880 1289 958 q 1250 694 1270 801 l 903 718 q 938 903 927 819 l 131 903 l 100 1157 l 1204 1157 m 1366 664 l 1366 409 l 880 409 l 880 301 l 509 301 l 509 409 l 23 409 l 23 664 l 1366 664 m 417 355 l 417 278 l 972 278 l 972 355 l 1273 355 l 1273 -185 l 208 -185 q 116 -93 116 -185 l 116 355 l 417 355 m 972 23 l 972 85 l 417 85 l 417 23 l 972 23 z "},"굾":{"ha":1389,"x_min":0,"x_max":0,"o":""},"굿":{"ha":1389,"x_min":23,"x_max":1366,"o":"m 1204 1157 q 1296 1065 1296 1157 q 1279 880 1289 958 q 1250 694 1270 801 l 903 718 q 938 903 927 819 l 131 903 l 100 1157 l 1204 1157 m 1366 664 l 1366 409 l 880 409 l 880 332 l 509 332 l 509 409 l 23 409 l 23 664 l 1366 664 m 880 301 l 880 278 q 938 200 880 233 q 1081 144 997 167 q 1296 93 1165 120 l 1366 77 l 1181 -201 q 934 -143 1068 -188 q 696 -20 799 -97 q 456 -147 593 -99 q 208 -208 319 -196 l 23 69 q 248 111 136 82 q 434 184 360 140 q 509 278 509 227 l 509 301 l 880 301 z "},"궀":{"ha":1389,"x_min":0,"x_max":0,"o":""},"궁":{"ha":1389,"x_min":23,"x_max":1366,"o":"m 1204 1157 q 1296 1065 1296 1157 q 1279 880 1289 958 q 1250 694 1270 801 l 903 718 q 938 903 927 819 l 131 903 l 100 1157 l 1204 1157 m 1366 664 l 1366 409 l 880 409 l 880 355 q 1193 266 1090 335 q 1296 77 1296 198 q 1147 -137 1296 -66 q 694 -208 997 -208 q 242 -137 392 -208 q 93 77 93 -66 q 196 266 93 198 q 509 355 299 335 l 509 409 l 23 409 l 23 664 l 1366 664 m 694 23 q 869 36 812 23 q 926 77 926 49 q 869 118 926 105 q 694 131 812 131 q 520 118 577 131 q 463 77 463 105 q 520 36 463 49 q 694 23 577 23 z "},"궂":{"ha":1389,"x_min":23,"x_max":1366,"o":"m 1204 1157 q 1296 1065 1296 1157 q 1279 880 1289 958 q 1250 694 1270 801 l 903 718 q 938 903 927 819 l 131 903 l 100 1157 l 1204 1157 m 1366 671 l 1366 440 l 880 440 l 880 370 l 509 370 l 509 440 l 23 440 l 23 671 l 1366 671 m 23 0 q 298 44 179 17 q 475 116 417 71 l 116 116 l 116 347 l 1273 347 l 1273 116 l 914 116 q 1090 49 971 74 q 1366 8 1210 25 l 1181 -201 q 927 -153 1057 -187 q 696 -57 798 -119 q 462 -159 596 -122 q 208 -208 329 -196 l 23 0 z "},"궃":{"ha":1389,"x_min":23,"x_max":1366,"o":"m 1204 1181 q 1296 1088 1296 1181 q 1290 961 1296 1026 q 1265 764 1284 897 l 918 787 q 940 926 935 894 l 131 926 l 100 1181 l 1204 1181 m 1366 748 l 1366 532 l 880 532 l 880 448 l 509 448 l 509 532 l 23 532 l 23 748 l 1366 748 m 872 417 l 872 340 l 1273 340 l 1273 123 l 914 123 q 1090 57 971 82 q 1366 15 1210 32 l 1181 -201 q 930 -151 1062 -187 q 698 -54 798 -116 q 462 -157 597 -119 q 208 -208 327 -196 l 23 8 q 298 52 179 25 q 475 123 417 79 l 116 123 l 116 340 l 517 340 l 517 417 l 872 417 z "},"궄":{"ha":1389,"x_min":0,"x_max":0,"o":""},"궅":{"ha":1389,"x_min":0,"x_max":0,"o":""},"궆":{"ha":1389,"x_min":0,"x_max":0,"o":""},"궇":{"ha":1389,"x_min":0,"x_max":0,"o":""},"궈":{"ha":1389,"x_min":23,"x_max":1343,"o":"m 787 1157 q 880 1065 880 1157 q 833 625 869 863 l 509 640 q 548 856 539 782 l 62 856 l 31 1157 l 787 1157 m 995 231 l 995 1181 l 1343 1181 l 1343 -185 l 995 -185 l 995 -46 l 671 -46 l 671 231 l 995 231 m 162 556 q 605 570 367 556 q 949 602 843 585 l 949 301 q 619 270 832 282 l 579 -185 l 255 -185 l 293 256 l 162 255 l 23 255 l 23 556 l 162 556 z "},"궉":{"ha":1389,"x_min":23,"x_max":1343,"o":"m 787 1157 q 880 1065 880 1157 q 850 806 869 917 l 949 818 l 949 602 q 599 569 850 585 l 579 301 l 278 301 l 296 557 l 162 556 l 23 556 l 23 772 l 162 772 q 546 782 326 772 q 571 903 562 833 l 54 903 l 39 1157 l 787 1157 m 1343 1181 l 1343 301 l 995 301 l 995 347 l 671 347 l 671 532 l 995 532 l 995 1181 l 1343 1181 m 1343 -185 l 1019 -185 l 1019 23 l 139 23 l 139 270 l 1343 270 l 1343 -185 z "},"궊":{"ha":1389,"x_min":0,"x_max":0,"o":""},"궋":{"ha":1389,"x_min":0,"x_max":0,"o":""},"권":{"ha":1389,"x_min":23,"x_max":1366,"o":"m 787 1157 q 880 1065 880 1157 q 852 782 872 915 q 949 795 931 792 l 949 556 q 594 520 829 534 l 579 301 l 278 301 l 293 505 l 162 502 l 23 502 l 23 748 l 162 748 q 552 759 329 748 q 574 903 566 824 l 62 903 l 31 1157 l 787 1157 m 1343 1181 l 1343 162 l 995 162 l 995 255 l 671 255 l 671 486 l 995 486 l 995 1181 l 1343 1181 m 486 255 l 486 116 l 1335 116 l 1366 -185 l 255 -185 q 162 -93 162 -185 l 162 255 l 486 255 z "},"궍":{"ha":1389,"x_min":0,"x_max":0,"o":""},"궎":{"ha":1389,"x_min":0,"x_max":0,"o":""},"궏":{"ha":1389,"x_min":0,"x_max":0,"o":""},"궐":{"ha":1389,"x_min":23,"x_max":1358,"o":"m 787 1157 q 880 1065 880 1157 q 855 844 872 958 q 949 856 931 853 l 949 656 q 596 627 833 639 l 579 401 l 278 401 l 293 617 l 162 617 l 23 617 l 23 810 l 162 810 q 556 823 343 810 q 576 949 568 872 l 54 949 l 39 1157 l 787 1157 m 995 602 l 995 1181 l 1343 1181 l 1343 401 l 995 401 l 995 432 l 671 432 l 671 602 l 995 602 m 1343 370 l 1343 0 l 509 0 l 509 -31 l 1343 -31 l 1358 -208 l 255 -208 q 162 -116 162 -208 l 162 162 l 972 162 l 972 193 l 162 193 l 162 370 l 1343 370 z "},"궑":{"ha":1389,"x_min":0,"x_max":0,"o":""},"궒":{"ha":1389,"x_min":0,"x_max":0,"o":""},"궓":{"ha":1389,"x_min":0,"x_max":0,"o":""},"궔":{"ha":1389,"x_min":0,"x_max":0,"o":""},"궕":{"ha":1389,"x_min":0,"x_max":0,"o":""},"궖":{"ha":1389,"x_min":0,"x_max":0,"o":""},"궗":{"ha":1389,"x_min":0,"x_max":0,"o":""},"궘":{"ha":1389,"x_min":0,"x_max":0,"o":""},"궙":{"ha":1389,"x_min":0,"x_max":0,"o":""},"궚":{"ha":1389,"x_min":0,"x_max":0,"o":""},"궛":{"ha":1389,"x_min":0,"x_max":0,"o":""},"궜":{"ha":1389,"x_min":23,"x_max":1505,"o":"m 787 1157 q 880 1065 880 1157 q 850 806 869 917 l 949 818 l 949 602 q 599 569 850 585 l 579 301 l 278 301 l 296 557 l 162 556 l 23 556 l 23 772 l 162 772 q 546 782 326 772 q 571 903 562 833 l 54 903 l 39 1157 l 787 1157 m 1343 1181 l 1343 301 l 995 301 l 995 347 l 671 347 l 671 532 l 995 532 l 995 1181 l 1343 1181 m 23 46 q 248 135 164 86 q 332 247 332 184 l 332 270 l 640 270 l 640 247 q 762 127 640 182 q 887 247 887 184 l 887 270 l 1196 270 l 1196 247 q 1280 135 1196 184 q 1505 46 1364 86 l 1296 -208 q 1145 -136 1207 -170 q 1031 -51 1083 -102 q 764 -208 929 -140 q 503 -54 602 -139 q 387 -138 451 -105 q 231 -208 324 -171 l 23 46 z "},"궝":{"ha":1389,"x_min":23,"x_max":1366,"o":"m 787 1157 q 880 1065 880 1157 q 853 806 872 932 q 949 818 934 815 l 949 602 q 596 569 850 585 l 579 340 l 278 340 l 293 557 l 162 556 l 23 556 l 23 772 l 162 772 q 552 782 329 772 q 574 926 566 840 l 54 926 l 39 1157 l 787 1157 m 1343 1181 l 1343 340 l 995 340 l 995 378 l 671 378 l 671 563 l 995 563 l 995 1181 l 1343 1181 m 741 -208 q 266 -143 417 -208 q 116 62 116 -77 q 266 266 116 201 q 741 332 417 332 q 1215 266 1065 332 q 1366 62 1366 201 q 1215 -143 1366 -77 q 741 -208 1065 -208 m 741 8 q 952 20 886 8 q 1019 62 1019 32 q 952 103 1019 91 q 741 116 886 116 q 529 103 596 116 q 463 62 463 91 q 529 20 463 32 q 741 8 596 8 z "},"궞":{"ha":1389,"x_min":0,"x_max":0,"o":""},"궟":{"ha":1389,"x_min":0,"x_max":0,"o":""},"궠":{"ha":1389,"x_min":0,"x_max":0,"o":""},"궡":{"ha":1389,"x_min":0,"x_max":0,"o":""},"궢":{"ha":1389,"x_min":0,"x_max":0,"o":""},"궣":{"ha":1389,"x_min":0,"x_max":0,"o":""},"궤":{"ha":1389,"x_min":8,"x_max":1343,"o":"m 602 1157 q 694 1065 694 1157 q 648 625 681 812 l 324 640 q 367 880 356 781 l 39 880 l 8 1157 l 602 1157 m 772 231 l 772 1181 l 1034 1181 l 1034 -185 l 772 -185 l 772 -46 l 556 -46 l 556 231 l 772 231 m 123 556 q 444 568 275 556 q 718 602 614 580 l 718 301 q 503 272 639 284 l 463 -185 l 162 -185 l 201 255 l 123 255 l 8 255 l 8 556 l 123 556 m 1343 1181 l 1343 -185 l 1080 -185 l 1080 1181 l 1343 1181 z "},"궥":{"ha":1389,"x_min":0,"x_max":0,"o":""},"궦":{"ha":1389,"x_min":0,"x_max":0,"o":""},"궧":{"ha":1389,"x_min":0,"x_max":0,"o":""},"궨":{"ha":1389,"x_min":0,"x_max":0,"o":""},"궩":{"ha":1389,"x_min":0,"x_max":0,"o":""},"궪":{"ha":1389,"x_min":0,"x_max":0,"o":""},"궫":{"ha":1389,"x_min":0,"x_max":0,"o":""},"궬":{"ha":1389,"x_min":0,"x_max":0,"o":""},"궭":{"ha":1389,"x_min":0,"x_max":0,"o":""},"궮":{"ha":1389,"x_min":0,"x_max":0,"o":""},"궯":{"ha":1389,"x_min":0,"x_max":0,"o":""},"궰":{"ha":1389,"x_min":0,"x_max":0,"o":""},"궱":{"ha":1389,"x_min":0,"x_max":0,"o":""},"궲":{"ha":1389,"x_min":0,"x_max":0,"o":""},"궳":{"ha":1389,"x_min":0,"x_max":0,"o":""},"궴":{"ha":1389,"x_min":0,"x_max":0,"o":""},"궵":{"ha":1389,"x_min":0,"x_max":0,"o":""},"궶":{"ha":1389,"x_min":0,"x_max":0,"o":""},"궷":{"ha":1389,"x_min":15,"x_max":1412,"o":"m 602 1157 q 694 1065 694 1157 q 668 807 687 929 l 725 818 l 725 602 q 498 571 634 583 l 463 255 l 162 255 l 196 556 l 139 556 l 23 556 l 23 772 l 139 772 q 363 778 258 772 q 386 903 377 836 l 31 903 l 15 1157 l 602 1157 m 1343 1181 l 1343 231 l 1080 231 l 1080 1181 l 1343 1181 m 1034 1181 l 1034 309 l 772 309 l 772 340 l 556 340 l 556 540 l 772 540 l 772 1181 l 1034 1181 m 918 278 l 918 255 q 1059 131 918 177 q 1412 54 1201 85 l 1227 -201 q 967 -137 1093 -176 q 742 -26 841 -97 q 255 -208 574 -151 l 69 46 q 418 127 273 77 q 563 255 563 177 l 563 278 l 918 278 z "},"궸":{"ha":1389,"x_min":15,"x_max":1505,"o":"m 602 1157 q 694 1065 694 1157 q 668 807 687 929 l 725 818 l 725 602 q 497 571 633 583 l 463 301 l 162 301 l 194 556 l 139 556 l 23 556 l 23 772 l 139 772 q 363 778 258 772 q 386 903 377 836 l 31 903 l 15 1157 l 602 1157 m 1343 1181 l 1343 301 l 1080 301 l 1080 1181 l 1343 1181 m 1034 1181 l 1034 301 l 772 301 l 772 340 l 556 340 l 556 540 l 772 540 l 772 1181 l 1034 1181 m 23 46 q 248 135 164 86 q 332 247 332 184 l 332 270 l 640 270 l 640 247 q 762 127 640 182 q 887 247 887 184 l 887 270 l 1196 270 l 1196 247 q 1280 135 1196 184 q 1505 46 1364 86 l 1296 -208 q 1145 -136 1207 -170 q 1031 -51 1083 -102 q 764 -208 929 -140 q 503 -54 602 -139 q 387 -138 451 -105 q 231 -208 324 -171 l 23 46 z "},"궹":{"ha":1389,"x_min":0,"x_max":0,"o":""},"궺":{"ha":1389,"x_min":0,"x_max":0,"o":""},"궻":{"ha":1389,"x_min":0,"x_max":0,"o":""},"궼":{"ha":1389,"x_min":0,"x_max":0,"o":""},"궽":{"ha":1389,"x_min":0,"x_max":0,"o":""},"궾":{"ha":1389,"x_min":0,"x_max":0,"o":""},"궿":{"ha":1389,"x_min":0,"x_max":0,"o":""},"귀":{"ha":1389,"x_min":23,"x_max":1343,"o":"m 787 1157 q 880 1065 880 1157 q 833 625 869 863 l 509 640 q 548 856 539 782 l 62 856 l 31 1157 l 787 1157 m 162 532 q 605 547 367 532 q 949 579 843 562 l 949 278 q 639 248 846 261 l 602 -185 l 278 -185 l 315 233 l 162 231 l 23 231 l 23 532 l 162 532 m 1343 1181 l 1343 -185 l 995 -185 l 995 1181 l 1343 1181 z "},"귁":{"ha":1389,"x_min":23,"x_max":1343,"o":"m 787 1157 q 880 1065 880 1157 q 853 772 872 910 q 949 787 903 778 l 949 540 q 639 505 841 519 l 625 324 l 324 324 l 336 489 l 162 486 l 23 486 l 23 733 l 162 733 q 554 745 347 733 q 576 903 569 819 l 54 903 l 39 1157 l 787 1157 m 1343 1181 l 1343 324 l 995 324 l 995 1181 l 1343 1181 m 1343 -185 l 1019 -185 l 1019 23 l 139 23 l 139 278 l 1343 278 l 1343 -185 z "},"귂":{"ha":1389,"x_min":0,"x_max":0,"o":""},"귃":{"ha":1389,"x_min":0,"x_max":0,"o":""},"귄":{"ha":1389,"x_min":23,"x_max":1366,"o":"m 787 1157 q 880 1065 880 1157 q 850 770 867 890 q 949 787 927 782 l 949 509 q 637 472 844 489 l 625 301 l 324 301 l 335 457 l 162 455 l 23 455 l 23 725 l 162 725 q 548 741 332 725 q 574 903 563 798 l 54 903 l 39 1157 l 787 1157 m 1343 1181 l 1343 162 l 995 162 l 995 1181 l 1343 1181 m 486 255 l 486 116 l 1335 116 l 1366 -185 l 255 -185 q 162 -93 162 -185 l 162 255 l 486 255 z "},"귅":{"ha":1389,"x_min":0,"x_max":0,"o":""},"귆":{"ha":1389,"x_min":0,"x_max":0,"o":""},"귇":{"ha":1389,"x_min":0,"x_max":0,"o":""},"귈":{"ha":1389,"x_min":23,"x_max":1358,"o":"m 787 1157 q 880 1065 880 1157 q 856 850 872 946 l 949 864 l 949 625 q 636 594 855 610 l 625 448 l 324 448 l 333 580 l 162 579 l 23 579 l 23 810 l 162 810 q 556 824 356 810 q 576 949 568 873 l 54 949 l 39 1157 l 787 1157 m 1343 1181 l 1343 448 l 995 448 l 995 1181 l 1343 1181 m 1343 417 l 1343 15 l 509 15 l 509 -15 l 1343 -15 l 1358 -208 l 255 -208 q 162 -116 162 -208 l 162 193 l 972 193 l 972 224 l 162 224 l 162 417 l 1343 417 z "},"귉":{"ha":1389,"x_min":0,"x_max":0,"o":""},"귊":{"ha":1389,"x_min":0,"x_max":0,"o":""},"귋":{"ha":1389,"x_min":0,"x_max":0,"o":""},"귌":{"ha":1389,"x_min":0,"x_max":0,"o":""},"귍":{"ha":1389,"x_min":0,"x_max":0,"o":""},"귎":{"ha":1389,"x_min":0,"x_max":0,"o":""},"귏":{"ha":1389,"x_min":0,"x_max":0,"o":""},"귐":{"ha":1389,"x_min":23,"x_max":1343,"o":"m 787 1157 q 880 1065 880 1157 q 853 779 872 918 q 949 795 903 785 l 949 548 q 636 512 841 526 l 625 355 l 324 355 l 335 497 l 162 494 l 23 494 l 23 741 l 162 741 q 554 753 347 741 q 576 926 571 832 l 54 926 l 39 1157 l 787 1157 m 1343 1181 l 1343 355 l 995 355 l 995 1181 l 1343 1181 m 1343 324 l 1343 -185 l 255 -185 q 162 -93 162 -185 l 162 324 l 1343 324 m 1019 39 l 1019 100 l 486 100 l 486 39 l 1019 39 z "},"귑":{"ha":1389,"x_min":23,"x_max":1343,"o":"m 787 1157 q 880 1065 880 1157 q 853 779 872 918 q 949 795 903 785 l 949 548 q 636 512 841 526 l 625 355 l 324 355 l 335 497 l 162 494 l 23 494 l 23 741 l 162 741 q 554 753 347 741 q 576 926 571 832 l 54 926 l 39 1157 l 787 1157 m 1343 1181 l 1343 355 l 995 355 l 995 1181 l 1343 1181 m 486 324 l 486 262 l 1019 262 l 1019 324 l 1343 324 l 1343 -185 l 255 -185 q 162 -93 162 -185 l 162 324 l 486 324 m 1019 15 l 1019 62 l 486 62 l 486 15 l 1019 15 z "},"귒":{"ha":1389,"x_min":0,"x_max":0,"o":""},"귓":{"ha":1389,"x_min":23,"x_max":1412,"o":"m 787 1157 q 880 1065 880 1157 q 853 772 872 910 q 949 787 903 778 l 949 540 q 525 497 826 515 l 509 278 l 208 278 l 224 486 l 162 486 l 23 486 l 23 733 l 162 733 q 554 745 347 733 q 576 903 569 819 l 54 903 l 39 1157 l 787 1157 m 1343 1188 l 1343 224 l 995 224 l 995 1188 l 1343 1188 m 918 324 l 918 278 q 1069 140 918 199 q 1412 54 1221 82 l 1227 -201 q 973 -132 1103 -177 q 742 -11 843 -86 q 509 -138 642 -90 q 255 -208 377 -187 l 69 46 q 410 137 256 74 q 563 278 563 199 l 563 324 l 918 324 z "},"귔":{"ha":1389,"x_min":0,"x_max":0,"o":""},"귕":{"ha":1389,"x_min":23,"x_max":1366,"o":"m 787 1157 q 880 1065 880 1157 q 853 779 872 918 q 949 795 903 785 l 949 548 q 636 512 841 526 l 625 355 l 324 355 l 335 497 l 162 494 l 23 494 l 23 741 l 162 741 q 554 753 347 741 q 576 926 571 832 l 54 926 l 39 1157 l 787 1157 m 1343 1181 l 1343 355 l 995 355 l 995 1181 l 1343 1181 m 741 -208 q 266 -142 417 -208 q 116 69 116 -76 q 266 281 116 215 q 741 347 417 347 q 1215 281 1065 347 q 1366 69 1366 215 q 1215 -142 1366 -76 q 741 -208 1065 -208 m 741 15 q 952 28 886 15 q 1019 69 1019 40 q 952 111 1019 99 q 741 123 886 123 q 529 111 596 123 q 463 69 463 99 q 529 28 463 40 q 741 15 596 15 z "},"귖":{"ha":1389,"x_min":0,"x_max":0,"o":""},"귗":{"ha":1389,"x_min":0,"x_max":0,"o":""},"귘":{"ha":1389,"x_min":0,"x_max":0,"o":""},"귙":{"ha":1389,"x_min":0,"x_max":0,"o":""},"귚":{"ha":1389,"x_min":0,"x_max":0,"o":""},"귛":{"ha":1389,"x_min":0,"x_max":0,"o":""},"규":{"ha":1389,"x_min":46,"x_max":1343,"o":"m 1181 1157 q 1273 1065 1273 1157 q 1227 556 1262 745 l 880 579 q 901 722 894 664 q 910 856 909 781 l 131 856 l 100 1157 l 1181 1157 m 1343 509 l 1343 231 l 1111 231 l 1111 -185 l 764 -185 l 764 231 l 625 231 l 625 -185 l 278 -185 l 278 231 l 46 231 l 46 509 l 1343 509 z "},"귝":{"ha":1389,"x_min":0,"x_max":0,"o":""},"귞":{"ha":1389,"x_min":0,"x_max":0,"o":""},"귟":{"ha":1389,"x_min":0,"x_max":0,"o":""},"균":{"ha":1389,"x_min":23,"x_max":1366,"o":"m 1204 1157 q 1296 1065 1296 1157 q 1279 853 1289 938 q 1250 671 1270 769 l 903 694 q 932 856 921 779 l 131 856 l 100 1157 l 1204 1157 m 1366 625 l 1366 347 l 1204 347 l 1204 185 l 880 185 l 880 347 l 810 347 l 810 185 l 486 185 l 486 347 l 23 347 l 23 625 l 1366 625 m 440 278 l 440 93 l 1265 93 l 1296 -185 l 208 -185 q 116 -93 116 -185 l 116 278 l 440 278 z "},"귡":{"ha":1389,"x_min":0,"x_max":0,"o":""},"귢":{"ha":1389,"x_min":0,"x_max":0,"o":""},"귣":{"ha":1389,"x_min":0,"x_max":0,"o":""},"귤":{"ha":1389,"x_min":23,"x_max":1366,"o":"m 1204 1181 q 1296 1088 1296 1181 q 1290 961 1296 1026 q 1265 764 1284 897 l 918 787 q 940 926 935 894 l 131 926 l 100 1181 l 1204 1181 m 1366 748 l 1366 509 l 1134 509 l 1134 455 l 1273 455 l 1273 31 l 440 31 l 440 0 l 1273 0 l 1289 -208 l 208 -208 q 116 -116 116 -208 l 116 216 l 949 216 l 949 247 l 116 247 l 116 455 l 255 455 l 255 509 l 23 509 l 23 748 l 1366 748 m 810 455 l 810 509 l 579 509 l 579 455 l 810 455 z "},"귥":{"ha":1389,"x_min":0,"x_max":0,"o":""},"귦":{"ha":1389,"x_min":0,"x_max":0,"o":""},"귧":{"ha":1389,"x_min":0,"x_max":0,"o":""},"귨":{"ha":1389,"x_min":0,"x_max":0,"o":""},"귩":{"ha":1389,"x_min":0,"x_max":0,"o":""},"귪":{"ha":1389,"x_min":0,"x_max":0,"o":""},"귫":{"ha":1389,"x_min":0,"x_max":0,"o":""},"귬":{"ha":1389,"x_min":23,"x_max":1366,"o":"m 1204 1157 q 1296 1065 1296 1157 q 1279 880 1289 958 q 1250 694 1270 801 l 903 718 q 938 903 927 819 l 131 903 l 100 1157 l 1204 1157 m 1366 664 l 1366 409 l 1088 409 l 1088 340 l 1273 340 l 1273 -185 l 208 -185 q 116 -93 116 -185 l 116 340 l 301 340 l 301 409 l 23 409 l 23 664 l 1366 664 m 972 54 l 972 100 l 417 100 l 417 54 l 972 54 m 764 340 l 764 409 l 625 409 l 625 340 l 764 340 z "},"귭":{"ha":1389,"x_min":23,"x_max":1366,"o":"m 1204 1157 q 1296 1065 1296 1157 q 1279 880 1289 958 q 1250 694 1270 801 l 903 718 q 938 903 927 819 l 131 903 l 100 1157 l 1204 1157 m 1366 664 l 1366 409 l 1088 409 l 1088 355 l 1273 355 l 1273 -185 l 208 -185 q 116 -93 116 -185 l 116 355 l 301 355 l 301 409 l 23 409 l 23 664 l 1366 664 m 972 23 l 972 85 l 417 85 l 417 23 l 972 23 m 972 278 l 972 301 l 764 301 l 764 409 l 625 409 l 625 301 l 417 301 l 417 278 l 972 278 z "},"귮":{"ha":1389,"x_min":0,"x_max":0,"o":""},"귯":{"ha":1389,"x_min":0,"x_max":0,"o":""},"귰":{"ha":1389,"x_min":0,"x_max":0,"o":""},"귱":{"ha":1389,"x_min":0,"x_max":0,"o":""},"귲":{"ha":1389,"x_min":0,"x_max":0,"o":""},"귳":{"ha":1389,"x_min":0,"x_max":0,"o":""},"귴":{"ha":1389,"x_min":0,"x_max":0,"o":""},"귵":{"ha":1389,"x_min":0,"x_max":0,"o":""},"귶":{"ha":1389,"x_min":0,"x_max":0,"o":""},"귷":{"ha":1389,"x_min":0,"x_max":0,"o":""},"그":{"ha":1389,"x_min":46,"x_max":1358,"o":"m 1204 1111 q 1296 1019 1296 1111 q 1227 255 1285 602 l 880 301 q 951 787 938 568 l 131 787 l 100 1111 l 1204 1111 m 1327 185 l 1358 -139 l 46 -139 l 46 185 l 1327 185 z "},"극":{"ha":1389,"x_min":23,"x_max":1366,"o":"m 1204 1157 q 1296 1065 1296 1157 q 1279 880 1289 958 q 1250 694 1270 801 l 903 718 q 937 880 926 801 l 131 880 l 100 1157 l 1204 1157 m 1366 633 l 1366 378 l 23 378 l 23 633 l 1366 633 m 1273 -185 l 926 -185 l 926 23 l 116 23 l 116 301 l 1273 301 l 1273 -185 z "},"귺":{"ha":1389,"x_min":0,"x_max":0,"o":""},"귻":{"ha":1389,"x_min":0,"x_max":0,"o":""},"근":{"ha":1389,"x_min":23,"x_max":1366,"o":"m 1204 1157 q 1296 1065 1296 1157 q 1279 853 1289 938 q 1250 671 1270 769 l 903 694 q 932 856 921 779 l 131 856 l 100 1157 l 1204 1157 m 1366 617 l 1366 340 l 23 340 l 23 617 l 1366 617 m 440 278 l 440 93 l 1265 93 l 1296 -185 l 208 -185 q 116 -93 116 -185 l 116 278 l 440 278 z "},"귽":{"ha":1389,"x_min":0,"x_max":0,"o":""},"귾":{"ha":1389,"x_min":0,"x_max":0,"o":""},"귿":{"ha":1389,"x_min":23,"x_max":1366,"o":"m 1204 1157 q 1296 1065 1296 1157 q 1279 880 1289 958 q 1250 694 1270 801 l 903 718 q 938 903 927 819 l 131 903 l 100 1157 l 1204 1157 m 1366 656 l 1366 401 l 23 401 l 23 656 l 1366 656 m 1273 340 l 1273 100 l 440 100 l 440 54 l 1273 54 l 1289 -185 l 208 -185 q 116 -93 116 -185 l 116 340 l 1273 340 z "},"글":{"ha":1389,"x_min":23,"x_max":1366,"o":"m 1204 1181 q 1296 1088 1296 1181 q 1290 961 1296 1026 q 1265 764 1284 897 l 918 787 q 940 926 935 894 l 131 926 l 100 1181 l 1204 1181 m 1366 741 l 1366 502 l 23 502 l 23 741 l 1366 741 m 1273 455 l 1273 31 l 440 31 l 440 0 l 1273 0 l 1289 -208 l 208 -208 q 116 -116 116 -208 l 116 216 l 949 216 l 949 247 l 116 247 l 116 455 l 1273 455 z "},"긁":{"ha":1389,"x_min":23,"x_max":1366,"o":"m 1204 1181 q 1296 1088 1296 1181 q 1290 961 1296 1026 q 1265 764 1284 897 l 918 787 q 940 926 935 894 l 131 926 l 100 1181 l 1204 1181 m 1366 741 l 1366 502 l 23 502 l 23 741 l 1366 741 m 116 463 l 687 463 l 687 39 l 370 39 l 370 5 q 802 31 608 3 l 826 -170 q 563 -198 711 -190 q 208 -208 414 -207 q 116 -116 116 -208 l 116 216 l 432 216 l 432 247 l 116 247 l 116 463 m 1273 -208 l 949 -208 l 949 185 l 733 185 l 733 463 l 1273 463 l 1273 -208 z "},"긂":{"ha":1389,"x_min":23,"x_max":1366,"o":"m 1204 1181 q 1296 1088 1296 1181 q 1290 961 1296 1026 q 1265 764 1284 897 l 918 787 q 940 926 935 894 l 131 926 l 100 1181 l 1204 1181 m 1366 741 l 1366 502 l 23 502 l 23 741 l 1366 741 m 1273 463 l 1273 -201 l 733 -201 l 733 463 l 1273 463 m 1026 31 l 1026 231 l 980 231 l 980 31 l 1026 31 m 116 463 l 687 463 l 687 39 l 370 39 l 370 2 q 687 15 549 0 l 710 -177 q 208 -208 556 -208 q 116 -116 116 -208 l 116 216 l 432 216 l 432 247 l 116 247 l 116 463 z "},"긃":{"ha":1389,"x_min":0,"x_max":0,"o":""},"긄":{"ha":1389,"x_min":0,"x_max":0,"o":""},"긅":{"ha":1389,"x_min":0,"x_max":0,"o":""},"긆":{"ha":1389,"x_min":0,"x_max":0,"o":""},"긇":{"ha":1389,"x_min":23,"x_max":1366,"o":"m 1204 1181 q 1296 1088 1296 1181 q 1290 961 1296 1026 q 1265 764 1284 897 l 918 787 q 940 926 935 894 l 131 926 l 100 1181 l 1204 1181 m 1366 741 l 1366 502 l 23 502 l 23 741 l 1366 741 m 1142 471 l 1142 409 l 1335 409 l 1335 208 l 718 208 l 718 409 l 910 409 l 910 471 l 1142 471 m 1026 -231 q 810 -177 887 -231 q 733 -23 733 -122 q 810 130 733 76 q 1026 185 887 185 q 1242 130 1165 185 q 1319 -23 1319 76 q 1242 -177 1319 -122 q 1026 -231 1165 -231 m 1026 -54 q 1079 -47 1062 -54 q 1096 -23 1096 -40 q 1079 1 1096 -6 q 1026 8 1062 8 q 974 1 991 8 q 957 -23 957 -6 q 974 -47 957 -40 q 1026 -54 991 -54 m 116 463 l 687 463 l 687 39 l 370 39 l 370 2 q 687 15 549 0 l 710 -177 q 208 -208 556 -208 q 116 -116 116 -208 l 116 216 l 432 216 l 432 247 l 116 247 l 116 463 z "},"금":{"ha":1389,"x_min":23,"x_max":1366,"o":"m 1204 1157 q 1296 1065 1296 1157 q 1279 880 1289 958 q 1250 694 1270 801 l 903 718 q 938 903 927 819 l 131 903 l 100 1157 l 1204 1157 m 1366 656 l 1366 401 l 23 401 l 23 656 l 1366 656 m 1273 340 l 1273 -185 l 208 -185 q 116 -93 116 -185 l 116 340 l 1273 340 m 972 54 l 972 100 l 417 100 l 417 54 l 972 54 z "},"급":{"ha":1389,"x_min":23,"x_max":1366,"o":"m 1204 1157 q 1296 1065 1296 1157 q 1279 880 1289 958 q 1250 694 1270 801 l 903 718 q 938 903 927 819 l 131 903 l 100 1157 l 1204 1157 m 1366 656 l 1366 401 l 23 401 l 23 656 l 1366 656 m 417 355 l 417 278 l 972 278 l 972 355 l 1273 355 l 1273 -185 l 208 -185 q 116 -93 116 -185 l 116 355 l 417 355 m 972 23 l 972 85 l 417 85 l 417 23 l 972 23 z "},"긊":{"ha":1389,"x_min":0,"x_max":0,"o":""},"긋":{"ha":1389,"x_min":23,"x_max":1366,"o":"m 1204 1157 q 1296 1065 1296 1157 q 1279 853 1289 938 q 1250 671 1270 769 l 903 694 q 932 856 921 779 l 131 856 l 100 1157 l 1204 1157 m 1366 617 l 1366 340 l 23 340 l 23 617 l 1366 617 m 880 301 l 880 278 q 938 200 880 233 q 1081 144 997 167 q 1296 93 1165 120 l 1366 77 l 1181 -201 q 934 -143 1068 -188 q 696 -20 799 -97 q 456 -147 593 -99 q 208 -208 319 -196 l 23 69 q 248 111 136 82 q 434 184 360 140 q 509 278 509 227 l 509 301 l 880 301 z "},"긌":{"ha":1389,"x_min":0,"x_max":0,"o":""},"긍":{"ha":1389,"x_min":23,"x_max":1366,"o":"m 1204 1157 q 1296 1065 1296 1157 q 1279 880 1289 958 q 1250 694 1270 801 l 903 718 q 938 903 927 819 l 131 903 l 100 1157 l 1204 1157 m 1366 656 l 1366 401 l 23 401 l 23 656 l 1366 656 m 694 -208 q 242 -137 392 -208 q 93 77 93 -66 q 242 292 93 221 q 694 363 392 363 q 1147 292 997 363 q 1296 77 1296 221 q 1147 -137 1296 -66 q 694 -208 997 -208 m 694 23 q 869 36 812 23 q 926 77 926 49 q 869 118 926 105 q 694 131 812 131 q 520 118 577 131 q 463 77 463 105 q 520 36 463 49 q 694 23 577 23 z "},"긎":{"ha":1389,"x_min":0,"x_max":0,"o":""},"긏":{"ha":1389,"x_min":23,"x_max":1366,"o":"m 1204 1181 q 1296 1088 1296 1181 q 1290 961 1296 1026 q 1265 764 1284 897 l 918 787 q 940 926 935 894 l 131 926 l 100 1181 l 1204 1181 m 1366 741 l 1366 502 l 23 502 l 23 741 l 1366 741 m 872 463 l 872 370 l 1273 370 l 1273 139 l 914 139 q 1090 73 971 97 q 1366 31 1210 48 l 1181 -201 q 933 -149 1066 -188 q 698 -43 799 -110 q 459 -154 596 -111 q 208 -208 323 -196 l 23 23 q 298 67 179 40 q 475 139 417 94 l 116 139 l 116 370 l 517 370 l 517 463 l 872 463 z "},"긐":{"ha":1389,"x_min":0,"x_max":0,"o":""},"긑":{"ha":1389,"x_min":23,"x_max":1366,"o":"m 1204 1181 q 1296 1088 1296 1181 q 1290 961 1296 1026 q 1265 764 1284 897 l 918 787 q 940 926 935 894 l 131 926 l 100 1181 l 1204 1181 m 1366 741 l 1366 502 l 23 502 l 23 741 l 1366 741 m 1281 455 l 1281 247 l 417 247 l 417 216 l 1273 216 l 1273 31 l 417 31 l 417 0 l 1289 0 l 1304 -208 l 208 -208 q 116 -116 116 -208 l 116 455 l 1281 455 z "},"긒":{"ha":1389,"x_min":0,"x_max":0,"o":""},"긓":{"ha":1389,"x_min":23,"x_max":1366,"o":"m 1204 1181 q 1296 1088 1296 1181 q 1290 961 1296 1026 q 1265 764 1284 897 l 918 787 q 940 926 935 894 l 131 926 l 100 1181 l 1204 1181 m 1366 741 l 1366 502 l 23 502 l 23 741 l 1366 741 m 694 -208 q 364 -188 491 -208 q 177 -124 238 -168 q 116 -8 116 -80 q 177 109 116 65 q 364 173 238 153 q 694 193 491 193 q 1025 173 898 193 q 1212 109 1151 153 q 1273 -8 1273 65 q 1212 -124 1273 -80 q 1025 -188 1151 -168 q 694 -208 898 -208 m 694 -39 q 874 -32 823 -39 q 926 -8 926 -25 q 874 16 926 9 q 694 23 823 23 q 515 16 566 23 q 463 -8 463 9 q 515 -32 463 -25 q 694 -39 566 -39 m 856 478 l 856 424 l 1296 424 l 1296 224 l 93 224 l 93 424 l 532 424 l 532 478 l 856 478 z "},"긔":{"ha":1389,"x_min":23,"x_max":1343,"o":"m 787 1111 q 880 1019 880 1111 q 868 628 880 815 q 833 324 856 441 l 532 347 q 576 810 569 602 l 62 810 l 31 1111 l 787 1111 m 162 255 q 605 269 367 255 q 949 301 843 284 l 949 -23 q 605 -55 843 -40 q 162 -69 367 -69 l 23 -69 l 23 255 l 162 255 m 1343 1181 l 1343 -185 l 995 -185 l 995 1181 l 1343 1181 z "},"긕":{"ha":1389,"x_min":0,"x_max":0,"o":""},"긖":{"ha":1389,"x_min":0,"x_max":0,"o":""},"긗":{"ha":1389,"x_min":0,"x_max":0,"o":""},"긘":{"ha":1389,"x_min":23,"x_max":1350,"o":"m 787 1157 q 880 1065 880 1157 q 873 847 880 965 q 856 648 867 730 l 556 671 q 577 880 569 752 l 62 880 l 31 1157 l 787 1157 m 1343 1181 l 1343 208 l 995 208 l 995 1181 l 1343 1181 m 208 586 q 622 601 409 586 q 949 633 835 616 l 949 363 q 629 325 844 341 q 208 309 414 309 l 23 309 l 23 586 l 208 586 m 486 255 l 486 116 l 1350 116 l 1350 -185 l 255 -185 q 162 -93 162 -185 l 162 255 l 486 255 z "},"긙":{"ha":1389,"x_min":0,"x_max":0,"o":""},"긚":{"ha":1389,"x_min":0,"x_max":0,"o":""},"긛":{"ha":1389,"x_min":0,"x_max":0,"o":""},"긜":{"ha":1389,"x_min":0,"x_max":0,"o":""},"긝":{"ha":1389,"x_min":0,"x_max":0,"o":""},"긞":{"ha":1389,"x_min":0,"x_max":0,"o":""},"긟":{"ha":1389,"x_min":0,"x_max":0,"o":""},"긠":{"ha":1389,"x_min":0,"x_max":0,"o":""},"긡":{"ha":1389,"x_min":0,"x_max":0,"o":""},"긢":{"ha":1389,"x_min":0,"x_max":0,"o":""},"긣":{"ha":1389,"x_min":0,"x_max":0,"o":""},"긤":{"ha":1389,"x_min":0,"x_max":0,"o":""},"긥":{"ha":1389,"x_min":0,"x_max":0,"o":""},"긦":{"ha":1389,"x_min":0,"x_max":0,"o":""},"긧":{"ha":1389,"x_min":0,"x_max":0,"o":""},"긨":{"ha":1389,"x_min":0,"x_max":0,"o":""},"긩":{"ha":1389,"x_min":23,"x_max":1358,"o":"m 787 1157 q 880 1065 880 1157 q 856 694 880 869 l 556 718 q 577 903 569 796 l 54 903 l 39 1157 l 787 1157 m 1343 1181 l 1343 370 l 995 370 l 995 1181 l 1343 1181 m 208 633 q 627 647 414 633 q 949 679 840 660 l 949 424 q 624 392 840 406 q 208 378 409 378 l 23 378 l 23 633 l 208 633 m 748 -208 q 139 62 139 -208 q 748 332 139 332 q 1358 62 1358 332 q 748 -208 1358 -208 m 748 0 q 980 62 980 0 q 748 123 980 123 q 517 62 517 123 q 748 0 517 0 z "},"긪":{"ha":1389,"x_min":0,"x_max":0,"o":""},"긫":{"ha":1389,"x_min":0,"x_max":0,"o":""},"긬":{"ha":1389,"x_min":0,"x_max":0,"o":""},"긭":{"ha":1389,"x_min":0,"x_max":0,"o":""},"긮":{"ha":1389,"x_min":0,"x_max":0,"o":""},"긯":{"ha":1389,"x_min":0,"x_max":0,"o":""},"기":{"ha":1389,"x_min":-23,"x_max":1319,"o":"m 741 1111 q 833 1019 833 1111 q 675 370 815 630 q 231 -46 535 111 l -23 216 q 302 456 185 315 q 451 787 418 597 l 85 787 l 54 1111 l 741 1111 m 1319 1181 l 1319 -185 l 972 -185 l 972 1181 l 1319 1181 z "},"긱":{"ha":1389,"x_min":-23,"x_max":1319,"o":"m 741 1157 q 809 1134 787 1157 q 826 1065 832 1111 q 116 394 778 511 l -23 671 q 242 745 137 701 q 403 856 347 790 l 85 856 l 54 1157 l 741 1157 m 1319 1181 l 1319 417 l 972 417 l 972 1181 l 1319 1181 m 1319 -185 l 972 -185 l 972 69 l 185 69 l 185 370 l 1319 370 l 1319 -185 z "},"긲":{"ha":1389,"x_min":0,"x_max":0,"o":""},"긳":{"ha":1389,"x_min":0,"x_max":0,"o":""},"긴":{"ha":1389,"x_min":-23,"x_max":1343,"o":"m 741 1157 q 809 1134 787 1157 q 826 1065 832 1111 q 601 575 798 752 q 116 347 404 398 l -23 625 q 417 856 312 688 l 85 856 l 54 1157 l 741 1157 m 1319 1181 l 1319 185 l 972 185 l 972 1181 l 1319 1181 m 556 324 l 556 116 l 1312 116 l 1343 -185 l 301 -185 q 208 -93 208 -185 l 208 324 l 556 324 z "},"긵":{"ha":1389,"x_min":0,"x_max":0,"o":""},"긶":{"ha":1389,"x_min":0,"x_max":0,"o":""},"긷":{"ha":1389,"x_min":-23,"x_max":1343,"o":"m 741 1157 q 809 1134 787 1157 q 826 1065 832 1111 q 609 621 799 762 q 116 440 418 480 l -23 694 q 265 760 151 716 q 435 880 378 804 l 85 880 l 54 1157 l 741 1157 m 1319 1181 l 1319 463 l 972 463 l 972 1181 l 1319 1181 m 1319 417 l 1319 147 l 532 147 l 532 85 l 1312 85 l 1343 -185 l 301 -185 q 208 -93 208 -185 l 208 417 l 1319 417 z "},"길":{"ha":1389,"x_min":-23,"x_max":1335,"o":"m 741 1157 q 809 1134 787 1157 q 826 1065 832 1111 q 593 675 793 798 q 93 532 392 552 l -23 764 q 261 807 150 775 q 431 903 372 840 l 77 903 l 62 1157 l 741 1157 m 1319 1181 l 1319 540 l 972 540 l 972 1181 l 1319 1181 m 208 509 l 1319 509 l 1319 62 l 556 62 l 556 31 l 1319 31 l 1335 -208 l 301 -208 q 208 -116 208 -208 l 208 247 l 972 247 l 972 278 l 208 278 l 208 509 z "},"긹":{"ha":1389,"x_min":0,"x_max":0,"o":""},"긺":{"ha":1389,"x_min":-23,"x_max":1319,"o":"m 741 1157 q 809 1134 787 1157 q 826 1065 832 1111 q 593 675 793 798 q 93 532 392 552 l -23 764 q 261 807 150 775 q 431 903 372 840 l 77 903 l 62 1157 l 741 1157 m 1319 1181 l 1319 540 l 972 540 l 972 1181 l 1319 1181 m 1319 509 l 1319 -201 l 779 -201 l 779 509 l 1319 509 m 1073 31 l 1073 278 l 1026 278 l 1026 31 l 1073 31 m 162 509 l 733 509 l 733 54 l 417 54 l 417 17 q 733 31 596 15 l 756 -177 q 255 -208 602 -208 q 162 -116 162 -208 l 162 247 l 478 247 l 478 278 l 162 278 l 162 509 z "},"긻":{"ha":1389,"x_min":0,"x_max":0,"o":""},"긼":{"ha":1389,"x_min":0,"x_max":0,"o":""},"긽":{"ha":1389,"x_min":0,"x_max":0,"o":""},"긾":{"ha":1389,"x_min":0,"x_max":0,"o":""},"긿":{"ha":1389,"x_min":0,"x_max":0,"o":""},"김":{"ha":1389,"x_min":-46,"x_max":1319,"o":"m 718 1157 q 786 1134 764 1157 q 802 1065 809 1111 q 586 621 776 762 q 93 440 395 480 l -46 694 q 242 760 128 716 q 412 880 355 804 l 62 880 l 31 1157 l 718 1157 m 1319 1181 l 1319 463 l 972 463 l 972 1181 l 1319 1181 m 1319 417 l 1319 -185 l 301 -185 q 208 -93 208 -185 l 208 417 l 1319 417 m 995 85 l 995 147 l 532 147 l 532 85 l 995 85 z "},"깁":{"ha":1389,"x_min":-46,"x_max":1319,"o":"m 718 1157 q 786 1134 764 1157 q 802 1065 809 1111 q 586 621 776 762 q 93 440 395 480 l -46 694 q 242 760 128 716 q 412 880 355 804 l 62 880 l 31 1157 l 718 1157 m 1319 1181 l 1319 463 l 972 463 l 972 1181 l 1319 1181 m 532 417 l 532 324 l 995 324 l 995 417 l 1319 417 l 1319 -185 l 301 -185 q 208 -93 208 -185 l 208 417 l 532 417 m 995 39 l 995 100 l 532 100 l 532 39 l 995 39 z "},"깂":{"ha":1389,"x_min":0,"x_max":0,"o":""},"깃":{"ha":1389,"x_min":-23,"x_max":1412,"o":"m 741 1157 q 809 1134 787 1157 q 826 1065 832 1111 q 601 575 798 752 q 116 347 404 398 l -23 625 q 417 856 312 688 l 85 856 l 54 1157 l 741 1157 m 1319 1181 l 1319 324 l 972 324 l 972 1181 l 1319 1181 m 918 440 l 918 394 q 1060 197 918 270 q 1412 77 1202 123 l 1227 -201 q 978 -113 1113 -176 q 742 48 844 -49 q 506 -117 642 -51 q 255 -208 370 -182 l 69 69 q 418 192 273 114 q 563 394 563 270 l 563 440 l 918 440 z "},"깄":{"ha":1389,"x_min":-23,"x_max":1481,"o":"m 741 1157 q 809 1134 787 1157 q 826 1065 832 1111 q 116 394 778 511 l -23 671 q 242 745 137 701 q 403 856 347 790 l 85 856 l 54 1157 l 741 1157 m 1319 1181 l 1319 417 l 972 417 l 972 1181 l 1319 1181 m 46 46 q 255 160 170 82 q 340 324 340 239 l 340 370 l 648 370 l 648 324 q 762 154 648 238 q 848 237 816 193 q 880 324 880 281 l 880 370 l 1188 370 l 1188 324 q 1273 160 1188 239 q 1481 46 1358 82 l 1273 -208 q 1022 -15 1122 -144 q 894 -131 963 -80 q 764 -208 826 -182 q 634 -132 702 -182 q 508 -17 566 -82 q 255 -208 406 -144 l 46 46 z "},"깅":{"ha":1389,"x_min":-23,"x_max":1358,"o":"m 741 1157 q 809 1134 787 1157 q 826 1065 832 1111 q 116 394 778 511 l -23 671 q 242 745 137 701 q 403 856 347 790 l 85 856 l 54 1157 l 741 1157 m 1319 1181 l 1319 417 l 972 417 l 972 1181 l 1319 1181 m 764 -208 q 170 100 170 -208 q 764 409 170 409 q 1358 100 1358 409 q 764 -208 1358 -208 m 764 39 q 995 100 995 39 q 764 162 995 162 q 532 100 532 162 q 764 39 532 39 z "},"깆":{"ha":1389,"x_min":-46,"x_max":1435,"o":"m 718 1157 q 786 1134 764 1157 q 802 1065 809 1111 q 586 621 776 762 q 93 440 395 480 l -46 694 q 242 760 128 716 q 412 880 355 804 l 62 880 l 31 1157 l 718 1157 m 1319 1181 l 1319 463 l 972 463 l 972 1181 l 1319 1181 m 93 46 q 333 91 215 60 q 517 170 451 122 l 208 170 l 208 417 l 1319 417 l 1319 170 l 1012 170 q 1194 96 1079 125 q 1435 54 1310 68 l 1250 -201 q 1204 -193 1224 -194 q 958 -127 1062 -162 q 765 -29 853 -93 q 569 -132 676 -96 q 316 -201 461 -168 q 278 -208 298 -205 l 93 46 z "},"깇":{"ha":1389,"x_min":0,"x_max":0,"o":""},"깈":{"ha":1389,"x_min":0,"x_max":0,"o":""},"깉":{"ha":1389,"x_min":0,"x_max":0,"o":""},"깊":{"ha":1389,"x_min":-46,"x_max":1350,"o":"m 718 1157 q 786 1134 764 1157 q 802 1065 809 1111 q 586 621 776 762 q 93 440 395 480 l -46 694 q 242 760 128 716 q 412 880 355 804 l 62 880 l 31 1157 l 718 1157 m 1319 1181 l 1319 463 l 972 463 l 972 1181 l 1319 1181 m 340 62 l 332 162 l 208 162 l 208 417 l 1319 417 l 1319 162 l 1196 162 l 1188 62 l 1335 62 l 1350 -185 l 185 -185 l 185 62 l 340 62 m 864 62 l 872 162 l 656 162 l 664 62 l 864 62 z "},"깋":{"ha":1389,"x_min":0,"x_max":0,"o":""},"까":{"ha":1389,"x_min":-69,"x_max":1412,"o":"m 455 1111 q 396 458 455 715 q 185 0 336 202 l -69 162 q 90 431 34 279 q 151 787 145 583 l 39 787 l 8 1111 l 455 1111 m 810 1111 q 903 1019 903 1111 q 828 399 897 659 q 602 -69 759 139 l 347 93 q 588 787 566 364 l 486 787 l 486 1111 l 810 1111 m 1273 1181 l 1273 741 l 1412 741 l 1412 370 l 1273 370 l 1273 -185 l 972 -185 l 972 1181 l 1273 1181 z "},"깍":{"ha":1389,"x_min":-46,"x_max":1412,"o":"m 455 1157 q 431 839 455 968 q 348 610 406 710 q 185 417 290 511 l -46 579 q 153 856 106 681 l 39 856 l 8 1157 l 455 1157 m 810 1157 q 903 1065 903 1157 q 829 671 890 824 q 625 394 767 519 l 370 556 q 582 856 526 679 l 486 856 l 486 1157 l 810 1157 m 1273 1181 l 1273 972 l 1412 972 l 1412 648 l 1273 648 l 1273 417 l 972 417 l 972 1181 l 1273 1181 m 1273 -185 l 949 -185 l 949 93 l 116 93 l 116 370 l 1273 370 l 1273 -185 z "},"깎":{"ha":1389,"x_min":-46,"x_max":1412,"o":"m 455 1157 q 431 839 455 968 q 348 610 406 710 q 185 417 290 511 l -46 579 q 153 856 106 681 l 39 856 l 8 1157 l 455 1157 m 810 1157 q 903 1065 903 1157 q 829 671 890 824 q 625 394 767 519 l 370 556 q 582 856 526 679 l 486 856 l 486 1157 l 810 1157 m 1273 1181 l 1273 972 l 1412 972 l 1412 648 l 1273 648 l 1273 417 l 972 417 l 972 1181 l 1273 1181 m 671 -185 l 324 -185 l 324 69 l 69 69 l 69 370 l 671 370 l 671 -185 m 1273 -185 l 926 -185 l 926 69 l 718 69 l 718 370 l 1273 370 l 1273 -185 z "},"깏":{"ha":1389,"x_min":0,"x_max":0,"o":""},"깐":{"ha":1389,"x_min":-46,"x_max":1412,"o":"m 455 1157 q 431 831 455 966 q 347 591 406 696 q 185 394 289 486 l -46 556 q 86 686 34 613 q 159 856 137 759 l 39 856 l 8 1157 l 455 1157 m 810 1157 q 903 1065 903 1157 q 828 657 890 819 q 625 370 765 494 l 370 532 q 588 856 537 670 l 486 856 l 486 1157 l 810 1157 m 1273 1181 l 1273 926 l 1412 926 l 1412 602 l 1273 602 l 1273 231 l 972 231 l 972 1181 l 1273 1181 m 463 324 l 463 116 l 1265 116 l 1296 -185 l 231 -185 q 139 -93 139 -185 l 139 324 l 463 324 z "},"깑":{"ha":1389,"x_min":0,"x_max":0,"o":""},"깒":{"ha":1389,"x_min":0,"x_max":0,"o":""},"깓":{"ha":1389,"x_min":0,"x_max":0,"o":""},"깔":{"ha":1389,"x_min":-46,"x_max":1412,"o":"m 455 1157 q 431 892 455 994 q 351 715 407 790 q 185 556 295 640 l -46 694 q 75 781 26 739 q 154 880 123 823 l 39 880 l 8 1157 l 455 1157 m 810 1157 q 903 1065 903 1157 q 865 843 895 934 q 779 681 835 752 q 625 532 722 610 l 370 671 q 401 694 389 687 q 509 786 468 747 q 582 880 551 826 l 486 880 l 486 1157 l 810 1157 m 1273 1181 l 1273 995 l 1412 995 l 1412 718 l 1273 718 l 1273 540 l 972 540 l 972 1181 l 1273 1181 m 1273 509 l 1273 46 l 463 46 l 463 15 l 1273 15 l 1289 -208 l 231 -208 q 139 -116 139 -208 l 139 255 l 949 255 l 949 285 l 139 285 l 139 509 l 1273 509 z "},"깕":{"ha":1389,"x_min":0,"x_max":0,"o":""},"깖":{"ha":1389,"x_min":-46,"x_max":1412,"o":"m 455 1157 q 431 892 455 994 q 351 715 407 790 q 185 556 295 640 l -46 694 q 75 781 26 739 q 154 880 123 823 l 39 880 l 8 1157 l 455 1157 m 810 1157 q 903 1065 903 1157 q 865 843 895 934 q 779 681 835 752 q 625 532 722 610 l 370 671 q 401 694 389 687 q 509 786 468 747 q 582 880 551 826 l 486 880 l 486 1157 l 810 1157 m 1273 1181 l 1273 995 l 1412 995 l 1412 718 l 1273 718 l 1273 540 l 972 540 l 972 1181 l 1273 1181 m 1273 509 l 1273 -201 l 725 -201 l 725 509 l 1273 509 m 1026 31 l 1026 278 l 972 278 l 972 31 l 1026 31 m 93 509 l 679 509 l 679 54 l 347 54 l 347 17 q 679 31 542 15 l 702 -177 q 185 -208 548 -208 q 93 -116 93 -208 l 93 247 l 432 247 l 432 278 l 93 278 l 93 509 z "},"깗":{"ha":1389,"x_min":0,"x_max":0,"o":""},"깘":{"ha":1389,"x_min":0,"x_max":0,"o":""},"깙":{"ha":1389,"x_min":0,"x_max":0,"o":""},"깚":{"ha":1389,"x_min":0,"x_max":0,"o":""},"깛":{"ha":1389,"x_min":0,"x_max":0,"o":""},"깜":{"ha":1389,"x_min":-46,"x_max":1412,"o":"m 455 1157 q 431 850 455 969 q 350 643 407 731 q 185 463 293 554 l -46 625 q 74 722 25 668 q 150 856 123 776 l 39 856 l 8 1157 l 455 1157 m 810 1157 q 903 1065 903 1157 q 867 802 895 909 q 781 611 838 696 q 625 440 724 526 l 370 602 q 494 718 441 659 q 577 856 546 776 l 486 856 l 486 1157 l 810 1157 m 1273 1181 l 1273 995 l 1412 995 l 1412 694 l 1273 694 l 1273 463 l 972 463 l 972 1181 l 1273 1181 m 1273 417 l 1273 -185 l 231 -185 q 139 -93 139 -185 l 139 417 l 1273 417 m 949 85 l 949 147 l 463 147 l 463 85 l 949 85 z "},"깝":{"ha":1389,"x_min":-46,"x_max":1412,"o":"m 455 1157 q 431 850 455 969 q 350 643 407 731 q 185 463 293 554 l -46 625 q 74 722 25 668 q 150 856 123 776 l 39 856 l 8 1157 l 455 1157 m 810 1157 q 903 1065 903 1157 q 867 802 895 909 q 781 611 838 696 q 625 440 724 526 l 370 602 q 494 718 441 659 q 577 856 546 776 l 486 856 l 486 1157 l 810 1157 m 1273 1181 l 1273 995 l 1412 995 l 1412 694 l 1273 694 l 1273 463 l 972 463 l 972 1181 l 1273 1181 m 463 417 l 463 324 l 949 324 l 949 417 l 1273 417 l 1273 -185 l 231 -185 q 139 -93 139 -185 l 139 417 l 463 417 m 949 39 l 949 100 l 463 100 l 463 39 l 949 39 z "},"깞":{"ha":1389,"x_min":0,"x_max":0,"o":""},"깟":{"ha":1389,"x_min":-46,"x_max":1435,"o":"m 455 1157 q 431 831 455 966 q 347 591 406 696 q 185 394 289 486 l -46 556 q 86 686 34 613 q 159 856 137 759 l 39 856 l 8 1157 l 455 1157 m 810 1157 q 903 1065 903 1157 q 828 657 890 819 q 625 370 765 494 l 370 532 q 588 856 537 670 l 486 856 l 486 1157 l 810 1157 m 1273 1181 l 1273 972 l 1412 972 l 1412 648 l 1273 648 l 1273 324 l 972 324 l 972 1181 l 1273 1181 m 918 370 l 918 347 q 1076 153 918 222 q 1435 62 1235 83 l 1250 -201 q 992 -133 1134 -188 q 742 17 849 -77 q 490 -138 634 -80 q 231 -208 346 -196 l 46 54 q 284 103 167 68 q 482 199 401 137 q 563 347 563 261 l 563 370 l 918 370 z "},"깠":{"ha":1389,"x_min":-46,"x_max":1458,"o":"m 455 1157 q 431 839 455 968 q 348 610 406 710 q 185 417 290 511 l -46 579 q 153 856 106 681 l 39 856 l 8 1157 l 455 1157 m 810 1157 q 903 1065 903 1157 q 829 671 890 824 q 625 394 767 519 l 370 556 q 582 856 526 679 l 486 856 l 486 1157 l 810 1157 m 1273 1181 l 1273 972 l 1412 972 l 1412 648 l 1273 648 l 1273 417 l 972 417 l 972 1181 l 1273 1181 m -23 23 q 199 137 113 62 q 285 324 285 211 l 285 370 l 594 370 l 594 324 q 716 122 594 205 q 841 324 841 207 l 841 370 l 1150 370 l 1150 324 q 1236 137 1150 211 q 1458 23 1323 62 l 1250 -208 q 1110 -127 1179 -177 q 985 -9 1040 -77 q 853 -129 924 -77 q 718 -208 782 -181 q 583 -130 653 -181 q 452 -11 514 -79 q 185 -208 346 -139 l -23 23 z "},"깡":{"ha":1389,"x_min":-46,"x_max":1412,"o":"m 455 1157 q 431 839 455 968 q 348 610 406 710 q 185 417 290 511 l -46 579 q 153 856 106 681 l 39 856 l 8 1157 l 455 1157 m 810 1157 q 903 1065 903 1157 q 833 680 890 829 q 640 407 775 531 l 710 409 q 1304 100 1304 409 q 710 -208 1304 -208 q 116 100 116 -208 q 605 406 116 380 l 370 556 q 582 856 526 679 l 486 856 l 486 1157 l 810 1157 m 1273 1181 l 1273 972 l 1412 972 l 1412 648 l 1273 648 l 1273 417 l 972 417 l 972 1181 l 1273 1181 m 710 39 q 894 52 840 39 q 949 100 949 66 q 894 148 949 134 q 710 162 840 162 q 525 148 580 162 q 471 100 471 134 q 525 52 471 66 q 710 39 580 39 z "},"깢":{"ha":1389,"x_min":0,"x_max":0,"o":""},"깣":{"ha":1389,"x_min":0,"x_max":0,"o":""},"깤":{"ha":1389,"x_min":0,"x_max":0,"o":""},"깥":{"ha":1389,"x_min":-46,"x_max":1412,"o":"m 455 1157 q 431 892 455 994 q 351 715 407 790 q 185 556 295 640 l -46 694 q 75 781 26 739 q 154 880 123 823 l 39 880 l 8 1157 l 455 1157 m 810 1157 q 903 1065 903 1157 q 865 843 895 934 q 779 681 835 752 q 625 532 722 610 l 370 671 q 401 694 389 687 q 509 786 468 747 q 582 880 551 826 l 486 880 l 486 1157 l 810 1157 m 1273 1181 l 1273 995 l 1412 995 l 1412 718 l 1273 718 l 1273 540 l 972 540 l 972 1181 l 1273 1181 m 1281 509 l 1281 278 l 440 278 l 440 247 l 1273 247 l 1273 54 l 440 54 l 440 23 l 1289 23 l 1304 -208 l 231 -208 q 139 -116 139 -208 l 139 509 l 1281 509 z "},"깦":{"ha":1389,"x_min":0,"x_max":0,"o":""},"깧":{"ha":1389,"x_min":0,"x_max":0,"o":""},"깨":{"ha":1389,"x_min":-93,"x_max":1366,"o":"m 363 1111 q 350 694 363 881 q 292 323 336 506 q 162 0 248 140 l -93 139 q 27 419 -15 255 q 76 787 69 583 l -8 787 l -39 1111 l 363 1111 m 671 1111 q 764 1019 764 1111 q 710 400 756 665 q 532 -69 664 134 l 278 69 q 421 379 370 194 q 477 787 471 563 l 394 787 l 394 1111 l 671 1111 m 1073 1181 l 1073 741 l 1119 741 l 1119 1181 l 1366 1181 l 1366 -185 l 1119 -185 l 1119 370 l 1073 370 l 1073 -185 l 826 -185 l 826 1181 l 1073 1181 z "},"깩":{"ha":1389,"x_min":-77,"x_max":1366,"o":"m 363 1157 q 348 855 363 975 q 289 632 333 735 q 154 440 244 529 l -77 579 q 105 880 68 694 l -8 880 l -39 1157 l 363 1157 m 671 1157 q 764 1065 764 1157 q 698 672 752 824 q 525 394 645 520 l 293 532 q 418 676 364 594 q 492 880 472 758 l 394 880 l 394 1157 l 671 1157 m 1073 1181 l 1073 972 l 1119 972 l 1119 1181 l 1366 1181 l 1366 417 l 1119 417 l 1119 648 l 1073 648 l 1073 417 l 826 417 l 826 1181 l 1073 1181 m 1366 -185 l 1042 -185 l 1042 93 l 139 93 l 139 370 l 1366 370 l 1366 -185 z "},"깪":{"ha":1389,"x_min":0,"x_max":0,"o":""},"깫":{"ha":1389,"x_min":0,"x_max":0,"o":""},"깬":{"ha":1389,"x_min":-77,"x_max":1389,"o":"m 363 1157 q 348 846 363 974 q 289 606 333 719 q 154 394 244 494 l -77 532 q 37 673 -14 583 q 108 880 88 762 l -8 880 l -39 1157 l 363 1157 m 671 1157 q 764 1065 764 1157 q 698 656 752 823 q 525 347 644 489 l 293 486 q 417 644 361 545 q 494 880 474 742 l 394 880 l 394 1157 l 671 1157 m 1073 1181 l 1073 926 l 1119 926 l 1119 1181 l 1366 1181 l 1366 231 l 1119 231 l 1119 602 l 1073 602 l 1073 231 l 826 231 l 826 1181 l 1073 1181 m 486 324 l 486 116 l 1358 116 l 1389 -185 l 255 -185 q 162 -93 162 -185 l 162 324 l 486 324 z "},"깭":{"ha":1389,"x_min":0,"x_max":0,"o":""},"깮":{"ha":1389,"x_min":0,"x_max":0,"o":""},"깯":{"ha":1389,"x_min":-77,"x_max":1389,"o":"m 363 1157 q 348 869 363 978 q 289 668 333 759 q 154 486 245 577 l -77 625 q 32 730 -14 673 q 100 880 77 787 l -8 880 l -39 1157 l 363 1157 m 671 1157 q 764 1065 764 1157 q 731 802 756 909 q 657 612 705 696 q 525 440 608 528 l 293 579 q 410 701 360 633 q 486 880 461 769 l 394 880 l 394 1157 l 671 1157 m 1073 1181 l 1073 995 l 1119 995 l 1119 1181 l 1366 1181 l 1366 463 l 1119 463 l 1119 694 l 1073 694 l 1073 463 l 826 463 l 826 1181 l 1073 1181 m 255 -185 q 162 -93 162 -185 l 162 417 l 1366 417 l 1366 147 l 509 147 l 509 85 l 1358 85 l 1389 -185 l 255 -185 z "},"깰":{"ha":1389,"x_min":-77,"x_max":1381,"o":"m 363 1157 q 316 795 363 931 q 154 556 270 659 l -77 671 q 25 761 -22 708 q 97 903 73 813 l -15 903 l -31 1157 l 363 1157 m 671 1157 q 764 1065 764 1157 q 738 829 759 924 q 671 665 716 735 q 548 532 627 596 l 316 648 q 497 903 454 752 l 394 903 l 394 1157 l 671 1157 m 1073 1181 l 1073 995 l 1119 995 l 1119 1181 l 1366 1181 l 1366 540 l 1119 540 l 1119 718 l 1073 718 l 1073 540 l 826 540 l 826 1181 l 1073 1181 m 1366 509 l 1366 46 l 509 46 l 509 15 l 1366 15 l 1381 -208 l 255 -208 q 162 -116 162 -208 l 162 255 l 1019 255 l 1019 285 l 162 285 l 162 509 l 1366 509 z "},"깱":{"ha":1389,"x_min":0,"x_max":0,"o":""},"깲":{"ha":1389,"x_min":0,"x_max":0,"o":""},"깳":{"ha":1389,"x_min":0,"x_max":0,"o":""},"깴":{"ha":1389,"x_min":0,"x_max":0,"o":""},"깵":{"ha":1389,"x_min":0,"x_max":0,"o":""},"깶":{"ha":1389,"x_min":0,"x_max":0,"o":""},"깷":{"ha":1389,"x_min":0,"x_max":0,"o":""},"깸":{"ha":1389,"x_min":-77,"x_max":1366,"o":"m 363 1157 q 348 869 363 978 q 289 668 333 759 q 154 486 245 577 l -77 625 q 32 730 -14 673 q 100 880 77 787 l -8 880 l -39 1157 l 363 1157 m 671 1157 q 764 1065 764 1157 q 731 802 756 909 q 657 612 705 696 q 525 440 608 528 l 293 579 q 410 701 360 633 q 486 880 461 769 l 394 880 l 394 1157 l 671 1157 m 1073 1181 l 1073 995 l 1119 995 l 1119 1181 l 1366 1181 l 1366 463 l 1119 463 l 1119 694 l 1073 694 l 1073 463 l 826 463 l 826 1181 l 1073 1181 m 255 -185 q 162 -93 162 -185 l 162 417 l 1366 417 l 1366 -185 l 255 -185 m 486 85 l 1042 85 l 1042 147 l 486 147 l 486 85 z "},"깹":{"ha":1389,"x_min":-77,"x_max":1366,"o":"m 363 1157 q 348 869 363 978 q 289 668 333 759 q 154 486 245 577 l -77 625 q 32 730 -14 673 q 100 880 77 787 l -8 880 l -39 1157 l 363 1157 m 671 1157 q 764 1065 764 1157 q 731 802 756 909 q 657 612 705 696 q 525 440 608 528 l 293 579 q 410 701 360 633 q 486 880 461 769 l 394 880 l 394 1157 l 671 1157 m 1073 1181 l 1073 995 l 1119 995 l 1119 1181 l 1366 1181 l 1366 463 l 1119 463 l 1119 694 l 1073 694 l 1073 463 l 826 463 l 826 1181 l 1073 1181 m 486 417 l 486 324 l 1042 324 l 1042 417 l 1366 417 l 1366 -185 l 255 -185 q 162 -93 162 -185 l 162 417 l 486 417 m 1042 39 l 1042 100 l 486 100 l 486 39 l 1042 39 z "},"깺":{"ha":1389,"x_min":0,"x_max":0,"o":""},"깻":{"ha":1389,"x_min":-77,"x_max":1458,"o":"m 363 1157 q 348 846 363 974 q 289 606 333 719 q 154 394 244 494 l -77 532 q 37 673 -14 583 q 108 880 88 762 l -8 880 l -39 1157 l 363 1157 m 671 1157 q 764 1065 764 1157 q 698 656 752 823 q 525 347 644 489 l 293 486 q 417 644 361 545 q 494 880 474 742 l 394 880 l 394 1157 l 671 1157 m 1073 1181 l 1073 972 l 1119 972 l 1119 1181 l 1366 1181 l 1366 347 l 1119 347 l 1119 648 l 1073 648 l 1073 417 l 826 417 l 826 1181 l 1073 1181 m 941 370 l 941 347 q 1100 153 941 222 q 1458 62 1258 83 l 1273 -201 q 1015 -133 1157 -188 q 765 17 872 -77 q 513 -138 657 -80 q 255 -208 369 -196 l 69 54 q 307 103 190 68 q 505 199 424 137 q 586 347 586 261 l 586 370 l 941 370 z "},"깼":{"ha":1389,"x_min":-77,"x_max":1528,"o":"m 363 1157 q 348 855 363 975 q 289 632 333 735 q 154 440 244 529 l -77 579 q 105 880 68 694 l -8 880 l -39 1157 l 363 1157 m 671 1157 q 764 1065 764 1157 q 698 672 752 824 q 525 394 645 520 l 293 532 q 418 676 364 594 q 492 880 472 758 l 394 880 l 394 1157 l 671 1157 m 1073 1181 l 1073 972 l 1119 972 l 1119 1181 l 1366 1181 l 1366 417 l 1119 417 l 1119 648 l 1073 648 l 1073 417 l 826 417 l 826 1181 l 1073 1181 m 0 23 q 227 137 137 63 q 316 324 316 211 l 316 370 l 625 370 l 625 324 q 762 117 625 204 q 903 324 903 205 l 903 370 l 1211 370 l 1211 324 q 1301 137 1211 211 q 1528 23 1390 63 l 1319 -208 q 1045 -3 1154 -137 q 906 -127 981 -73 q 764 -208 830 -181 q 623 -127 698 -181 q 485 -5 548 -74 q 355 -125 427 -74 q 208 -208 282 -176 l 0 23 z "},"깽":{"ha":1389,"x_min":-77,"x_max":1389,"o":"m 363 1157 q 348 855 363 975 q 289 632 333 735 q 154 440 244 529 l -77 579 q 105 880 68 694 l -8 880 l -39 1157 l 363 1157 m 671 1157 q 764 1065 764 1157 q 698 673 752 826 q 526 395 645 520 q 764 409 633 409 q 1233 333 1077 409 q 1389 100 1389 256 q 1233 -132 1389 -56 q 764 -208 1077 -208 q 295 -132 451 -208 q 139 100 139 -56 q 523 395 139 344 l 293 532 q 418 676 364 594 q 492 880 472 758 l 394 880 l 394 1157 l 671 1157 m 1073 1181 l 1073 972 l 1119 972 l 1119 1181 l 1366 1181 l 1366 417 l 1119 417 l 1119 648 l 1073 648 l 1073 463 l 826 463 l 826 1181 l 1073 1181 m 764 31 q 959 48 900 31 q 1019 100 1019 65 q 959 153 1019 136 q 764 170 900 170 q 569 153 628 170 q 509 100 509 136 q 569 48 509 65 q 764 31 628 31 z "},"깾":{"ha":1389,"x_min":0,"x_max":0,"o":""},"깿":{"ha":1389,"x_min":0,"x_max":0,"o":""},"꺀":{"ha":1389,"x_min":0,"x_max":0,"o":""},"꺁":{"ha":1389,"x_min":0,"x_max":0,"o":""},"꺂":{"ha":1389,"x_min":0,"x_max":0,"o":""},"꺃":{"ha":1389,"x_min":0,"x_max":0,"o":""},"꺄":{"ha":1389,"x_min":-69,"x_max":1412,"o":"m 455 1111 q 396 458 455 715 q 185 0 336 202 l -69 162 q 90 431 34 279 q 151 787 145 583 l 39 787 l 8 1111 l 455 1111 m 810 1111 q 903 1019 903 1111 q 828 399 897 659 q 602 -69 759 139 l 347 93 q 588 787 566 364 l 486 787 l 486 1111 l 810 1111 m 1273 1181 l 1273 972 l 1412 972 l 1412 648 l 1273 648 l 1273 509 l 1412 509 l 1412 185 l 1273 185 l 1273 -185 l 972 -185 l 972 1181 l 1273 1181 z "},"꺅":{"ha":1389,"x_min":-46,"x_max":1412,"o":"m 455 1157 q 431 839 455 968 q 348 610 406 710 q 185 417 290 511 l -46 579 q 153 856 106 681 l 39 856 l 8 1157 l 455 1157 m 810 1157 q 903 1065 903 1157 q 829 671 890 824 q 625 394 767 519 l 370 556 q 582 856 526 679 l 486 856 l 486 1157 l 810 1157 m 1273 1181 l 1273 1080 l 1412 1080 l 1412 856 l 1273 856 l 1273 772 l 1412 772 l 1412 532 l 1273 532 l 1273 417 l 972 417 l 972 1181 l 1273 1181 m 1273 -185 l 949 -185 l 949 93 l 116 93 l 116 370 l 1273 370 l 1273 -185 z "},"꺆":{"ha":1389,"x_min":-46,"x_max":1412,"o":"m 455 1157 q 431 839 455 968 q 348 610 406 710 q 185 417 290 511 l -46 579 q 153 856 106 681 l 39 856 l 8 1157 l 455 1157 m 810 1157 q 903 1065 903 1157 q 829 671 890 824 q 625 394 767 519 l 370 556 q 582 856 526 679 l 486 856 l 486 1157 l 810 1157 m 1273 1181 l 1273 1080 l 1412 1080 l 1412 856 l 1273 856 l 1273 772 l 1412 772 l 1412 532 l 1273 532 l 1273 417 l 972 417 l 972 1181 l 1273 1181 m 671 -185 l 324 -185 l 324 69 l 69 69 l 69 370 l 671 370 l 671 -185 m 1273 -185 l 926 -185 l 926 69 l 718 69 l 718 370 l 1273 370 l 1273 -185 z "},"꺇":{"ha":1389,"x_min":0,"x_max":0,"o":""},"꺈":{"ha":1389,"x_min":0,"x_max":0,"o":""},"꺉":{"ha":1389,"x_min":0,"x_max":0,"o":""},"꺊":{"ha":1389,"x_min":0,"x_max":0,"o":""},"꺋":{"ha":1389,"x_min":0,"x_max":0,"o":""},"꺌":{"ha":1389,"x_min":-46,"x_max":1412,"o":"m 455 1157 q 431 892 455 994 q 351 715 407 790 q 185 556 295 640 l -46 694 q 75 781 26 739 q 154 880 123 823 l 39 880 l 8 1157 l 455 1157 m 810 1157 q 903 1065 903 1157 q 865 843 895 934 q 779 681 835 752 q 625 532 722 610 l 370 671 q 401 694 389 687 q 509 786 468 747 q 582 880 551 826 l 486 880 l 486 1157 l 810 1157 m 1273 1181 l 1273 1088 l 1412 1088 l 1412 880 l 1273 880 l 1273 833 l 1412 833 l 1412 625 l 1273 625 l 1273 540 l 972 540 l 972 1181 l 1273 1181 m 1273 509 l 1273 46 l 463 46 l 463 15 l 1273 15 l 1289 -208 l 231 -208 q 139 -116 139 -208 l 139 255 l 949 255 l 949 285 l 139 285 l 139 509 l 1273 509 z "},"꺍":{"ha":1389,"x_min":-46,"x_max":1412,"o":"m 455 1157 q 431 892 455 994 q 351 715 407 790 q 185 556 295 640 l -46 694 q 75 781 26 739 q 154 880 123 823 l 39 880 l 8 1157 l 455 1157 m 810 1157 q 903 1065 903 1157 q 865 843 895 934 q 779 681 835 752 q 625 532 722 610 l 370 671 q 401 694 389 687 q 509 786 468 747 q 582 880 551 826 l 486 880 l 486 1157 l 810 1157 m 1273 1181 l 1273 1088 l 1412 1088 l 1412 880 l 1273 880 l 1273 833 l 1412 833 l 1412 625 l 1273 625 l 1273 540 l 972 540 l 972 1181 l 1273 1181 m 93 509 l 679 509 l 679 54 l 347 54 l 347 20 q 409 23 386 20 l 463 23 q 802 46 656 23 l 826 -170 q 185 -208 619 -205 q 93 -116 93 -208 l 93 247 l 432 247 l 432 278 l 93 278 l 93 509 m 1273 -208 l 949 -208 l 949 208 l 725 208 l 725 509 l 1273 509 l 1273 -208 z "},"꺎":{"ha":1389,"x_min":0,"x_max":0,"o":""},"꺏":{"ha":1389,"x_min":0,"x_max":0,"o":""},"꺐":{"ha":1389,"x_min":0,"x_max":0,"o":""},"꺑":{"ha":1389,"x_min":0,"x_max":0,"o":""},"꺒":{"ha":1389,"x_min":0,"x_max":0,"o":""},"꺓":{"ha":1389,"x_min":0,"x_max":0,"o":""},"꺔":{"ha":1389,"x_min":0,"x_max":0,"o":""},"꺕":{"ha":1389,"x_min":0,"x_max":0,"o":""},"꺖":{"ha":1389,"x_min":0,"x_max":0,"o":""},"꺗":{"ha":1389,"x_min":0,"x_max":0,"o":""},"꺘":{"ha":1389,"x_min":0,"x_max":0,"o":""},"꺙":{"ha":1389,"x_min":0,"x_max":0,"o":""},"꺚":{"ha":1389,"x_min":0,"x_max":0,"o":""},"꺛":{"ha":1389,"x_min":0,"x_max":0,"o":""},"꺜":{"ha":1389,"x_min":0,"x_max":0,"o":""},"꺝":{"ha":1389,"x_min":0,"x_max":0,"o":""},"꺞":{"ha":1389,"x_min":0,"x_max":0,"o":""},"꺟":{"ha":1389,"x_min":0,"x_max":0,"o":""},"꺠":{"ha":1389,"x_min":-93,"x_max":1366,"o":"m 363 1111 q 350 694 363 881 q 292 323 336 506 q 162 0 248 140 l -93 139 q 27 419 -15 255 q 76 787 69 583 l -8 787 l -39 1111 l 363 1111 m 671 1111 q 764 1019 764 1111 q 710 400 756 665 q 532 -69 664 134 l 278 69 q 421 379 370 194 q 477 787 471 563 l 394 787 l 394 1111 l 671 1111 m 1073 1181 l 1073 972 l 1119 972 l 1119 1181 l 1366 1181 l 1366 -185 l 1119 -185 l 1119 185 l 1073 185 l 1073 -185 l 826 -185 l 826 1181 l 1073 1181 m 1119 509 l 1119 648 l 1073 648 l 1073 509 l 1119 509 z "},"꺡":{"ha":1389,"x_min":0,"x_max":0,"o":""},"꺢":{"ha":1389,"x_min":0,"x_max":0,"o":""},"꺣":{"ha":1389,"x_min":0,"x_max":0,"o":""},"꺤":{"ha":1389,"x_min":-77,"x_max":1389,"o":"m 363 1157 q 348 846 363 974 q 289 606 333 719 q 154 394 244 494 l -77 532 q 37 673 -14 583 q 108 880 88 762 l -8 880 l -39 1157 l 363 1157 m 671 1157 q 764 1065 764 1157 q 698 656 752 823 q 525 347 644 489 l 293 486 q 417 644 361 545 q 494 880 474 742 l 394 880 l 394 1157 l 671 1157 m 1073 1181 l 1073 1065 l 1119 1065 l 1119 1181 l 1366 1181 l 1366 231 l 1119 231 l 1119 463 l 1073 463 l 1073 231 l 826 231 l 826 1181 l 1073 1181 m 486 324 l 486 116 l 1358 116 l 1389 -185 l 255 -185 q 162 -93 162 -185 l 162 324 l 486 324 m 1119 718 l 1119 810 l 1073 810 l 1073 718 l 1119 718 z "},"꺥":{"ha":1389,"x_min":0,"x_max":0,"o":""},"꺦":{"ha":1389,"x_min":0,"x_max":0,"o":""},"꺧":{"ha":1389,"x_min":0,"x_max":0,"o":""},"꺨":{"ha":1389,"x_min":0,"x_max":0,"o":""},"꺩":{"ha":1389,"x_min":0,"x_max":0,"o":""},"꺪":{"ha":1389,"x_min":0,"x_max":0,"o":""},"꺫":{"ha":1389,"x_min":0,"x_max":0,"o":""},"꺬":{"ha":1389,"x_min":0,"x_max":0,"o":""},"꺭":{"ha":1389,"x_min":0,"x_max":0,"o":""},"꺮":{"ha":1389,"x_min":0,"x_max":0,"o":""},"꺯":{"ha":1389,"x_min":0,"x_max":0,"o":""},"꺰":{"ha":1389,"x_min":0,"x_max":0,"o":""},"꺱":{"ha":1389,"x_min":0,"x_max":0,"o":""},"꺲":{"ha":1389,"x_min":0,"x_max":0,"o":""},"꺳":{"ha":1389,"x_min":0,"x_max":0,"o":""},"꺴":{"ha":1389,"x_min":0,"x_max":0,"o":""},"꺵":{"ha":1389,"x_min":0,"x_max":0,"o":""},"꺶":{"ha":1389,"x_min":0,"x_max":0,"o":""},"꺷":{"ha":1389,"x_min":0,"x_max":0,"o":""},"꺸":{"ha":1389,"x_min":0,"x_max":0,"o":""},"꺹":{"ha":1389,"x_min":0,"x_max":0,"o":""},"꺺":{"ha":1389,"x_min":0,"x_max":0,"o":""},"꺻":{"ha":1389,"x_min":0,"x_max":0,"o":""},"꺼":{"ha":1389,"x_min":-69,"x_max":1343,"o":"m 455 1111 q 396 458 455 715 q 185 0 336 202 l -69 162 q 90 431 34 279 q 151 787 145 583 l 39 787 l 8 1111 l 455 1111 m 810 1111 q 903 1019 903 1111 q 887 741 900 867 l 1019 741 l 1019 1181 l 1343 1181 l 1343 -185 l 1019 -185 l 1019 370 l 849 370 l 849 485 q 753 188 813 323 q 602 -69 693 52 l 347 93 q 588 787 566 364 l 486 787 l 486 1111 l 810 1111 z "}}}
